<svg width="305" height="305" viewBox="0 0 305 305" fill="none" xmlns="http://www.w3.org/2000/svg">
<g clip-path="url(#clip0_844_3953)">
<path d="M174.381 170.223C170.798 180.985 166.605 191.533 161.822 201.818C160.869 203.635 160.163 205.571 159.722 207.576C159.325 209.925 159.694 212.329 160.064 214.683C162.871 232.595 165.678 250.508 168.484 268.421C171.76 267.556 181.227 264.793 184.657 263.927C184.252 256.228 182.733 239.62 181.415 230.295C180.904 226.679 180.12 222.335 180.807 218.747C181.346 215.425 182.506 212.234 184.226 209.341C192.184 195.666 203.036 181.567 210.993 167.894" fill="#3F88C9"/>
<path d="M109.98 34.681C110.219 36.7011 110.679 38.6889 111.352 40.6087C112.297 44.2396 113.62 49.2764 110.847 52.0218C110.277 52.5447 109.898 53.2424 109.769 54.0048C109.504 56.0281 111.28 56.3816 112.54 57.1338C113.336 57.6231 114 58.2999 114.474 59.1051C115.147 61.0197 116.984 65.2346 118.908 67.2142C120.141 68.6009 121.863 69.4556 123.713 69.5985C126.731 69.7989 130.779 68.6228 133.943 67.9855C135.767 67.6819 137.267 67.5485 138.914 68.22C139.341 68.3945 139.746 68.617 140.121 68.8833C141.766 70.0402 142.882 71.9384 143.888 73.7382C145.204 76.0918 146.708 78.5001 148.024 80.8536L148.145 81.0697C148.282 80.654 148.424 80.2403 148.567 79.828C150.326 74.7426 154.242 66.6781 157.435 60.883C157.27 60.3907 157.249 59.9325 157.099 59.3923C156.19 56.1785 158.207 52.5613 159.451 49.5937C161.512 43.6341 161.986 37.2407 160.826 31.0425C158.357 18.7686 150.815 13.3667 145.406 11.6777C137.908 9.25528 129.758 9.88165 122.718 13.4214C116.434 16.4847 108.694 23.2132 109.979 34.6871" fill="#FFFAE2"/>
<path d="M159.216 57.752C155.873 63.374 150.669 73.7341 148.565 79.8232C147.854 81.602 147.399 83.4729 147.215 85.3797C147.206 87.1093 147.419 88.8328 147.85 90.5081L151.771 109.017C153.391 116.007 160.685 129.626 162.078 133.207C161.852 134.416 165.529 141.817 168.903 143.594C184.575 148.293 202.94 152.857 219.299 153.003C223.755 153.208 222.945 147.938 221.628 142.569C220.919 137.808 217.454 128.507 216.918 127.374L213.731 122.513C210.54 115.676 209.716 112.922 205.495 103.666C196.984 85.0029 182.769 68.084 159.216 57.752Z" fill="white"/>
<path d="M161.047 42.9377C161.674 38.9882 161.598 34.9588 160.822 31.0357C158.36 18.7645 150.816 13.3626 145.406 11.6757C137.908 9.25053 129.755 9.87697 122.715 13.4193C116.751 16.3234 109.471 22.5328 109.85 32.9702C113.942 32.5879 118.155 32.19 118.155 32.19C122.897 31.9069 126.537 33.2478 129.873 35.0619C133.005 36.7624 135.089 41.3219 137.343 41.0724C137.519 39.4848 138.271 38.0169 139.457 36.9464C139.854 36.6211 140.322 36.3923 140.823 36.2781C141.324 36.1638 141.844 36.1672 142.344 36.2879C143.834 36.7125 144.677 38.2996 145.022 39.8094C145.354 41.0637 145.433 42.3717 145.253 43.6567C145.073 44.9418 144.638 46.1779 143.974 47.2928C147.188 50.1537 151.864 54.2332 157.035 56.0753C157.453 53.8325 158.623 51.5657 159.449 49.5917C160.168 47.4228 160.703 45.1968 161.047 42.9377Z" fill="#393939"/>
<path d="M144.013 49.5095C147.613 52.6515 151.427 55.5864 155.89 57.3874C156.309 57.5004 156.756 57.4434 157.134 57.2289C157.512 57.0144 157.79 56.6596 157.908 56.2414C158.013 55.8221 157.953 55.3785 157.739 55.0025C157.526 54.6266 157.176 54.3474 156.762 54.2229C154.758 53.3565 152.855 52.2736 151.087 50.9934C149.437 49.8095 147.85 48.5396 146.334 47.1888C146.022 46.8906 145.606 46.7242 145.174 46.7242C144.742 46.7242 144.326 46.8906 144.014 47.1888C143.709 47.4984 143.539 47.9151 143.539 48.3492C143.539 48.7832 143.709 49.1999 144.013 49.5095Z" fill="#211715"/>
<path d="M118.155 33.8311C122.003 33.6461 125.821 34.5851 129.143 36.5334C131.847 38.0808 133.202 41.7438 136.315 42.6129C138.353 43.1818 139.223 40.0145 137.188 39.4477C136.762 39.3287 137.43 39.6056 137.012 39.3923C136.863 39.3149 136.72 39.2257 136.585 39.1256C136.585 39.1256 136.193 38.7837 136.053 38.647C135.467 38.0781 134.935 37.4565 134.389 36.8507C133.197 35.4361 131.758 34.2498 130.143 33.3497C126.473 31.351 122.33 30.3843 118.155 30.5523C116.054 30.6631 116.041 33.9459 118.155 33.8345V33.8311Z" fill="#211715"/>
<path d="M139.337 39.8929C139.733 38.8405 140.721 37.6179 141.809 37.8415C142.033 37.9032 142.242 38.0117 142.421 38.1597C142.6 38.3077 142.746 38.492 142.848 38.7003C143.194 39.3124 143.426 39.9822 143.532 40.6772C144.119 43.6817 143.045 46.2726 140.986 48.5865C140.688 48.899 140.521 49.3146 140.521 49.7469C140.521 50.1792 140.688 50.5948 140.986 50.9073C141.296 51.2114 141.713 51.3818 142.147 51.3818C142.581 51.3818 142.998 51.2114 143.307 50.9073C144.882 49.2624 146.03 47.2574 146.652 45.0671C147.165 42.9427 147.078 40.7174 146.401 38.6395C145.67 36.4835 144.001 34.5026 141.54 34.5368C138.847 34.5723 137.053 36.6804 136.171 39.0162C136.059 39.4359 136.117 39.8827 136.331 40.2604C136.545 40.6382 136.9 40.9165 137.317 41.0355C137.736 41.1417 138.18 41.0822 138.556 40.8693C138.932 40.6565 139.212 40.3067 139.337 39.8929Z" fill="#211715"/>
<path d="M108.336 34.681C108.659 36.9095 109.156 39.1092 109.823 41.2597C110.295 42.82 110.624 44.4197 110.808 46.0394C110.94 47.5184 110.96 49.2655 110.006 50.5073C109.45 51.0949 108.962 51.7436 108.551 52.441C108.086 53.3933 107.982 54.4823 108.26 55.5051C108.769 57.2056 110.339 57.7356 111.71 58.5493C113.059 59.3507 113.312 60.7128 113.917 62.0913C115.413 65.4945 117.409 69.1459 121.023 70.6311C123.047 71.4633 125.222 71.3094 127.343 71.0051C129.714 70.6632 132.032 70.0478 134.377 69.5658C134.585 69.5085 134.779 69.4108 134.949 69.2784C135.119 69.1459 135.262 68.9813 135.368 68.7938C135.475 68.6064 135.543 68.3998 135.57 68.1859C135.596 67.972 135.58 67.755 135.523 67.5472C135.466 67.3394 135.368 67.145 135.236 66.9749C135.103 66.8049 134.939 66.6626 134.751 66.5562C134.564 66.4497 134.357 66.3813 134.143 66.3547C133.929 66.3281 133.712 66.3439 133.505 66.4012C131.585 66.7937 129.685 67.2805 127.757 67.632C126.214 67.9117 124.466 68.216 122.92 67.8214C119.717 67.0009 118.072 63.3966 116.845 60.6478C116.22 59.2461 115.832 57.8778 114.706 56.7584C114.117 56.1908 113.441 55.72 112.705 55.3635C112.2 55.1829 111.74 54.8969 111.355 54.5245C111.491 54.7057 111.366 54.4035 111.384 54.251C111.434 53.9513 111.564 53.6707 111.76 53.4387C112.294 52.8758 112.771 52.2612 113.183 51.6041C113.919 50.105 114.25 48.439 114.14 46.7724C113.973 42.5924 112.107 38.7967 111.621 34.6851C111.608 34.254 111.431 33.844 111.126 33.539C110.821 33.234 110.411 33.0569 109.98 33.044C109.546 33.0467 109.13 33.2205 108.823 33.5277C108.516 33.8349 108.342 34.2507 108.339 34.6851L108.336 34.681Z" fill="#211715"/>
<path d="M111.62 34.6823C111.199 31.4274 111.656 28.119 112.943 25.0997C114.112 22.5861 115.801 20.3497 117.9 18.5388C121.255 15.7035 125.225 13.6892 129.494 12.656C133.764 11.6228 138.215 11.5989 142.495 12.5865C143.416 12.7971 144.332 13.0419 145.231 13.3386C145.451 13.4116 145.669 13.4886 145.886 13.5697C145.975 13.6032 146.064 13.6381 146.153 13.6723C146.242 13.7065 146.333 13.7441 146.422 13.781C146.279 13.7195 146.262 13.7126 146.37 13.7591C148.403 14.6408 150.27 15.8635 151.891 17.3743C156.599 21.756 159.139 28.2007 159.697 34.5305C160.049 39.2512 159.498 43.9957 158.073 48.5099C157.446 50.6105 156.261 52.5114 155.68 54.6407C155.106 56.837 155.166 59.1507 155.852 61.3144C156.43 63.3419 159.598 62.4769 159.017 60.4419C158.418 58.5697 158.446 56.5534 159.095 54.6981C159.736 52.7753 160.75 51.0023 161.339 49.063C162.69 44.7025 163.269 40.1393 163.049 35.5795C162.638 28.3553 160.04 20.9464 154.898 15.7278C145.094 5.77799 127.738 6.81324 117.143 14.9428C114.325 17.0332 112.018 19.7342 110.392 22.8432C108.585 26.5114 107.871 30.6217 108.335 34.6844C108.347 35.1158 108.524 35.5261 108.829 35.8313C109.134 36.1364 109.545 36.3132 109.976 36.3255C110.41 36.3228 110.826 36.149 111.133 35.8418C111.441 35.5346 111.614 35.1188 111.617 34.6844L111.62 34.6823Z" fill="#211715"/>
<path d="M171.27 268.556C171.705 272.955 168.063 277.523 164.562 279.208C161.061 280.893 157.147 281.998 154.352 284.697C152.446 286.537 151.329 289.91 153.291 291.69C154.742 293.007 156.996 292.661 158.907 292.233C166.792 290.469 173.858 289.393 181.746 287.629C183.66 287.201 186.66 285.877 187.447 284.079C188.186 282.003 188.113 279.725 187.241 277.701C185.999 275.055 185.357 270.356 184.594 266.316" fill="white"/>
<path d="M169.627 268.556C169.85 271.313 168.46 273.86 166.549 275.762C164.53 277.773 161.805 278.625 159.252 279.753C156.517 280.959 153.668 282.482 151.968 285.033C150.476 287.272 149.925 290.597 151.968 292.691C154.381 295.167 158.063 294.081 160.994 293.45C164.448 292.706 167.92 292.051 171.388 291.391C174.935 290.717 178.485 290.042 182.007 289.246C184.439 288.699 187.329 287.473 188.675 285.247C189.425 283.812 189.734 282.188 189.564 280.578C189.519 279.729 189.373 278.889 189.13 278.074C188.911 277.379 188.568 276.731 188.33 276.042C187.202 272.773 186.805 269.262 186.169 265.877C186.05 265.46 185.772 265.106 185.395 264.891C185.017 264.677 184.57 264.619 184.151 264.731C183.736 264.854 183.385 265.133 183.171 265.51C182.958 265.886 182.898 266.33 183.004 266.75C183.544 269.626 183.954 272.54 184.703 275.372C185.322 277.711 186.637 279.791 186.241 282.303C186.206 282.731 186.075 283.145 185.858 283.515C185.641 283.886 185.344 284.202 184.988 284.442C184.047 285.106 182.996 285.597 181.884 285.895C178.853 286.758 175.662 287.24 172.571 287.834C169.395 288.443 166.216 289.032 163.047 289.674C161.433 290.001 159.825 290.358 158.215 290.7C157.167 290.923 155.851 291.215 154.829 290.756C152.946 289.91 154.252 287.183 155.267 286.097C157.136 284.095 159.848 283.02 162.319 281.972C163.727 281.445 165.09 280.804 166.395 280.057C167.622 279.279 168.724 278.32 169.665 277.213C171.696 274.82 173.166 271.757 172.905 268.551C172.895 268.119 172.718 267.708 172.413 267.402C172.107 267.097 171.696 266.92 171.264 266.91C170.83 266.913 170.415 267.087 170.108 267.394C169.8 267.701 169.626 268.117 169.623 268.551L169.627 268.556Z" fill="#211715"/>
<path d="M172.799 169.787C170.73 175.993 168.461 182.127 165.992 188.19C164.771 191.189 163.497 194.166 162.171 197.121C160.878 200.008 159.243 202.881 158.407 205.941C157.518 209.207 158.073 212.513 158.586 215.788L160.164 225.864L163.322 246.015L166.901 268.854C167.021 269.271 167.299 269.625 167.676 269.839C168.054 270.053 168.5 270.111 168.92 270C174.328 268.564 179.669 266.882 185.092 265.506C185.437 265.408 185.741 265.201 185.958 264.916C186.175 264.63 186.294 264.282 186.297 263.924C185.694 252.585 184.593 241.195 183.01 229.951C182.523 226.493 181.745 222.808 182.364 219.318C182.909 216.098 184.02 212.999 185.646 210.166C189.519 203.461 193.883 197.045 198.221 190.636C203.099 183.429 208.026 176.241 212.413 168.718C213.479 166.89 210.644 165.236 209.578 167.061C201.696 180.58 192.104 193.005 184.05 206.416C182.148 209.358 180.696 212.568 179.742 215.939C179.266 217.7 178.984 219.507 178.904 221.329C178.888 223.258 179.025 225.184 179.314 227.091C180.104 233.032 180.875 238.98 181.474 245.02C182.098 251.311 182.678 257.612 183.014 263.924L184.219 262.348C178.796 263.723 173.455 265.409 168.047 266.841L170.066 267.988L163.83 228.188L162.277 218.28C161.78 215.104 160.951 211.773 161.242 208.543C161.51 205.571 163.19 202.788 164.4 200.122C165.743 197.163 167.037 194.183 168.285 191.183C171.095 184.439 173.654 177.599 175.965 170.662C176.634 168.654 173.465 167.79 172.799 169.79V169.787Z" fill="#211715"/>
<path d="M147.264 87.0844C147.227 86.6994 147.207 86.313 147.206 85.926C145.658 89.6504 144.55 93.5433 143.907 97.5251C143.42 100.762 142.834 104.039 141.385 106.974C140.124 109.528 138.26 111.725 136.462 113.931C132.354 118.963 128.491 124.183 124.871 129.589C127.829 132.369 129.835 133.985 132.324 137.19C132.401 137.114 132.475 137.038 132.551 136.961L136.831 132.592C139.361 126.397 144.771 120.452 149.43 114.746C150.381 113.583 151.35 112.421 152.233 111.204L147.85 90.5101C147.588 89.3805 147.393 88.2367 147.264 87.0844Z" fill="white"/>
<path d="M123.053 130.924C123.59 130.396 124.193 129.941 124.849 129.571C128.131 132.657 130.242 134.306 133.131 138.266C132.47 138.874 131.693 139.342 130.847 139.643C128.821 140.299 126.637 139.538 124.507 139.495C122.217 139.512 119.982 140.201 118.08 141.478C115.975 140.384 113.546 139.102 111.676 138.948C110.44 138.853 109.202 139.089 108.088 139.632C107.874 136.376 110.656 135.461 113.044 135.405C114.774 135.363 116.567 135.615 118.189 135.013C120.185 134.266 121.493 132.397 123.053 130.924Z" fill="white"/>
<path d="M145.622 85.4938C144.418 88.4509 143.465 91.5038 142.771 94.6203C142.121 97.6974 141.858 100.835 140.885 103.843C139.922 106.818 138.125 109.305 136.167 111.707C134.079 114.27 132.019 116.852 130.031 119.494C127.752 122.522 125.558 125.61 123.45 128.76C123.269 129.074 123.196 129.439 123.242 129.798C123.288 130.157 123.452 130.491 123.706 130.749C126.309 133.189 128.954 135.53 131.16 138.35C131.468 138.655 131.885 138.827 132.32 138.827C132.754 138.827 133.171 138.655 133.48 138.35C133.778 138.037 133.944 137.621 133.944 137.189C133.944 136.757 133.778 136.342 133.48 136.029C131.273 133.209 128.629 130.868 126.027 128.428L126.284 130.417C130.026 124.837 134.029 119.453 138.295 114.265C140.355 111.742 142.3 109.197 143.527 106.154C144.729 103.17 145.11 100.013 145.666 96.8713C146.352 93.2746 147.396 89.7557 148.785 86.3677C148.897 85.948 148.84 85.5009 148.625 85.123C148.411 84.7452 148.056 84.467 147.638 84.3485C147.219 84.2431 146.775 84.3035 146.399 84.5171C146.023 84.7307 145.744 85.081 145.62 85.4952L145.622 85.4938Z" fill="#211715"/>
<path d="M124.479 127.928C123.063 128.673 121.804 129.682 120.768 130.902C119.778 131.947 118.753 133.159 117.315 133.565C115.458 134.086 113.431 133.617 111.528 133.907C110.637 134.005 109.779 134.298 109.014 134.765C108.25 135.232 107.597 135.861 107.103 136.609C105.987 138.409 108.825 140.059 109.937 138.266C110.621 137.168 112.178 137.049 113.346 137.038C115.397 137.021 117.41 137.175 119.329 136.297C122.071 135.039 123.419 132.004 126.135 130.763C126.509 130.541 126.78 130.181 126.89 129.761C127 129.341 126.94 128.894 126.724 128.518C126.498 128.149 126.138 127.883 125.719 127.773C125.301 127.663 124.857 127.719 124.479 127.929V127.928Z" fill="#211715"/>
<path d="M174.156 254.743C174.156 220.046 201.905 206.231 225.114 206.231C248.323 206.231 276.072 220.828 276.072 254.743C276.072 288.657 248.324 303.254 225.114 303.254C201.904 303.254 174.156 289.441 174.156 254.743Z" fill="#000705"/>
<path d="M183.748 254.743C183.748 226.576 206.274 215.362 225.117 215.362C243.96 215.362 266.486 227.211 266.486 254.743C266.486 282.274 243.954 294.123 225.115 294.123C206.276 294.123 183.746 282.909 183.746 254.743" fill="white"/>
<path d="M185.389 254.743C185.412 245.907 187.875 237.018 193.68 230.288C198.678 224.493 205.428 220.677 212.722 218.672C219.742 216.736 227.12 216.487 234.254 217.943C241.754 219.511 248.86 222.882 254.361 228.236C260.464 234.319 264.139 242.419 264.699 251.017C265.41 260.151 263.527 269.467 258.096 276.969C253.601 283.18 246.848 287.636 239.683 290.063C232.747 292.407 225.351 293.059 218.112 291.966C210.664 290.812 203.425 287.971 197.704 283.163C191.353 277.75 187.172 270.223 185.933 261.97C185.559 259.579 185.377 257.162 185.389 254.743C185.384 252.631 182.101 252.627 182.107 254.743C182.131 264.384 184.87 273.864 191.166 281.293C196.473 287.553 203.905 291.778 211.759 293.954C219.378 296.058 227.389 296.316 235.127 294.706C243.284 293.087 250.81 289.176 256.824 283.431C263.549 276.815 267.217 267.929 267.969 258.592C268.749 248.918 266.681 238.806 260.926 230.858C255.935 223.961 248.744 219.07 240.733 216.318C233.176 213.768 225.112 213.094 217.236 214.353C209.208 215.521 201.652 218.856 195.378 223.999C188.549 229.856 184.058 237.978 182.728 246.877C182.318 249.478 182.11 252.107 182.105 254.741C182.1 256.853 185.382 256.855 185.388 254.741L185.389 254.743Z" fill="#211715"/>
<path d="M230.635 245.779C233.814 239.182 237.123 232.65 240.56 226.183C241.551 224.318 238.719 222.658 237.726 224.526C234.289 230.992 230.98 237.524 227.801 244.123C227.592 244.501 227.537 244.945 227.647 245.363C227.756 245.78 228.022 246.14 228.389 246.368C228.766 246.584 229.213 246.643 229.633 246.533C230.053 246.423 230.413 246.152 230.635 245.779Z" fill="#211715"/>
<path d="M228.878 265.526C233.055 271.744 236.937 278.212 240.748 284.659C241.822 286.476 244.661 284.826 243.582 283.002C239.77 276.555 235.889 270.087 231.712 263.869C230.54 262.125 227.695 263.766 228.878 265.526Z" fill="#211715"/>
<path d="M235.749 260.285C241.79 262.573 247.743 265.183 253.642 267.815C254.021 268.022 254.464 268.076 254.881 267.966C255.298 267.857 255.658 267.592 255.887 267.226C256.103 266.85 256.163 266.403 256.053 265.983C255.943 265.563 255.671 265.203 255.298 264.981C249.144 262.233 242.928 259.511 236.622 257.117C236.202 257.005 235.755 257.062 235.377 257.277C234.999 257.491 234.721 257.845 234.602 258.263C234.496 258.683 234.556 259.128 234.769 259.505C234.983 259.881 235.334 260.161 235.749 260.285Z" fill="#211715"/>
<path d="M175.8 254.743C175.823 243.797 178.873 232.8 186.053 224.432C192.238 217.224 200.644 212.452 209.702 209.955C218.432 207.539 227.61 207.228 236.484 209.046C245.797 210.993 254.638 215.207 261.464 221.87C269.118 229.342 273.418 239.462 274.255 250.111C275.144 261.444 272.8 273.034 266.055 282.339C260.448 290.077 252.066 295.61 243.119 298.633C238.743 300.116 234.202 301.057 229.597 301.434C225.157 301.781 220.691 301.617 216.289 300.947C207.085 299.505 198.137 295.961 191.048 289.993C183.052 283.261 178.131 273.941 176.465 263.624C176.01 260.685 175.788 257.716 175.802 254.743C175.797 252.631 172.515 252.627 172.52 254.743C172.543 266.526 175.893 278.149 183.605 287.222C190.094 294.857 199.151 300.009 208.74 302.669C218.069 305.254 227.88 305.574 237.358 303.604C247.23 301.539 256.709 296.903 263.927 289.796C272.125 281.723 276.608 270.885 277.529 259.498C278.486 247.624 275.956 235.238 268.89 225.488C262.785 217.066 253.966 211.092 244.175 207.747C234.982 204.657 225.18 203.833 215.6 205.345C205.817 206.845 196.328 210.772 188.727 217.174C180.363 224.359 174.872 234.321 173.262 245.229C172.771 248.377 172.523 251.559 172.52 254.745C172.515 256.858 175.797 256.86 175.802 254.745L175.8 254.743Z" fill="#211715"/>
<path d="M28.8359 254.743C28.8359 220.046 56.5847 206.231 79.7938 206.231C103.003 206.231 130.752 220.828 130.752 254.743C130.752 288.657 103.004 303.254 79.7938 303.254C56.584 303.254 28.8359 289.439 28.8359 254.743Z" fill="#000705"/>
<path d="M38.4277 254.743C38.4277 226.576 60.9537 215.362 79.7968 215.362C98.6399 215.362 121.166 227.211 121.166 254.743C121.166 282.274 98.6392 294.123 79.7968 294.123C60.9544 294.123 38.4277 282.909 38.4277 254.743Z" fill="white"/>
<path d="M40.0695 254.743C40.0921 245.907 42.5551 237.018 48.3604 230.288C53.3589 224.493 60.1085 220.677 67.4032 218.672C74.4229 216.736 81.8004 216.487 88.9349 217.943C96.4347 219.511 103.541 222.882 109.042 228.236C115.145 234.319 118.82 242.419 119.379 251.017C120.09 260.151 118.207 269.467 112.777 276.969C108.281 283.18 101.528 287.636 94.3642 290.063C87.4283 292.407 80.0326 293.059 72.7935 291.966C65.345 290.812 58.1057 287.971 52.3845 283.164C46.0332 277.75 41.8526 270.223 40.6131 261.97C40.2397 259.579 40.0579 257.162 40.0695 254.743C40.064 252.631 36.7818 252.627 36.7873 254.743C36.8119 264.384 39.5505 273.864 45.8475 281.293C51.1537 287.553 58.5851 291.778 66.4397 293.954C74.0584 296.058 82.0691 296.316 89.8074 294.706C97.9645 293.087 105.491 289.176 111.504 283.431C118.23 276.815 121.898 267.929 122.65 258.592C123.429 248.918 121.361 238.806 115.607 230.858C110.615 223.961 103.424 219.07 95.4145 216.318C87.8567 213.768 79.7925 213.094 71.9162 214.353C63.889 215.521 56.3323 218.856 50.0596 223.999C43.2286 229.856 38.7365 237.978 37.4061 246.877C36.9961 249.478 36.7878 252.107 36.7832 254.741C36.7777 256.853 40.0599 256.856 40.0654 254.741L40.0695 254.743Z" fill="#211715"/>
<path d="M89.0285 260.754C96.1285 264.173 103.159 267.733 110.119 271.435C111.983 272.426 113.643 269.594 111.775 268.601C104.816 264.902 97.7858 261.341 90.6853 257.919C90.3069 257.711 89.8629 257.656 89.445 257.766C89.0272 257.875 88.6673 258.141 88.4398 258.508C88.224 258.885 88.1647 259.331 88.2749 259.751C88.385 260.171 88.6556 260.531 89.0285 260.754Z" fill="#211715"/>
<path d="M69.2828 258.997C63.0652 263.174 56.5972 267.056 50.1498 270.868C48.333 271.942 49.9823 274.78 51.8066 273.702C58.2534 269.89 64.7213 266.009 70.9397 261.832C72.684 260.66 71.0429 257.815 69.2828 258.997Z" fill="#211715"/>
<path d="M74.5217 265.867C72.233 271.909 69.6237 277.861 66.9918 283.76C66.7852 284.139 66.7311 284.582 66.8405 284.999C66.9499 285.417 67.2147 285.777 67.5806 286.005C67.9571 286.222 68.4036 286.281 68.8237 286.171C69.2438 286.061 69.6037 285.79 69.8254 285.417C72.5729 279.262 75.2957 273.046 77.689 266.74C77.801 266.32 77.7435 265.873 77.529 265.495C77.3145 265.118 76.9601 264.84 76.5423 264.721C76.123 264.615 75.679 264.675 75.3029 264.889C74.9268 265.102 74.6477 265.453 74.5237 265.867H74.5217Z" fill="#211715"/>
<path d="M30.4775 254.743C30.5001 243.797 33.5545 232.8 40.7302 224.432C46.915 217.224 55.3208 212.452 64.3789 209.955C73.1089 207.539 82.2872 207.228 91.1608 209.046C100.474 210.993 109.315 215.207 116.141 221.87C123.795 229.342 128.096 239.462 128.932 250.111C129.821 261.444 127.478 273.034 120.732 282.339C115.125 290.077 106.743 295.61 97.7963 298.633C93.4197 300.115 88.8778 301.056 84.2723 301.433C79.8325 301.779 75.3677 301.616 70.9652 300.945C61.7614 299.504 52.8127 295.96 45.7246 289.992C37.7256 283.261 32.8072 273.941 31.1408 263.624C30.6861 260.685 30.4644 257.716 30.4775 254.743C30.4734 252.631 27.1912 252.627 27.1953 254.743C27.2192 266.526 30.5684 278.149 38.2809 287.222C44.77 294.857 53.8267 300.009 63.4155 302.669C72.7444 305.254 82.5556 305.574 92.0333 303.604C101.906 301.539 111.384 296.903 118.603 289.796C126.8 281.723 131.284 270.885 132.205 259.498C133.162 247.624 130.632 235.238 123.566 225.488C117.461 217.066 108.642 211.092 98.8513 207.747C89.6579 204.657 79.8541 203.833 70.2739 205.345C60.4909 206.846 51.002 210.772 43.4011 217.175C35.0381 224.359 29.5477 234.319 27.9379 245.226C27.447 248.375 27.1987 251.556 27.1953 254.743C27.1912 256.855 30.4734 256.858 30.4775 254.743Z" fill="#211715"/>
<path d="M191.508 195.619C192.938 191.051 194.336 186.557 195.662 182.275L184.06 180.429C183.301 182.86 181.705 188.179 180.946 190.61C166.252 186.363 124.807 174.63 111.234 170.848C113.764 162.627 115.842 155.782 117.09 151.552L108.064 148.791C102.744 166.836 82.5399 231.622 76.4727 249.109L85.4986 251.87C89.2848 240.957 98.4571 212.002 106.149 187.267C112.702 198.051 136.61 235.302 151.211 256.664L172.054 253.834C174.965 245.444 181.105 226.234 187.265 206.62C196.928 221.686 210.205 241.812 219.035 254.734L226.936 249.568C217.902 236.022 202.17 212.132 191.508 195.619ZM161.495 251.036L156.266 247.743C143.561 228.699 120.342 193.022 113.474 181.895C126.435 185.47 165.246 196.301 177.742 199.92C171.699 219.218 164.334 242.854 161.495 251.036Z" fill="#F49200"/>
<path d="M221.009 254.743C221.009 254.569 221.023 254.397 221.028 254.223C221.041 253.721 220.952 254.485 221.051 254.012C221.114 253.712 221.195 253.426 221.286 253.134C221.307 253.065 221.417 252.853 221.286 253.128C221.347 253.002 221.409 252.878 221.478 252.757C221.547 252.636 221.623 252.528 221.695 252.415C221.804 252.265 221.798 252.269 221.679 252.428C221.735 252.36 221.793 252.295 221.852 252.23C221.999 252.07 222.161 251.928 222.322 251.783C222.033 252.044 222.336 251.774 222.401 251.731C222.506 251.659 222.615 251.594 222.726 251.525C222.91 251.419 223.099 251.325 223.292 251.237C222.914 251.409 223.301 251.242 223.372 251.218C223.53 251.162 223.691 251.113 223.854 251.071C224.059 251.019 224.259 250.982 224.464 250.943C224.874 250.864 224.101 250.959 224.516 250.943C224.637 250.937 224.758 250.924 224.879 250.92C225.081 250.913 225.282 250.915 225.484 250.926C225.608 250.933 225.73 250.947 225.854 250.958C225.391 250.915 225.944 250.981 226.038 251.001C226.243 251.045 226.452 251.099 226.653 251.164C226.776 251.203 226.895 251.25 227.017 251.292C226.636 251.156 227.031 251.3 227.099 251.334C227.333 251.448 227.559 251.578 227.775 251.722C227.848 251.771 227.919 251.822 227.989 251.873C227.665 251.634 228.104 251.987 228.16 252.041C228.255 252.133 228.342 252.235 228.433 252.328C228.733 252.624 228.277 252.062 228.511 252.419C228.638 252.613 228.749 252.813 228.869 253.011C229.094 253.385 228.79 252.723 228.937 253.148C228.985 253.29 229.034 253.429 229.074 253.573C229.108 253.697 229.138 253.823 229.163 253.949C229.179 254.026 229.194 254.104 229.205 254.182C229.183 254.013 229.183 254.031 229.205 254.234C229.217 254.581 229.217 254.918 229.205 255.266C229.187 255.781 229.244 255.108 229.193 255.396C229.17 255.525 229.144 255.653 229.113 255.779C229.077 255.926 229.035 256.071 228.986 256.213C228.969 256.265 228.769 256.684 228.934 256.359C228.807 256.607 228.667 256.847 228.514 257.078C228.28 257.435 228.736 256.873 228.436 257.169C228.342 257.262 228.255 257.364 228.162 257.457C228.069 257.549 227.966 257.633 227.866 257.719C228.112 257.507 227.951 257.658 227.886 257.701C227.667 257.844 227.451 257.985 227.218 258.106C227.103 258.165 226.986 258.22 226.867 258.272C227.242 258.108 226.798 258.286 226.717 258.313C226.494 258.386 226.268 258.448 226.039 258.497C225.915 258.523 225.791 258.542 225.667 258.565C226.102 258.488 225.695 258.557 225.608 258.565C225.403 258.581 225.203 258.586 225.001 258.583C224.88 258.583 224.759 258.575 224.639 258.566C224.557 258.561 224.477 258.553 224.395 258.544C224.629 258.579 224.652 258.582 224.464 258.553C224.218 258.506 223.974 258.46 223.733 258.391C223.611 258.357 223.491 258.32 223.372 258.279C223.292 258.251 223.213 258.222 223.134 258.191C223.33 258.277 223.345 258.282 223.177 258.207C222.949 258.09 222.723 257.976 222.507 257.837C222.399 257.769 222.294 257.695 222.192 257.618C222.522 257.868 222.09 257.509 222.034 257.455C221.978 257.4 221.911 257.331 221.852 257.267C221.794 257.203 221.735 257.137 221.679 257.069C221.798 257.228 221.804 257.232 221.695 257.083C221.627 256.967 221.545 256.856 221.478 256.741C221.453 256.697 221.238 256.262 221.313 256.434C221.41 256.658 221.238 256.216 221.24 256.225C221.177 256.033 221.125 255.838 221.083 255.64C221.078 255.612 221.011 255.108 221.044 255.441C221.022 255.212 221.013 254.984 221.011 254.757C221.011 254.322 220.838 253.904 220.53 253.597C220.222 253.289 219.805 253.116 219.37 253.116C218.934 253.116 218.517 253.289 218.209 253.597C217.901 253.904 217.728 254.322 217.728 254.757C217.71 256.446 218.287 258.088 219.359 259.394C220.286 260.447 221.504 261.201 222.86 261.561C224.187 261.945 225.591 261.979 226.935 261.66C228.279 261.34 229.517 260.678 230.529 259.738C231.663 258.543 232.357 256.998 232.498 255.356C232.639 253.715 232.219 252.074 231.305 250.703C230.436 249.556 229.266 248.673 227.925 248.153C226.583 247.633 225.124 247.496 223.709 247.757C222.182 247.984 220.766 248.687 219.662 249.765C218.388 251.106 217.692 252.894 217.724 254.743C217.724 255.178 217.897 255.595 218.204 255.903C218.512 256.211 218.93 256.384 219.365 256.384C219.8 256.384 220.217 256.211 220.525 255.903C220.833 255.595 221.006 255.178 221.006 254.743H221.009Z" fill="#211715"/>
<path d="M228.354 248.74C218.992 234.706 209.71 220.617 200.508 206.475C197.973 202.586 195.445 198.692 192.926 194.792L193.091 196.057C194.482 191.611 195.867 187.163 197.245 182.713C197.872 180.691 194.704 179.826 194.08 181.841C193.137 184.884 192.191 187.927 191.243 190.969C191.008 191.723 190.772 192.477 190.537 193.232C190.294 194.009 189.785 195.021 189.897 195.839C190.073 196.464 190.38 197.044 190.797 197.541L191.781 199.061C194.527 203.301 197.282 207.536 200.048 211.767C205.781 220.545 211.54 229.306 217.324 238.051C220.049 242.17 222.781 246.286 225.52 250.397C226.687 252.146 229.53 250.504 228.354 248.74Z" fill="#211715"/>
<path d="M75.6868 254.743C75.6868 254.569 75.7012 254.397 75.706 254.223C75.7196 253.721 75.6301 254.485 75.7292 254.012C75.7921 253.712 75.8728 253.426 75.9644 253.134C75.9856 253.065 76.095 252.853 75.9644 253.128C76.0246 253.002 76.0862 252.878 76.1552 252.757C76.2243 252.636 76.3009 252.528 76.3727 252.415C76.4814 252.265 76.4759 252.269 76.3569 252.428C76.413 252.36 76.4704 252.295 76.5299 252.23C76.6769 252.07 76.8383 251.928 76.9997 251.783C76.7105 252.044 77.0141 251.774 77.0783 251.731C77.1843 251.659 77.2924 251.594 77.4031 251.525C77.5871 251.419 77.7765 251.325 77.97 251.237C77.5919 251.409 77.9796 251.242 78.0493 251.218C78.2079 251.162 78.3693 251.114 78.528 251.071C78.7331 251.019 78.9334 250.982 79.1386 250.943C79.5488 250.864 78.7755 250.959 79.1899 250.943C79.3116 250.937 79.4319 250.924 79.553 250.92C79.7549 250.913 79.9566 250.915 80.1581 250.926C80.2819 250.933 80.4043 250.947 80.528 250.958C80.0658 250.915 80.6183 250.981 80.712 251.001C80.9171 251.045 81.1257 251.099 81.3274 251.164C81.4498 251.203 81.5694 251.25 81.6912 251.292C81.3103 251.156 81.7048 251.3 81.7732 251.334C82.0072 251.448 82.2332 251.578 82.4495 251.722C82.522 251.771 82.5931 251.822 82.6635 251.873C82.3387 251.634 82.7777 251.987 82.8338 252.041C82.9295 252.133 83.0156 252.235 83.1073 252.328C83.4075 252.624 82.9514 252.062 83.1859 252.419C83.3131 252.613 83.4239 252.813 83.5428 253.011C83.7685 253.385 83.4642 252.723 83.6112 253.148C83.6591 253.29 83.7083 253.429 83.748 253.573C83.7822 253.697 83.8118 253.823 83.8369 253.949C83.8533 254.026 83.8676 254.104 83.88 254.182C83.8574 254.013 83.8574 254.031 83.88 254.234C83.8923 254.581 83.8923 254.918 83.88 255.266C83.8615 255.781 83.9189 255.108 83.8676 255.396C83.8444 255.525 83.8191 255.653 83.7876 255.779C83.7514 255.926 83.7097 256.071 83.6611 256.213C83.6434 256.265 83.4444 256.684 83.6092 256.359C83.4824 256.606 83.3423 256.847 83.1893 257.078C82.9548 257.435 83.4109 256.873 83.1107 257.169C83.0163 257.262 82.9302 257.364 82.8372 257.457C82.7442 257.549 82.6416 257.633 82.5418 257.719C82.7879 257.507 82.6259 257.658 82.5609 257.701C82.3452 257.847 82.1222 257.982 81.8929 258.106C81.7771 258.165 81.6599 258.22 81.5414 258.272C81.9168 258.108 81.473 258.286 81.3917 258.313C81.1692 258.386 80.943 258.448 80.714 258.497C80.5903 258.523 80.4658 258.542 80.3414 258.565C80.7769 258.488 80.3701 258.557 80.2832 258.565C80.0781 258.581 79.8778 258.586 79.6754 258.583C79.5543 258.583 79.434 258.575 79.3136 258.566C79.2323 258.561 79.1516 258.553 79.0702 258.544C79.3034 258.579 79.3266 258.582 79.1386 258.553C78.8924 258.506 78.6483 258.46 78.4069 258.391C78.2859 258.357 78.1649 258.323 78.0459 258.279C77.9666 258.251 77.8872 258.222 77.8086 258.191C78.0046 258.277 78.0188 258.282 77.851 258.207C77.6233 258.09 77.397 257.976 77.1816 257.837C77.0742 257.769 76.9682 257.695 76.8664 257.618C77.1959 257.868 76.7645 257.509 76.7084 257.455C76.6523 257.4 76.5853 257.331 76.5265 257.267C76.4677 257.203 76.4096 257.137 76.3535 257.069C76.4725 257.228 76.478 257.232 76.3692 257.083C76.2974 256.967 76.2195 256.856 76.1518 256.741C76.1272 256.697 75.9118 256.262 75.987 256.434C76.0848 256.658 75.9118 256.216 75.9145 256.225C75.8513 256.033 75.7987 255.838 75.7573 255.64C75.7518 255.612 75.6855 255.108 75.7183 255.441C75.6957 255.212 75.6875 254.984 75.6848 254.757C75.6848 254.541 75.6423 254.328 75.5599 254.129C75.4774 253.93 75.3565 253.749 75.2041 253.597C75.0517 253.444 74.8708 253.323 74.6717 253.241C74.4726 253.158 74.2592 253.116 74.0437 253.116C73.8282 253.116 73.6148 253.158 73.4157 253.241C73.2166 253.323 73.0356 253.444 72.8833 253.597C72.7309 253.749 72.61 253.93 72.5275 254.129C72.445 254.328 72.4026 254.541 72.4026 254.757C72.3885 256.442 72.9661 258.078 74.0348 259.38C74.962 260.433 76.1806 261.187 77.5365 261.547C78.8634 261.931 80.2671 261.965 81.611 261.645C82.9549 261.326 84.1931 260.663 85.2051 259.723C86.3364 258.53 87.0296 256.988 87.1715 255.35C87.3133 253.711 86.8954 252.073 85.986 250.703C85.1173 249.556 83.9469 248.673 82.6055 248.153C81.2641 247.633 79.8046 247.496 78.3898 247.757C76.8633 247.984 75.4472 248.687 74.3432 249.765C73.0694 251.106 72.3732 252.894 72.4046 254.743C72.4046 254.958 72.4471 255.172 72.5296 255.371C72.612 255.57 72.7329 255.751 72.8853 255.903C73.0377 256.055 73.2186 256.176 73.4177 256.259C73.6168 256.341 73.8302 256.384 74.0457 256.384C74.2612 256.384 74.4746 256.341 74.6738 256.259C74.8729 256.176 75.0538 256.055 75.2062 255.903C75.3586 255.751 75.4794 255.57 75.5619 255.371C75.6444 255.172 75.6868 254.958 75.6868 254.743Z" fill="#211715"/>
<path d="M106.483 148.354C104.982 153.443 103.429 158.517 101.874 163.591C99.6618 170.808 97.4322 178.021 95.1848 185.228C92.6904 193.244 90.18 201.252 87.6536 209.253C85.3333 216.603 82.9934 223.947 80.6338 231.284C78.908 236.637 77.178 241.99 75.3612 247.313C75.2057 247.766 75.0498 248.219 74.8934 248.671C74.2001 250.671 77.3694 251.531 78.0587 249.544C79.7805 244.576 81.3997 239.572 83.0189 234.569C85.3369 227.412 87.6269 220.245 89.8889 213.067C92.4194 205.067 94.9332 197.061 97.4304 189.05C99.7311 181.671 102.018 174.287 104.291 166.899C105.956 161.48 107.617 156.058 109.233 150.625C109.37 150.16 109.508 149.694 109.648 149.227C110.247 147.197 107.08 146.33 106.483 148.354V148.354Z" fill="#211715"/>
<path d="M157.684 246.915C151.603 237.798 145.573 228.646 139.597 219.458C133.524 210.158 127.487 200.836 121.485 191.491C119.269 188.028 117.054 184.565 114.893 181.067L113.04 183.478C120.995 185.672 128.946 187.883 136.892 190.11C146.523 192.8 156.15 195.502 165.773 198.215C169.62 199.303 173.465 200.4 177.308 201.504L176.162 199.485C171.599 214.05 167.094 228.637 162.386 243.157C161.58 245.643 160.77 248.128 159.915 250.598C159.222 252.598 162.391 253.457 163.08 251.471C167.425 238.928 171.238 226.188 175.205 213.52C176.579 209.132 177.953 204.743 179.326 200.355C179.436 199.935 179.377 199.49 179.163 199.112C178.949 198.735 178.596 198.457 178.18 198.336C170.353 196.07 162.505 193.875 154.658 191.672C145.004 188.962 135.347 186.263 125.685 183.575C121.762 182.484 117.837 181.396 113.911 180.31C113.598 180.232 113.269 180.248 112.964 180.354C112.659 180.46 112.392 180.653 112.195 180.909C111.998 181.165 111.881 181.473 111.856 181.795C111.832 182.117 111.902 182.439 112.058 182.721C116.588 190.057 121.294 197.286 125.978 204.525C132.367 214.4 138.795 224.25 145.261 234.076C148.444 238.915 151.641 243.746 154.851 248.567C156.017 250.316 158.861 248.675 157.684 246.911V246.915Z" fill="#211715"/>
<path d="M115.509 151.115C113.608 157.562 111.63 163.986 109.654 170.411C109.544 170.83 109.602 171.276 109.816 171.653C110.031 172.03 110.383 172.308 110.8 172.429C119.265 174.789 127.723 177.17 136.175 179.572C146.633 182.53 157.088 185.497 167.541 188.475C171.866 189.708 176.189 190.947 180.511 192.192C180.931 192.299 181.375 192.24 181.752 192.026C182.128 191.812 182.407 191.461 182.53 191.045C183.587 187.658 184.588 184.252 185.645 180.864C186.276 178.844 183.108 177.979 182.48 179.992C181.423 183.38 180.422 186.785 179.365 190.173L181.384 189.027C172.667 186.508 163.942 184.016 155.208 181.553C144.83 178.606 134.45 175.669 124.067 172.742C119.936 171.579 115.805 170.42 111.672 169.265L112.818 171.283C114.795 164.855 116.772 158.434 118.674 151.987C119.273 149.957 116.106 149.09 115.509 151.115Z" fill="#211715"/>
<path d="M173.638 254.269C177.583 242.886 181.165 231.372 184.802 219.887C186.156 215.611 187.505 211.334 188.849 207.055L185.849 207.447C194.158 220.398 202.601 233.262 211.178 246.038C213.313 249.22 215.46 252.395 217.619 255.561C218.803 257.295 221.649 255.655 220.453 253.905C211.993 241.52 203.735 228.995 195.555 216.423C193.254 212.886 190.963 209.342 188.683 205.791C188.514 205.521 188.271 205.305 187.983 205.168C187.695 205.032 187.374 204.982 187.057 205.023C186.741 205.064 186.444 205.196 186.2 205.401C185.957 205.607 185.777 205.878 185.683 206.183C181.471 219.597 177.25 233.013 172.842 246.362C172.066 248.711 171.284 251.058 170.473 253.396C169.781 255.396 172.949 256.256 173.638 254.269Z" fill="#211715"/>
<path d="M152.629 255.835C145.905 245.988 139.353 236.029 132.844 226.042C126.545 216.378 120.305 206.675 114.124 196.935C111.918 193.447 109.713 189.96 107.57 186.438C107.402 186.167 107.159 185.95 106.871 185.814C106.582 185.677 106.261 185.626 105.945 185.668C105.628 185.709 105.331 185.841 105.087 186.047C104.843 186.253 104.664 186.525 104.571 186.83C101.509 196.673 98.4226 206.51 95.3128 216.338C92.6232 224.834 89.9001 233.32 87.1436 241.795C86.0892 245.014 85.0279 248.232 83.9188 251.432C83.2255 253.432 86.3955 254.292 87.0841 252.305C89.3406 245.79 91.4439 239.22 93.5534 232.656C96.5698 223.275 99.5497 213.882 102.493 204.478C104.249 198.888 105.996 193.296 107.736 187.702L104.737 188.094C109.29 195.584 114.043 202.955 118.777 210.332C125.484 220.783 132.26 231.19 139.104 241.552C142.634 246.886 146.197 252.199 149.795 257.491C150.979 259.225 153.824 257.585 152.629 255.835Z" fill="#211715"/>
<path d="M112.982 148.97C110.672 148.652 108.286 148.307 106.31 147.071C104.334 145.835 102.874 143.452 103.455 141.196C104.105 138.669 107.048 137.315 109.647 137.527C112.247 137.739 115.928 140.141 118.323 141.175C124.126 143.679 127.349 144.926 132.921 147.087C134.306 147.626 135.581 148.414 136.682 149.412C137.096 149.954 137.337 150.608 137.373 151.289C137.409 151.97 137.238 152.646 136.883 153.228C136.458 153.756 135.897 154.157 135.261 154.389C134.624 154.621 133.936 154.673 133.272 154.541C126.348 153.327 119.554 151.463 112.98 148.972" fill="#7A7473"/>
<path d="M213.286 164.875C201.646 165.038 190.035 166.089 178.554 168.02C176.38 168.385 173.864 169.051 173.039 171.097C172.414 172.65 173.086 174.49 174.27 175.678C175.526 176.795 177.011 177.624 178.62 178.107C188.431 181.691 198.93 182.989 209.318 181.902C210.572 181.77 211.902 181.569 212.858 180.745C214.024 179.741 214.333 178.079 214.474 176.545C214.8 172.998 214.617 169.423 213.932 165.928" fill="#7A7473"/>
<path d="M113.42 147.388C111.011 147.054 108.104 146.776 106.288 144.971C104.954 143.646 104.361 141.528 105.988 140.184C109.442 137.338 113.965 140.982 117.214 142.464C121.972 144.632 126.882 146.493 131.755 148.384C132.813 148.775 133.821 149.291 134.756 149.923C135.464 150.417 135.887 150.894 135.717 151.829C135.363 153.781 131.965 152.667 130.752 152.423C124.847 151.216 119.051 149.531 113.42 147.386C113 147.274 112.553 147.331 112.175 147.545C111.797 147.76 111.519 148.114 111.4 148.532C111.294 148.951 111.354 149.396 111.568 149.772C111.782 150.148 112.132 150.427 112.547 150.551C118.352 152.768 124.334 154.489 130.429 155.697C131.939 155.989 133.49 156.381 135.029 156.123C135.755 156.015 136.447 155.74 137.05 155.32C137.653 154.9 138.15 154.345 138.502 153.7C138.805 153.074 138.979 152.393 139.014 151.698C139.049 151.003 138.945 150.309 138.707 149.655C138.167 148.237 136.898 147.337 135.63 146.593C133.078 145.095 130.085 144.242 127.341 143.152C124.565 142.05 121.79 140.928 119.059 139.715C116.551 138.6 114.224 137.044 111.576 136.248C110.297 135.852 108.943 135.768 107.625 136.002C106.307 136.237 105.064 136.783 104 137.595C102.744 138.615 101.94 140.089 101.761 141.697C101.581 143.306 102.042 144.92 103.043 146.192C105.3 149.269 108.972 150.056 112.547 150.551C112.966 150.652 113.409 150.59 113.784 150.377C114.158 150.164 114.438 149.816 114.566 149.405C114.679 148.985 114.622 148.538 114.407 148.16C114.193 147.782 113.838 147.504 113.42 147.386V147.388Z" fill="#211715"/>
<path d="M213.286 163.234C205.565 163.344 197.855 163.843 190.184 164.729C186.26 165.185 182.348 165.736 178.448 166.382C175.672 166.847 172.542 167.749 171.457 170.66C170.197 174.039 172.848 177.25 175.715 178.664C178.918 180.127 182.273 181.234 185.718 181.962C192.821 183.672 200.146 184.262 207.431 183.712C209.325 183.565 211.448 183.519 213.135 182.542C213.908 182.042 214.559 181.375 215.042 180.591C215.525 179.807 215.827 178.925 215.926 178.01C216.52 173.844 216.38 169.606 215.51 165.488C215.391 165.071 215.113 164.717 214.735 164.502C214.358 164.288 213.911 164.23 213.492 164.342C213.077 164.465 212.726 164.744 212.512 165.121C212.299 165.497 212.239 165.941 212.346 166.36C212.964 169.608 213.136 172.925 212.857 176.219C212.767 177.294 212.667 178.74 211.786 179.495C210.843 180.304 209.23 180.277 208.059 180.379C201.654 180.941 195.201 180.58 188.899 179.307C185.757 178.669 182.665 177.809 179.646 176.735C177.703 176.044 174.039 174.772 174.454 172.053C174.776 169.933 178.401 169.695 179.983 169.435C183.317 168.888 186.662 168.419 190.017 168.028C197.743 167.131 205.509 166.625 213.286 166.514C215.396 166.482 215.402 163.2 213.286 163.231V163.234Z" fill="#000705"/>
<path d="M165.519 298.371C165.24 297.089 164.666 294.413 164.365 293.046C164.342 292.944 164.34 292.839 164.357 292.736C164.375 292.634 164.413 292.535 164.469 292.447C164.525 292.359 164.598 292.283 164.683 292.223C164.769 292.163 164.865 292.12 164.967 292.098C167.501 291.528 180.917 288.482 183.529 287.893C183.631 287.869 183.737 287.867 183.84 287.885C183.944 287.903 184.042 287.941 184.131 287.997C184.219 288.054 184.296 288.127 184.355 288.213C184.415 288.299 184.458 288.396 184.48 288.498C184.769 289.789 185.351 292.412 185.619 293.621C185.666 293.825 185.63 294.039 185.52 294.217C185.41 294.394 185.233 294.521 185.03 294.57C182.446 295.185 169.016 298.37 166.484 298.975C166.381 299 166.274 299.005 166.169 298.988C166.064 298.971 165.964 298.933 165.874 298.877C165.784 298.82 165.706 298.747 165.645 298.66C165.584 298.573 165.541 298.475 165.519 298.371Z" fill="#7A7473"/>
<path d="M148.006 265.816C148.006 255.888 155.945 251.935 162.586 251.935C169.227 251.935 177.167 256.112 177.167 265.816C177.167 275.52 169.227 279.697 162.586 279.697C155.945 279.697 148.006 275.744 148.006 265.816Z" fill="white"/>
<path d="M167.102 297.935C166.878 296.898 166.654 295.861 166.43 294.825C166.324 294.335 166.218 293.845 166.112 293.355C166.003 292.86 166.128 292.56 165.695 293.23C165.234 293.944 165.329 293.641 165.652 293.625C166.172 293.55 166.685 293.434 167.186 293.278L169.297 292.799L180.029 290.366C181.274 290.17 182.505 289.891 183.713 289.532C183.752 289.525 183.79 289.516 183.828 289.505L183.864 289.497C184.271 289.414 183.949 289.226 182.899 288.934C182.914 289.119 182.955 289.301 183.02 289.475L183.396 291.163C183.518 291.714 183.641 292.265 183.763 292.817L183.924 293.542C183.934 293.589 183.949 293.782 183.984 293.816C184.131 293.943 184.54 293.009 184.531 293.006C184.245 292.919 183.482 293.256 183.192 293.324L181.127 293.814L175.894 295.057L169.984 296.46L167.623 297.021L166.734 297.233C166.614 297.255 166.495 297.283 166.377 297.318C165.681 297.565 166.681 296.771 167.106 297.937C166.981 297.524 166.702 297.174 166.326 296.961C165.95 296.748 165.507 296.687 165.088 296.791C164.67 296.91 164.316 297.188 164.101 297.566C163.887 297.943 163.829 298.39 163.942 298.81C164.495 300.331 165.776 300.835 167.292 300.474C167.892 300.33 168.492 300.187 169.093 300.045L174.905 298.664L181.169 297.177C182.572 296.844 184.024 296.586 185.409 296.171C187.087 295.665 187.439 294.219 187.096 292.673C186.809 291.385 186.523 290.096 186.237 288.808C186.155 288.134 185.884 287.497 185.455 286.97C185.145 286.668 184.763 286.449 184.346 286.335C183.928 286.222 183.488 286.216 183.067 286.32C182.516 286.424 181.969 286.569 181.421 286.693C177.438 287.595 173.456 288.498 169.474 289.401C167.852 289.769 166.169 290.043 164.572 290.511C164.144 290.626 163.755 290.852 163.442 291.165C163.13 291.479 162.906 291.87 162.794 292.298C162.698 293.094 162.785 293.901 163.05 294.658C163.35 296.042 163.649 297.426 163.947 298.81C164.385 300.87 167.55 299.997 167.102 297.935Z" fill="#211715"/>
<path d="M165.004 276.55C167.397 282.862 172.104 295.092 172.412 295.704C173.259 297.386 175.057 298.435 176.806 297.81C179.25 296.938 178.891 294.532 178.5 293.438C177.93 291.84 172.198 277.291 170.307 272.567" fill="white"/>
<path d="M149.647 265.816C149.668 262.932 150.456 259.99 152.347 257.846C154.005 256.007 156.174 254.705 158.575 254.107C163.16 252.869 168.612 253.775 172.16 257.24C176.237 261.222 176.682 268.429 173.329 273.064C171.837 275.015 169.79 276.469 167.456 277.235C166.292 277.638 165.083 277.897 163.856 278.006C163.255 278.052 162.653 278.066 162.05 278.047C161.749 278.038 161.448 278.02 161.147 277.994C161.026 277.984 160.904 277.972 160.783 277.96C160.794 277.96 160.241 277.892 160.49 277.925C157.701 277.596 155.087 276.395 153.022 274.492C150.683 272.23 149.671 269.086 149.647 265.817C149.632 263.705 146.35 263.697 146.365 265.817C146.231 269.211 147.279 272.547 149.33 275.255C151.381 277.963 154.308 279.875 157.612 280.666C163.452 282.277 170.278 280.949 174.62 276.574C179.593 271.566 180.279 262.657 176.164 256.911C172.435 251.706 165.798 249.606 159.616 250.543C156.241 251.02 153.1 252.539 150.63 254.888C147.689 257.773 146.39 261.76 146.364 265.817C146.349 267.929 149.631 267.931 149.646 265.817L149.647 265.816Z" fill="#211715"/>
<path d="M158.631 243.49C160.374 248.27 164.84 261.795 165.366 263.409C165.722 264.517 166.009 266.93 163.54 267.731C161.769 268.298 160.005 267.197 159.212 265.488C158.925 264.879 154.384 251.915 152.135 245.419" fill="white"/>
<path d="M170.375 277.145C172.553 282.657 174.864 288.141 176.862 293.721C176.996 294.065 177.091 294.422 177.147 294.786C177.109 294.485 177.141 295.192 177.131 295.297C177.156 295.016 177.12 295.362 177.098 295.434C177.004 295.73 177.108 295.546 176.974 295.753C176.84 295.926 176.671 296.068 176.478 296.17C176.285 296.273 176.073 296.334 175.855 296.349C175.511 296.341 175.174 296.25 174.873 296.083C174.572 295.917 174.316 295.679 174.127 295.392C174.026 295.255 173.945 294.933 173.81 294.826C173.617 294.674 173.982 295.254 173.847 294.914C173.701 294.547 173.552 294.181 173.406 293.814C172.929 292.609 172.458 291.402 171.991 290.193C170.532 286.427 169.082 282.657 167.64 278.884C167.513 278.471 167.234 278.122 166.858 277.909C166.483 277.696 166.04 277.634 165.62 277.738C165.202 277.856 164.848 278.134 164.634 278.512C164.419 278.89 164.362 279.337 164.474 279.756C165.887 283.459 167.311 287.159 168.745 290.856C169.273 292.216 169.8 293.577 170.339 294.934C170.668 295.936 171.164 296.876 171.807 297.713C172.517 298.585 173.496 299.198 174.592 299.456C175.687 299.714 176.837 299.602 177.862 299.138C178.648 298.768 179.309 298.177 179.764 297.437C180.219 296.697 180.448 295.84 180.423 294.972C180.372 293.971 180.139 292.987 179.734 292.07C179.266 290.839 178.787 289.619 178.309 288.395C176.729 284.35 175.14 280.309 173.541 276.272C173.414 275.859 173.134 275.51 172.759 275.297C172.383 275.084 171.941 275.023 171.521 275.126C171.103 275.244 170.749 275.522 170.534 275.9C170.32 276.278 170.263 276.725 170.375 277.144V277.145Z" fill="#211715"/>
<path d="M157.046 243.927C159.338 250.225 161.4 256.613 163.497 262.979C163.603 263.304 163.721 263.628 163.815 263.957C163.858 264.104 163.888 264.253 163.923 264.402C163.992 264.7 163.94 264.461 163.943 264.555C163.955 264.741 163.957 264.927 163.949 265.113C163.949 265.123 163.912 265.386 163.94 265.222C163.97 265.045 163.872 265.456 163.861 265.495C163.839 265.589 163.798 265.676 163.74 265.753C163.683 265.83 163.61 265.894 163.527 265.941C163.183 266.184 162.76 266.288 162.342 266.234C161.997 266.162 161.676 266.002 161.412 265.769C161.262 265.643 160.523 264.86 160.618 264.645C160.578 264.733 160.833 265.192 160.67 264.75C160.602 264.569 160.534 264.39 160.47 264.209C160.275 263.677 160.084 263.144 159.894 262.61C159.313 260.987 158.738 259.363 158.168 257.736C156.673 253.49 155.189 249.24 153.715 244.986C153.031 243.003 149.856 243.855 150.55 245.858C151.976 249.977 153.412 254.092 154.858 258.203C155.477 259.964 156.1 261.724 156.726 263.483C157.062 264.424 157.357 265.406 157.786 266.311C158.345 267.586 159.386 268.588 160.683 269.096C161.979 269.604 163.424 269.578 164.701 269.023C166.867 268.005 167.534 265.672 167.071 263.464C166.822 262.496 166.519 261.543 166.163 260.609C165.588 258.87 165.01 257.132 164.43 255.395C163.053 251.273 161.695 247.141 160.208 243.057C160.083 242.644 159.803 242.295 159.427 242.081C159.052 241.868 158.608 241.807 158.189 241.911C157.771 242.03 157.417 242.308 157.203 242.686C156.988 243.064 156.931 243.51 157.043 243.93L157.046 243.927Z" fill="#211715"/>
<path d="M144.008 241.496C144.418 242.767 145.275 245.418 145.708 246.776C145.74 246.877 145.791 246.971 145.86 247.053C145.928 247.134 146.011 247.201 146.106 247.25C146.2 247.3 146.303 247.33 146.409 247.339C146.514 247.348 146.621 247.336 146.722 247.304C149.247 246.513 162.622 242.35 165.225 241.537C165.327 241.505 165.421 241.454 165.503 241.385C165.585 241.316 165.652 241.232 165.701 241.137C165.75 241.043 165.78 240.939 165.789 240.833C165.798 240.727 165.786 240.619 165.753 240.518C165.349 239.234 164.523 236.625 164.144 235.424C164.081 235.22 163.94 235.049 163.752 234.949C163.564 234.848 163.344 234.826 163.139 234.887C160.549 235.664 147.091 239.712 144.551 240.47C144.447 240.5 144.35 240.551 144.266 240.62C144.183 240.688 144.113 240.773 144.063 240.868C144.012 240.964 143.981 241.069 143.972 241.176C143.962 241.284 143.975 241.393 144.008 241.496Z" fill="#7A7473"/>
<path d="M142.423 241.932C142.817 243.155 143.211 244.377 143.606 245.599C144.07 247.039 144.451 248.85 146.298 248.963C147.003 248.938 147.698 248.786 148.349 248.513C149.134 248.268 149.919 248.023 150.704 247.779C154.775 246.51 158.845 245.242 162.916 243.974C164.433 243.502 166.908 243.178 167.349 241.376C167.656 240.129 166.853 238.562 166.481 237.385C166.1 236.18 165.857 234.392 164.742 233.647C163.318 232.697 161.24 233.739 159.761 234.184L153.772 235.983L146.946 238.034L144.64 238.726C143.078 239.193 142.113 240.203 142.42 241.929C142.539 242.347 142.817 242.701 143.195 242.915C143.573 243.13 144.019 243.187 144.439 243.075C144.853 242.951 145.204 242.672 145.417 242.296C145.631 241.92 145.691 241.476 145.585 241.057C145.641 241.373 144.67 242.003 145.223 241.978C145.322 241.959 145.419 241.93 145.513 241.891L146.286 241.659L148.276 241.061L153.483 239.498C156.635 238.551 159.787 237.604 162.94 236.657C163.052 236.624 163.432 236.579 163.506 236.487C163.611 236.357 164.674 236.993 163.087 236.237C162.304 235.865 162.647 235.915 162.683 236.259C162.741 236.524 162.823 236.783 162.928 237.033C163.267 238.103 163.606 239.175 163.943 240.246C163.978 240.464 164.044 240.675 164.141 240.873C164.517 241.283 164.372 239.784 164.718 239.974C164.669 239.984 164.621 239.999 164.574 240.019C164.34 240.061 164.112 240.133 163.895 240.231L162.043 240.808L151.533 244.082C149.99 244.563 148.448 245.044 146.905 245.525C146.689 245.559 146.478 245.624 146.281 245.72C147.628 244.596 147.258 246.735 147.174 245.989C147.145 245.855 147.103 245.724 147.049 245.598L146.731 244.609C146.35 243.424 145.968 242.24 145.585 241.058C144.942 239.057 141.774 239.913 142.423 241.932Z" fill="#211715"/>
<path d="M152.991 212.93C153.553 215.752 152.512 218.799 150.811 221.237C152.295 222.391 155.143 222.246 156.985 221.959C159.905 221.505 165.831 220.604 167.158 215.333C166.485 213.631 165.893 211.9 165.38 210.141" fill="white"/>
<path d="M142.361 240.261C143.025 240.195 143.68 240.063 144.318 239.869C152.524 237.17 158.686 235.097 167.468 232.225C168.482 231.855 169.4 231.261 170.153 230.487C170.905 229.713 171.474 228.78 171.816 227.756C172.416 225.913 171.363 223.987 170.428 222.285C169.19 220.039 168.098 217.715 167.157 215.329C165.831 220.601 159.904 221.502 156.985 221.956C155.142 222.242 152.294 222.388 150.811 221.234C149.795 222.723 148.487 223.99 146.967 224.958C143.418 227.115 139.371 228.699 136.678 231.864C134.843 234.02 134.007 237.725 136.279 239.414C137.521 240.338 140.229 240.502 142.361 240.261Z" fill="white"/>
<path d="M151.41 213.366C151.914 216.135 150.558 219.11 148.798 221.184C146.805 223.536 144.008 224.716 141.381 226.21C138.738 227.715 135.873 229.581 134.383 232.327C133.065 234.756 132.616 238.199 134.794 240.3C136.737 242.174 140.059 242.181 142.566 241.877C144.015 241.653 145.438 241.283 146.813 240.773C148.483 240.223 150.152 239.671 151.821 239.117C154.984 238.068 158.147 237.02 161.312 235.971C163.086 235.385 164.862 234.801 166.638 234.219C168.299 233.79 169.836 232.974 171.121 231.836C172.519 230.552 173.407 228.806 173.621 226.919C173.75 224.84 172.651 222.943 171.694 221.182C169.716 217.533 168.129 213.684 166.96 209.702C166.363 207.68 163.194 208.539 163.794 210.574C164.784 213.923 166.046 217.185 167.569 220.327C168.304 221.843 169.232 223.286 169.899 224.832C170.2 225.414 170.334 226.07 170.285 226.724C170.236 227.379 170.007 228.006 169.622 228.538C168.897 229.628 167.81 230.428 166.553 230.794C164.894 231.337 163.235 231.882 161.578 232.429C158.572 233.42 155.567 234.414 152.563 235.412C149.579 236.401 146.599 237.552 143.566 238.376C142.499 238.644 141.399 238.757 140.299 238.712C139.298 238.751 138.3 238.566 137.38 238.17C137.067 237.941 136.824 237.629 136.678 237.269C136.533 236.91 136.489 236.517 136.553 236.134C136.655 235.065 137.052 234.046 137.7 233.19C139.418 230.872 142.239 229.46 144.709 228.114C146.109 227.416 147.456 226.616 148.739 225.721C150.061 224.713 151.218 223.505 152.169 222.142C153.191 220.773 153.931 219.214 154.344 217.556C154.757 215.898 154.835 214.174 154.573 212.485C154.454 212.068 154.176 211.714 153.798 211.499C153.421 211.285 152.974 211.227 152.554 211.339C152.14 211.463 151.789 211.742 151.576 212.118C151.362 212.494 151.302 212.939 151.408 213.358L151.41 213.366Z" fill="#211715"/>
<path d="M150.153 222.779C152.028 223.946 154.456 223.928 156.575 223.659C158.052 223.491 159.515 223.212 160.951 222.825C164.568 221.799 167.732 219.554 168.74 215.769C169.284 213.726 166.118 212.854 165.575 214.896C164.832 217.687 162.511 218.994 159.914 219.706C158.807 219.999 157.683 220.223 156.548 220.376C155.107 220.581 153.144 220.774 151.812 219.945C150.013 218.825 148.364 221.664 150.155 222.779H150.153Z" fill="#211715"/>
<path d="M216.088 153.105C218.566 160.053 213.111 167.807 206.256 170.53C199.401 173.252 191.708 172.316 184.397 171.335C174.225 169.967 167.07 171.588 156.899 170.223C159.711 177.68 161.521 183.967 162.408 186.988C164.471 194.428 166.025 202.001 167.058 209.653C164.019 210.868 155.325 213.81 150.251 214.187C143.435 199.496 136.651 182.515 129.833 167.816C127.594 162.991 125.541 156.739 129.166 152.841C131.166 150.693 134.28 150.089 137.175 149.599L170.16 144.013" fill="#00674B"/>
<path d="M214.505 153.542C215.74 157.131 214.652 160.82 212.44 163.789C209.93 167.017 206.339 169.23 202.328 170.022C197.564 171.095 192.574 170.701 187.77 170.127C185.248 169.827 182.74 169.444 180.205 169.274C177.833 169.115 175.456 169.087 173.08 169.107C167.667 169.153 162.282 169.29 156.899 168.582C156.647 168.583 156.398 168.642 156.172 168.755C155.946 168.867 155.749 169.03 155.596 169.231C155.443 169.432 155.338 169.665 155.29 169.913C155.241 170.16 155.25 170.416 155.316 170.659C158.805 179.812 161.562 189.226 163.563 198.814C164.295 202.405 164.93 206.02 165.418 209.653L166.623 208.07C164.165 209.049 161.638 209.871 159.102 210.618C156.224 211.557 153.26 212.203 150.253 212.546L151.67 213.359C145.622 200.31 140.214 186.977 134.363 173.84C133.02 170.827 131.498 167.861 130.307 164.784C129.362 162.341 128.422 159.458 128.961 156.811C129.524 154.04 131.676 152.591 134.271 151.876C137.651 150.945 141.229 150.572 144.681 149.987L170.597 145.599C171.015 145.48 171.369 145.202 171.583 144.824C171.798 144.446 171.855 143.999 171.743 143.579C171.619 143.165 171.34 142.815 170.964 142.602C170.588 142.388 170.144 142.328 169.724 142.433L145.827 146.48C142.074 147.116 138.267 147.619 134.545 148.431C131.449 149.107 128.366 150.49 126.753 153.373C123.518 159.158 127.258 166.084 129.683 171.409C132.785 178.221 135.733 185.102 138.686 191.981C141.997 199.69 145.303 207.403 148.831 215.015C148.972 215.266 149.178 215.475 149.427 215.618C149.677 215.761 149.96 215.834 150.248 215.828C153.468 215.493 156.646 214.831 159.733 213.852C162.35 213.088 164.958 212.243 167.492 211.235C168.094 210.995 168.797 210.405 168.696 209.653C167.329 199.579 165.087 189.642 161.995 179.957C160.913 176.534 159.742 173.144 158.482 169.787L156.9 171.864C161.994 172.534 167.096 172.46 172.221 172.398C174.728 172.368 177.237 172.375 179.742 172.527C182.435 172.69 185.096 173.09 187.772 173.41C197.271 174.542 208.26 174.374 214.722 166.168C217.711 162.373 219.295 157.389 217.672 152.669C216.988 150.686 213.818 151.537 214.507 153.542H214.505Z" fill="#211715"/>
<path d="M136.588 163.348L148.12 167.009C148.328 167.066 148.545 167.082 148.759 167.055C148.973 167.029 149.179 166.96 149.367 166.854C149.554 166.747 149.719 166.605 149.851 166.435C149.984 166.265 150.081 166.071 150.138 165.863C150.196 165.655 150.212 165.438 150.185 165.224C150.158 165.01 150.09 164.804 149.984 164.616C149.877 164.429 149.735 164.264 149.565 164.132C149.395 163.999 149.2 163.901 148.992 163.844L137.46 160.184C137.041 160.068 136.592 160.124 136.214 160.339C135.835 160.554 135.558 160.91 135.442 161.33C135.326 161.75 135.382 162.198 135.597 162.577C135.812 162.955 136.168 163.233 136.588 163.348Z" fill="#211715"/>
<path d="M138.424 130.963L132.549 136.959C131.483 138.046 130.361 139.172 128.91 139.641C126.884 140.297 124.699 139.536 122.57 139.493C119.625 139.434 115.26 141.203 112.985 143.074C111.105 144.724 109.558 146.719 108.426 148.95C108.007 149.681 107.185 152.825 109.769 153.306C110.148 153.345 110.531 153.287 110.881 153.136C111.232 152.986 111.538 152.747 111.77 152.445C111.408 152.958 110.402 156.342 112.883 157.332C113.45 157.541 114.074 157.529 114.632 157.299C115.19 157.069 115.642 156.639 115.898 156.092C115.517 157.408 115.718 160.028 118.303 160.4C118.632 160.424 118.961 160.369 119.265 160.242C119.569 160.114 119.838 159.917 120.051 159.666C121.013 158.567 121.869 157.38 122.608 156.12C122.191 156.738 122.032 157.494 122.164 158.227C122.297 158.96 122.711 159.613 123.318 160.045C123.691 160.357 125.101 160.404 126.154 159.539C127.199 158.652 128.112 157.62 128.864 156.474C129.309 155.519 129.989 154.692 130.842 154.072C131.694 153.453 132.69 153.06 133.736 152.932C134.589 152.817 135.422 152.581 136.208 152.231C137.576 151.588 138.264 150.075 139.007 148.755C140.901 145.325 143.263 142.175 146.024 139.395" fill="white"/>
<path d="M112.402 153.934C113.006 153.461 113.505 152.868 113.867 152.192C114.35 151.466 114.825 150.736 115.342 150.032C115.574 149.715 115.137 150.281 115.331 150.047C115.385 149.982 115.437 149.917 115.491 149.853C115.604 149.721 115.721 149.592 115.846 149.472C116.287 149.046 116.757 148.646 117.223 148.248C117.442 148.06 117.664 147.874 117.888 147.692C118.025 147.583 118.162 147.476 118.294 147.368C118.563 147.153 118.064 147.536 118.362 147.314C118.829 146.968 119.301 146.63 119.788 146.315C119.976 146.207 120.14 146.063 120.272 145.891C120.404 145.719 120.501 145.523 120.556 145.314C120.612 145.105 120.626 144.886 120.597 144.672C120.568 144.457 120.496 144.251 120.387 144.064C120.278 143.877 120.133 143.713 119.96 143.583C119.787 143.452 119.591 143.357 119.381 143.303C119.171 143.249 118.953 143.237 118.739 143.267C118.524 143.298 118.318 143.37 118.132 143.481C117.095 144.161 116.101 144.905 115.156 145.709C114.343 146.338 113.596 147.048 112.927 147.829C112.325 148.589 111.786 149.391 111.253 150.2C111.047 150.508 110.847 150.815 110.634 151.12C110.596 151.174 110.557 151.226 110.52 151.28C110.371 151.498 110.833 150.921 110.608 151.165C110.578 151.195 110.55 151.227 110.524 151.26C110.365 151.474 110.88 151.014 110.743 151.1C110.367 151.32 110.094 151.68 109.983 152.101C109.873 152.522 109.934 152.97 110.154 153.346C110.374 153.721 110.734 153.995 111.155 154.105C111.576 154.215 112.024 154.154 112.399 153.934H112.402Z" fill="#211715"/>
<path d="M137.265 129.803L132.8 134.359C131.641 135.542 130.51 136.962 129.055 137.793C127.482 138.693 125.483 138.123 123.79 137.94C122.214 137.782 120.622 137.914 119.094 138.329C115.837 139.111 112.86 140.781 110.496 143.153C109.358 144.392 108.363 145.755 107.531 147.216C106.926 148.146 106.531 149.196 106.372 150.294C106.256 150.967 106.305 151.658 106.516 152.308C106.727 152.958 107.092 153.547 107.581 154.024C109.257 155.497 111.429 155.05 112.929 153.602L110.351 151.613C109.871 152.456 109.611 153.405 109.595 154.375C109.578 155.344 109.807 156.302 110.258 157.16C111.908 159.92 115.783 159.57 117.313 156.917L114.313 155.652C113.731 157.834 114.409 160.474 116.546 161.542C117.262 161.935 118.084 162.091 118.894 161.989C119.705 161.887 120.462 161.532 121.059 160.974C122.225 159.769 123.223 158.412 124.027 156.94L121.193 155.283C120.8 155.927 120.57 156.657 120.523 157.409C120.475 158.162 120.611 158.915 120.919 159.603C121.151 160.164 121.516 160.66 121.982 161.048C122.449 161.436 123.003 161.704 123.596 161.829C126.456 162.235 128.788 159.652 130.181 157.453C130.61 156.57 131.252 155.808 132.049 155.235C133.045 154.764 134.109 154.452 135.202 154.309C136.596 154.03 137.856 153.29 138.779 152.21C139.587 151.087 140.312 149.907 140.947 148.678C142.673 145.717 144.769 142.987 147.186 140.555C148.685 139.063 146.365 136.742 144.865 138.234C142.991 140.114 141.297 142.166 139.805 144.362C139.07 145.434 138.381 146.536 137.737 147.667C137.303 148.638 136.734 149.543 136.048 150.355C135.325 151.049 134.242 151.163 133.301 151.349C132.277 151.533 131.292 151.891 130.389 152.409C128.475 153.555 127.745 155.528 126.309 157.11C125.929 157.579 125.489 157.996 125.001 158.351C124.811 158.476 124.597 158.56 124.373 158.597C124.429 158.589 124.137 158.62 124.175 158.609C123.92 158.682 124.091 158.549 124.092 158.609C124.092 158.623 124.47 158.967 124.126 158.55C124.01 158.429 123.914 158.291 123.842 158.14C123.777 157.94 123.76 157.728 123.792 157.52C123.824 157.312 123.905 157.115 124.027 156.943C125.024 155.083 122.29 153.475 121.192 155.287C120.674 156.169 120.099 157.016 119.47 157.823C118.996 158.416 118.718 158.95 118.034 158.621C117.748 158.485 117.792 158.47 117.669 158.3C117.464 158.015 117.532 158.078 117.433 157.68C117.407 157.579 117.387 157.31 117.407 157.546C117.393 157.386 117.399 157.23 117.396 157.068C117.396 157.011 117.46 156.541 117.396 156.913C117.419 156.781 117.45 156.653 117.484 156.524C117.963 154.739 115.424 153.629 114.484 155.259C114.263 155.643 113.941 155.927 113.537 155.819C113.359 155.777 113.203 155.671 113.098 155.521C113.223 155.676 112.98 155.289 112.975 155.278C113.059 155.475 112.966 155.179 112.947 155.109C112.933 155.054 112.894 154.705 112.916 154.959C112.906 154.82 112.903 154.68 112.907 154.54C112.907 154.403 112.918 154.266 112.933 154.13C112.907 154.363 112.933 154.144 112.957 154.03C113.008 153.814 113.08 153.601 113.128 153.385C113.206 153.039 112.96 153.628 113.191 153.269C114.216 151.671 111.931 150.005 110.613 151.28C110.312 151.57 110.083 151.725 109.861 151.632C109.695 151.563 109.713 151.474 109.744 151.563C109.718 151.489 109.667 151.306 109.709 151.54C109.692 151.44 109.641 151.345 109.625 151.243C109.572 150.908 109.612 151.152 109.617 151.216C109.608 151.112 109.605 151.008 109.609 150.903C109.609 150.815 109.689 150.242 109.625 150.582C109.659 150.4 109.699 150.22 109.751 150.043C109.831 149.77 109.929 149.641 109.794 149.878C111.093 147.607 112.491 145.314 114.713 143.825C116.848 142.331 119.33 141.407 121.923 141.143C123.475 141.049 125 141.45 126.541 141.527C128.217 141.648 129.884 141.203 131.276 140.264C132.71 139.153 134.037 137.911 135.242 136.555L139.589 132.118C141.069 130.608 138.75 128.289 137.269 129.797L137.265 129.803Z" fill="#211715"/>
<path d="M117.187 157.123C117.652 156.325 118.082 155.509 118.554 154.716C118.665 154.53 118.778 154.345 118.896 154.164C119.02 154.01 119.133 153.847 119.234 153.677C119.2 153.754 119.036 153.911 119.179 153.756C119.242 153.688 119.302 153.62 119.365 153.551C119.536 153.368 119.707 153.187 119.88 153.004C120.461 152.389 121.049 151.779 121.665 151.198C121.955 150.924 122.251 150.657 122.554 150.398C122.715 150.261 122.879 150.124 123.045 149.987C123.113 149.933 123.182 149.879 123.25 149.825C123.597 149.552 122.98 150.03 123.339 149.757C123.698 149.529 123.965 149.181 124.092 148.776C124.205 148.349 124.145 147.895 123.926 147.511C123.703 147.139 123.343 146.868 122.924 146.758C122.504 146.648 122.058 146.707 121.681 146.923C120.204 148.057 118.826 149.314 117.559 150.679C116.904 151.35 116.322 152.09 115.825 152.885C115.311 153.73 114.854 154.609 114.355 155.463C114.246 155.649 114.175 155.855 114.146 156.068C114.117 156.282 114.13 156.499 114.185 156.708C114.239 156.916 114.334 157.112 114.465 157.284C114.595 157.455 114.758 157.6 114.944 157.709C115.13 157.817 115.336 157.888 115.549 157.918C115.763 157.947 115.98 157.934 116.189 157.879C116.397 157.825 116.593 157.729 116.765 157.599C116.936 157.469 117.081 157.306 117.19 157.12L117.187 157.123Z" fill="#211715"/>
<path d="M123.772 157.274C124.037 156.853 124.327 156.449 124.631 156.055L124.374 156.388C125.277 155.241 126.26 154.159 127.314 153.15C127.467 152.997 127.588 152.816 127.671 152.617C127.753 152.418 127.796 152.205 127.796 151.989C127.796 151.773 127.754 151.56 127.672 151.36C127.589 151.161 127.469 150.98 127.316 150.827C127.164 150.674 126.983 150.553 126.784 150.47C126.584 150.388 126.371 150.345 126.155 150.345C125.939 150.345 125.726 150.387 125.526 150.469C125.327 150.552 125.146 150.673 124.993 150.825C123.457 152.255 122.096 153.861 120.938 155.611C120.722 155.988 120.663 156.434 120.773 156.854C120.883 157.274 121.154 157.634 121.527 157.856C121.904 158.067 122.349 158.124 122.767 158.014C123.186 157.904 123.546 157.637 123.771 157.268L123.772 157.274Z" fill="#211715"/>
<path d="M167.601 77.2775C163.759 78.8133 161.037 82.3895 159.51 86.2351C157.984 90.0807 157.491 94.2436 156.876 98.3382C156.39 101.575 155.803 104.852 154.354 107.787C153.093 110.341 151.229 112.538 149.431 114.744C145.323 119.776 140.491 126.31 137.84 130.402C140.491 133.302 143.834 136.645 147.176 140.139C149.332 140.262 157.198 136.118 161.528 132.732C163.379 131.284 165.978 129.285 167.295 127.339C174.109 117.271 180.101 106.671 185.213 95.6406" fill="white"/>
<path d="M167.164 75.6946C163.543 77.262 160.607 80.0792 158.891 83.632C156.824 87.6834 156.13 92.1909 155.472 96.6403C154.832 100.985 154.157 105.32 151.716 109.069C150.508 110.816 149.21 112.499 147.829 114.112C146.507 115.745 145.211 117.397 143.94 119.069C141.325 122.487 138.759 125.961 136.412 129.571C136.234 129.886 136.163 130.25 136.209 130.608C136.255 130.967 136.417 131.301 136.669 131.56C138.473 133.529 140.336 135.442 142.197 137.358C143.235 138.426 144.271 139.496 145.306 140.568C145.847 141.13 146.322 141.742 147.166 141.778C147.51 141.781 147.854 141.746 148.191 141.675C149.766 141.312 151.287 140.743 152.713 139.983C154.638 139.065 156.51 138.04 158.32 136.913C160.147 135.77 161.906 134.523 163.59 133.178C165.617 131.702 167.403 129.922 168.885 127.9C172.054 123.225 175.03 118.416 177.83 113.511C181.001 107.958 183.933 102.277 186.626 96.4687C186.833 96.0901 186.887 95.6464 186.778 95.2289C186.668 94.8114 186.403 94.4517 186.036 94.2238C185.66 94.0077 185.213 93.9483 184.793 94.0584C184.373 94.1686 184.013 94.4394 183.791 94.8126C179.978 103.033 175.676 111.018 170.911 118.725C169.733 120.628 168.528 122.513 167.294 124.382C166.742 125.216 166.218 126.097 165.598 126.881C164.914 127.705 164.157 128.466 163.336 129.154C160.745 131.409 157.936 133.4 154.952 135.099C153.349 136.037 151.695 136.883 149.996 137.633C149.415 137.884 148.822 138.103 148.218 138.29C147.978 138.359 147.731 138.407 147.492 138.478C147.369 138.513 147.101 138.503 147.538 138.482C147.413 138.488 147.292 138.5 147.167 138.496L148.329 138.974C145.22 135.727 142.032 132.552 138.993 129.237L139.25 131.226C141.225 128.187 143.362 125.253 145.541 122.356C148.003 119.082 150.659 115.965 153.14 112.709C154.481 110.994 155.59 109.108 156.438 107.102C157.218 105.099 157.78 103.018 158.114 100.895C158.888 96.4844 159.231 91.9701 160.704 87.7114C161.957 84.0874 164.359 80.3744 168.034 78.855C168.446 78.7276 168.794 78.4479 169.007 78.0728C169.22 77.6978 169.282 77.2556 169.18 76.8365C169.062 76.4182 168.784 76.0632 168.406 75.8486C168.029 75.6339 167.581 75.5769 167.162 75.6898L167.164 75.6946Z" fill="#211715"/>
<path d="M157.797 56.924C154.619 62.3223 151.774 67.9099 149.278 73.6555C147.89 76.5761 146.777 79.619 145.951 82.7451C144.987 86.9408 146.306 91.1393 147.175 95.2406L150.184 109.453C150.621 111.518 153.785 110.644 153.348 108.581L150.758 96.3511C150.326 94.3129 149.894 92.2746 149.462 90.236C149.067 88.3679 148.651 86.4704 148.929 84.553C149.359 81.5854 150.684 78.6143 151.866 75.873C153.116 72.9745 154.478 70.1244 155.9 67.3066C157.39 64.3533 158.942 61.426 160.629 58.5801C161.71 56.7592 158.873 55.1064 157.796 56.924H157.797Z" fill="#211715"/>
<path d="M160.426 133.299C160.515 134.308 160.803 135.29 161.273 136.188C161.783 137.349 162.377 138.472 163.051 139.547C163.833 140.839 164.744 142.048 165.769 143.158C166.76 144.258 168.039 145.059 169.461 145.471C177.209 147.775 185.029 149.864 192.949 151.493C200.844 153.199 208.87 154.236 216.94 154.593C218.52 154.646 220.28 154.876 221.755 154.178C222.335 153.882 222.843 153.462 223.242 152.948C223.642 152.434 223.923 151.838 224.066 151.203C224.857 148.145 223.744 144.958 223.192 141.968C222.583 138.913 221.759 135.905 220.727 132.966C220.05 130.783 219.253 128.64 218.341 126.544C218.119 126.171 217.759 125.9 217.339 125.79C216.919 125.68 216.472 125.739 216.096 125.956C215.727 126.182 215.46 126.542 215.351 126.96C215.241 127.379 215.297 127.823 215.507 128.201C215.535 128.261 215.672 128.573 215.544 128.278C215.407 127.965 215.6 128.419 215.629 128.493C215.78 128.87 215.925 129.245 216.068 129.628C216.454 130.654 216.826 131.686 217.182 132.724C218.06 135.263 218.892 137.829 219.527 140.438C219.819 141.633 220.023 142.844 220.299 144.041C220.649 145.415 220.886 146.815 221.007 148.227C221.028 148.579 221.039 148.933 221.029 149.286C221.025 149.422 220.994 149.901 221.007 149.809C220.978 150.246 220.837 150.669 220.596 151.036C220.49 151.162 220.346 151.25 220.186 151.286C219.505 151.388 218.814 151.407 218.128 151.343C203.222 151.022 188.479 147.519 174.212 143.437C173.251 143.164 172.291 142.885 171.332 142.601C170.547 142.456 169.793 142.179 169.102 141.78C168.868 141.61 169.242 141.895 169.008 141.707C168.861 141.588 168.721 141.459 168.583 141.33C168.339 141.101 168.108 140.861 167.884 140.614C167.425 140.104 167 139.565 166.612 138.999C165.809 137.841 165.098 136.621 164.486 135.351C164.356 135.082 164.228 134.81 164.112 134.534C164.211 134.77 164.085 134.466 164.063 134.404C164.019 134.29 163.975 134.176 163.934 134.062C163.859 133.847 163.801 133.63 163.735 133.413C163.583 132.91 163.716 133.639 163.713 133.303C163.693 131.192 160.411 131.187 160.431 133.303L160.426 133.299Z" fill="#211715"/>
<path d="M158.387 59.1688C169.551 63.992 179.609 71.0522 187.938 79.9135C191.643 83.9212 194.963 88.2687 197.853 92.8986C200.809 97.7398 203.414 102.786 205.648 108C207.904 113.098 209.944 118.269 212.306 123.339C212.528 123.713 212.888 123.983 213.308 124.094C213.728 124.204 214.175 124.144 214.551 123.928C214.92 123.702 215.187 123.342 215.297 122.924C215.407 122.505 215.35 122.061 215.14 121.683C210.65 112.047 207.117 101.89 201.554 92.6559C195.602 82.7392 187.796 74.0607 178.564 67.0939C172.822 62.8087 166.607 59.1989 160.039 56.3359C159.661 56.1296 159.217 56.0757 158.8 56.1851C158.383 56.2945 158.023 56.559 157.794 56.9246C157.578 57.3011 157.518 57.7477 157.628 58.1678C157.738 58.588 158.01 58.9478 158.383 59.1695L158.387 59.1688Z" fill="#211715"/>
<path d="M184.035 188.384C184.561 188.501 185.086 188.62 185.608 188.748C185.819 188.816 186.045 188.826 186.262 188.776C186.479 188.767 186.689 188.7 186.872 188.582C187.059 188.483 187.218 188.337 187.333 188.159C187.477 188.001 187.578 187.809 187.626 187.601L187.685 187.165C187.685 186.874 187.608 186.588 187.461 186.337L187.204 186.004C187.003 185.803 186.754 185.658 186.48 185.582C185.956 185.456 185.432 185.335 184.907 185.22C184.696 185.152 184.47 185.141 184.253 185.191C184.036 185.2 183.825 185.267 183.643 185.385C183.287 185.616 183.021 185.962 182.891 186.366L182.832 186.802C182.832 187.093 182.909 187.379 183.056 187.63L183.313 187.963C183.514 188.164 183.763 188.309 184.037 188.384H184.035Z" fill="#211715"/>
<path d="M134.378 69.5657C135.751 69.3414 137.214 69.1998 138.507 69.8269C139.728 70.5184 140.733 71.5342 141.412 72.7617C142.281 74.1293 143.035 75.5714 143.857 76.9677C144.779 78.5342 145.716 80.0919 146.606 81.6769C147.64 83.519 150.476 81.8663 149.44 80.0201C148.463 78.2799 147.429 76.5731 146.421 74.8513C145.559 73.2354 144.615 71.6647 143.592 70.1455C142.545 68.5927 141.073 67.3741 139.353 66.635C137.456 65.8828 135.472 66.0804 133.509 66.4011C133.091 66.5196 132.737 66.7978 132.522 67.1755C132.308 67.5532 132.251 68.0001 132.363 68.4196C132.487 68.8337 132.767 69.1838 133.142 69.3973C133.518 69.6107 133.962 69.6711 134.382 69.5657H134.378Z" fill="#211715"/>
<path d="M116.405 62.9753C117.558 62.8034 118.665 62.4046 119.663 61.802C120.375 61.3815 120.984 60.807 121.446 60.1205C121.662 59.7439 121.721 59.2975 121.611 58.8776C121.501 58.4576 121.23 58.0978 120.857 57.8757C120.479 57.6651 120.034 57.6088 119.616 57.7185C119.197 57.8283 118.837 58.0955 118.611 58.4644C118.574 58.5225 118.534 58.5779 118.492 58.6326L118.749 58.3003C118.558 58.5361 118.34 58.7478 118.098 58.9307L118.431 58.6743C118.026 58.9791 117.585 59.2318 117.118 59.4265L117.51 59.261C116.875 59.5227 116.211 59.7079 115.533 59.8128C115.12 59.926 114.768 60.1959 114.552 60.565C114.332 60.9482 114.273 61.4026 114.387 61.8293C114.502 62.241 114.771 62.5924 115.139 62.8099L115.531 62.9753C115.817 63.0541 116.118 63.0541 116.404 62.9753H116.405Z" fill="#211715"/>
<path d="M116.291 45.0725C116.223 46.2117 116.993 48.6179 118.958 48.3793C121.488 47.7714 120.941 44.7737 119.766 43.5784C118.806 42.5992 116.643 42.604 116.291 45.0725Z" fill="#211715"/>
<path d="M268.968 93.5208C262.998 80.7716 254.882 64.0106 247.913 49.2388C247.799 48.9981 247.736 48.7371 247.726 48.4712C247.716 48.2054 247.76 47.9403 247.855 47.6919C247.95 47.4434 248.094 47.2168 248.279 47.0255C248.464 46.8342 248.686 46.6823 248.931 46.5789C249.176 46.4747 249.398 46.3219 249.582 46.1299C249.767 45.9378 249.911 45.7103 250.005 45.4612C250.1 45.212 250.143 44.9463 250.132 44.6801C250.121 44.4139 250.056 44.1526 249.941 43.9121C247.753 39.3307 245.546 34.7152 243.413 30.2186C243.196 29.7593 242.809 29.4019 242.334 29.2215C241.859 29.0411 241.333 29.0517 240.865 29.251C232.99 32.5954 189.778 51.3243 176.404 56.9752C176.162 57.0768 175.944 57.2261 175.762 57.414C175.579 57.602 175.437 57.8248 175.343 58.0692C175.249 58.3135 175.205 58.5743 175.214 58.836C175.223 59.0976 175.285 59.3548 175.396 59.592C185.014 80.2649 198.269 107.377 205.808 123.854C206.019 124.314 206.401 124.674 206.873 124.858C207.346 125.042 207.871 125.034 208.338 124.838C221.435 119.339 255.538 104.419 269.115 98.6588C269.358 98.5561 269.578 98.4053 269.762 98.2155C269.946 98.0257 270.09 97.8007 270.185 97.5541C270.279 97.3075 270.324 97.0443 270.314 96.7803C270.305 96.5162 270.243 96.2567 270.131 96.0173C269.754 95.2036 269.367 94.3714 268.968 93.5208Z" fill="#F49200"/>
<path d="M210.282 99.0892L209.043 96.199L204.339 92.6672L205.378 92.2218L208.972 94.9866L209.123 94.9216L209.599 90.4123L210.639 89.9669L209.952 95.8093L211.191 98.6995L210.282 99.0892ZM215.272 97.0655C214.89 97.2295 214.5 97.298 214.105 97.2713C213.716 97.2414 213.358 97.1043 213.031 96.86C212.709 96.6053 212.447 96.2435 212.246 95.7744L210.872 92.5703L211.728 92.2037L213.073 95.3429C213.299 95.8697 213.593 96.1965 213.955 96.3233C214.324 96.447 214.732 96.413 215.179 96.2212C215.684 96.0047 216.028 95.6608 216.211 95.1897C216.393 94.7185 216.344 94.1546 216.062 93.4979L214.921 90.835L215.776 90.4685L218.045 95.7618L217.211 96.119L216.826 95.2206L216.675 95.2855C216.667 95.5876 216.568 95.9036 216.376 96.2335C216.181 96.5562 215.813 96.8336 215.272 97.0655ZM218.914 95.3892L216.645 90.0959L217.479 89.7386L217.762 90.3989L217.913 90.334C217.934 90.1031 218.026 89.8587 218.189 89.601C218.351 89.3432 218.642 89.1247 219.061 88.9453C219.472 88.7689 219.843 88.7169 220.173 88.789C220.51 88.8581 220.792 88.9978 221.018 89.2081L221.17 89.1431C221.181 88.8307 221.271 88.5318 221.439 88.2462C221.614 87.9575 221.926 87.7173 222.373 87.5255C222.727 87.3739 223.068 87.3131 223.397 87.343C223.726 87.3729 224.025 87.4924 224.294 87.7017C224.567 87.9007 224.784 88.1878 224.945 88.563L226.481 92.146L225.625 92.5126L224.122 89.0053C223.971 88.6517 223.747 88.4188 223.451 88.3064C223.159 88.1837 222.829 88.2013 222.461 88.359C222.072 88.526 221.805 88.79 221.66 89.1508C221.523 89.5086 221.557 89.9256 221.761 90.4019L223.125 93.5843L222.27 93.9509L220.766 90.4437C220.615 90.0901 220.391 89.8571 220.095 89.7447C219.804 89.622 219.474 89.6396 219.106 89.7973C218.716 89.9644 218.449 90.2283 218.305 90.5891C218.167 90.9469 218.201 91.3639 218.405 91.8402L219.769 95.0227L218.914 95.3892ZM226.907 91.9634L226.368 90.7078L227.364 90.2809L225.193 85.2149L224.197 85.6418L223.659 84.3861L226.776 83.0499C227.794 82.6138 228.677 82.5426 229.427 82.8364C230.18 83.1198 230.775 83.7703 231.211 84.7879L231.824 86.2167C232.26 87.2343 232.322 88.1173 232.011 88.8657C231.704 89.6039 231.042 90.1911 230.024 90.6272L226.907 91.9634ZM228.775 89.6252L229.489 89.319C230.066 89.0715 230.423 88.739 230.561 88.3215C230.698 87.9039 230.649 87.4209 230.414 86.8725L229.764 85.357C229.526 84.8013 229.21 84.4328 228.816 84.2514C228.419 84.0627 227.932 84.0921 227.355 84.3396L226.64 84.6458L228.775 89.6252ZM235.188 88.5934C234.805 88.7573 234.435 88.8393 234.076 88.8393C233.714 88.8321 233.389 88.7409 233.1 88.5656C232.815 88.3801 232.594 88.1033 232.437 87.7352C232.279 87.3672 232.234 87.0234 232.302 86.7038C232.374 86.3739 232.539 86.0811 232.797 85.8254C233.059 85.5594 233.392 85.3398 233.796 85.1666L235.268 84.5356L235.138 84.2325C235.03 83.9799 234.862 83.8082 234.635 83.7175C234.405 83.6196 234.117 83.6449 233.771 83.7933C233.432 83.9387 233.213 84.1264 233.115 84.3563C233.014 84.579 232.991 84.8238 233.046 85.0908L231.609 85.2069C231.578 84.8955 231.609 84.5878 231.7 84.2836C231.796 83.9692 231.973 83.6754 232.232 83.4022C232.495 83.1186 232.857 82.8779 233.319 82.6799C234.027 82.3768 234.662 82.3139 235.224 82.4912C235.787 82.6685 236.213 83.0927 236.5 83.7638L237.359 85.7664C237.451 85.9829 237.599 86.0479 237.801 85.9612L238.234 85.7757L238.716 86.9014L237.807 87.2912C237.54 87.4056 237.292 87.435 237.063 87.3793C236.835 87.3237 236.674 87.1876 236.581 86.9711L236.576 86.9603L236.371 87.0484C236.379 87.1474 236.363 87.2907 236.324 87.4783C236.282 87.6588 236.176 87.8495 236.006 88.0505C235.836 88.2516 235.563 88.4325 235.188 88.5934ZM234.953 87.3872C235.335 87.2232 235.6 86.9856 235.749 86.6742C235.901 86.3526 235.902 86.0149 235.75 85.6613L235.704 85.5531L234.329 86.1423C234.077 86.2506 233.901 86.3898 233.804 86.5599C233.706 86.73 233.698 86.9125 233.782 87.1073C233.865 87.3022 234.009 87.4284 234.213 87.4862C234.417 87.5439 234.664 87.5109 234.953 87.3872ZM241.046 86.0823C240.346 86.3823 239.708 86.4766 239.13 86.3653C238.553 86.254 238.097 85.937 237.762 85.4143L238.878 84.5514C239.037 84.7823 239.205 84.9452 239.382 85.04C239.567 85.1318 239.76 85.173 239.961 85.1637C240.166 85.1441 240.373 85.0895 240.582 84.9998C240.9 84.8637 241.111 84.709 241.216 84.5358C241.318 84.3554 241.334 84.1822 241.263 84.0162C241.191 83.8502 241.065 83.7549 240.884 83.7302C240.699 83.6982 240.436 83.7214 240.093 83.7998L239.767 83.8756C239.361 83.9642 238.976 84.0137 238.614 84.0241C238.248 84.0272 237.923 83.9571 237.639 83.8138C237.356 83.6705 237.138 83.4221 236.987 83.0685C236.758 82.5344 236.778 82.0432 237.047 81.5947C237.313 81.139 237.763 80.7751 238.398 80.5029C238.997 80.2462 239.553 80.1662 240.064 80.2631C240.575 80.36 240.985 80.5987 241.293 80.9791L240.194 81.9116C240.019 81.6621 239.816 81.5183 239.586 81.4802C239.363 81.4389 239.122 81.474 238.862 81.5854C238.603 81.6967 238.424 81.8287 238.327 81.9813C238.227 82.1266 238.211 82.2787 238.279 82.4375C238.354 82.6107 238.482 82.7096 238.663 82.7344C238.841 82.7519 239.063 82.7297 239.326 82.6678L239.653 82.592C240.088 82.491 240.494 82.4322 240.871 82.4157C241.253 82.3889 241.585 82.4471 241.869 82.5904C242.156 82.7234 242.381 82.9775 242.541 83.3528C242.783 83.9156 242.764 84.4404 242.486 84.927C242.212 85.4033 241.732 85.7884 241.046 86.0823ZM243.508 84.8477L240.26 77.2704L241.624 76.6858L242.854 79.5544L243.048 79.4708C243.057 79.3306 243.097 79.1765 243.171 79.0085C243.244 78.8404 243.366 78.677 243.537 78.5182C243.712 78.3492 243.959 78.1966 244.276 78.0605C244.695 77.8811 245.101 77.8223 245.495 77.8841C245.893 77.9356 246.251 78.0939 246.57 78.3588C246.885 78.6165 247.139 78.9691 247.33 79.4165L248.704 82.6207L247.34 83.2053L246.013 80.1094C245.84 79.7053 245.609 79.4455 245.32 79.33C245.039 79.2115 244.714 79.2311 244.346 79.3888C243.927 79.5682 243.663 79.8481 243.553 80.2286C243.439 80.6018 243.489 81.0374 243.703 81.5353L244.872 84.2631L243.508 84.8477Z" fill="white"/>
<path fill-rule="evenodd" clip-rule="evenodd" d="M209.444 87.3072C207.914 83.7359 209.538 79.6157 213.07 78.1018C216.602 76.5878 220.705 78.2532 222.236 81.8244C222.915 83.3999 222.997 85.169 222.466 86.8005C222.46 86.8173 222.455 86.8337 222.45 86.8499C222.44 86.8802 222.43 86.9099 222.418 86.9407C222.291 87.272 222.193 87.3141 221.99 87.401C221.787 87.488 221.659 87.543 221.358 87.392C220.055 86.7389 218.529 86.8655 217.09 87.4823C215.651 88.0991 214.509 89.1137 214.082 90.5104C213.984 90.8327 213.853 90.889 213.653 90.9747C213.453 91.0603 213.376 91.0931 213.024 90.9671C212.995 90.9552 212.966 90.9415 212.937 90.9275C212.921 90.9201 212.906 90.9126 212.889 90.9053C211.342 90.1648 210.117 88.8856 209.444 87.3072ZM214.958 81.3301L214.227 79.6246L213.374 79.9901L214.105 81.6956L214.958 81.3301ZM211.304 86.9343L213.009 86.2033L212.644 85.3505L210.938 86.0816L211.304 86.9343ZM211.245 82.172L210.901 83.0332L212.624 83.7225L212.968 82.8609L211.245 82.172ZM217.275 79.5873L216.586 81.3102L217.448 81.6548L218.137 79.9318L217.275 79.5873ZM218.979 83.6447L220.684 82.9136L220.319 82.0608L218.613 82.7919L218.979 83.6447ZM218.292 83.6625C218.292 83.6625 215.15 83.7204 215.066 84.5621C215.036 84.8612 215.173 85.181 215.409 85.3635C216.079 85.8805 218.292 83.6625 218.292 83.6625Z" fill="#00674B"/>
<path d="M145.378 3.43468C144.1 3.53178 142.977 3.6152 142.09 3.67742L136.376 4.75165C132.339 5.51065 128.23 6.29359 124.598 8.21503C120.982 10.1296 118.03 13.0699 115.239 16.0601C110.373 21.2726 105.763 26.4167 104.618 33.379C104.524 34.0256 104.668 34.6843 105.024 35.2323C105.379 35.7804 105.922 36.1804 106.551 36.3576C107.088 36.4745 107.637 36.5336 108.187 36.534C112.084 36.6134 115.982 36.6099 119.879 36.5238C138.923 36.7494 141.638 33.2902 158.467 24.9678C160.34 24.0413 161.718 19.9324 161.314 16.8006C161.05 14.7493 166.528 7.51551 167.857 4.12257C167.945 3.89778 167.977 3.65471 167.95 3.41465C167.923 3.17459 167.837 2.94486 167.701 2.74558C167.564 2.5463 167.381 2.38354 167.167 2.27158C166.952 2.15961 166.714 2.10185 166.473 2.10335C162.399 2.12249 151.875 2.9444 145.378 3.43468Z" fill="#3F88C9"/>
<path d="M155.239 90.1922C155.259 90.4657 155.276 90.7392 155.294 91.0127L158.098 89.8503C156.212 87.4263 156.395 83.7502 156.646 80.8708C156.96 77.6839 157.943 74.5991 159.53 71.8175C159.855 71.2366 160.218 70.6775 160.616 70.1436C160.771 69.935 160.451 70.3316 160.742 69.989C160.868 69.8406 160.993 69.6909 161.122 69.5446C161.415 69.2163 161.721 68.9013 162.042 68.5996C163.44 67.3131 165.069 66.3019 166.842 65.6189C170.019 64.4836 173.387 63.9804 176.757 64.1379C178.87 64.185 178.869 60.9029 176.757 60.8557C170.817 60.7237 164.609 61.934 160.049 65.9841C156.092 69.4974 154.037 75.021 153.44 80.1508C152.961 84.2829 153.135 88.772 155.78 92.1738C156.65 93.2918 158.674 92.357 158.584 91.0114C158.565 90.7378 158.548 90.4643 158.529 90.1908C158.519 89.7587 158.343 89.347 158.038 89.0414C157.732 88.7357 157.32 88.5596 156.888 88.5497C156.454 88.5535 156.039 88.7276 155.732 89.0345C155.425 89.3415 155.251 89.7567 155.247 90.1908L155.239 90.1922Z" fill="#211715"/>
<path d="M166.505 79.653C166.312 79.8061 166.791 79.4636 166.847 79.4259C167.057 79.2926 167.272 79.1675 167.491 79.0492C167.92 78.8155 168.362 78.6055 168.815 78.4201C169.973 77.9551 171.168 77.5857 172.387 77.3158C173.47 77.0543 174.579 76.9094 175.693 76.8836C176.64 76.871 177.58 77.0462 178.459 77.3992C180.43 78.0638 181.399 79.1996 182.333 81.1299C183.763 84.0921 184.555 87.3196 185.96 90.2968C187.522 93.6043 189.913 96.4324 192.422 99.0588C193.884 100.589 196.202 98.2663 194.742 96.738C192.334 94.3784 190.325 91.6438 188.793 88.6406C187.322 85.5185 186.537 82.1119 184.948 79.0382C183.868 76.8334 181.96 75.1452 179.64 74.342C177.203 73.5235 174.584 73.4144 172.089 74.0275C169.314 74.5854 166.418 75.555 164.18 77.3322C163.874 77.6412 163.703 78.0581 163.703 78.4926C163.703 78.927 163.874 79.344 164.18 79.653C164.492 79.9513 164.908 80.1178 165.34 80.1178C165.772 80.1178 166.188 79.9513 166.501 79.653H166.505Z" fill="#211715"/>
<path d="M182.679 101.753C186.476 104.715 191.684 105.377 196.36 105.372C198.472 105.372 198.476 102.09 196.36 102.09C194.075 102.126 191.794 101.882 189.568 101.365C189.084 101.246 188.605 101.109 188.132 100.954C187.906 100.881 187.681 100.803 187.459 100.72C187.369 100.687 186.88 100.491 187.056 100.567C186.637 100.385 186.229 100.179 185.833 99.9512C185.657 99.8509 185.485 99.7453 185.316 99.6346C185.227 99.5758 184.755 99.2339 185.004 99.4294C184.689 99.1344 184.274 98.9702 183.843 98.9702C183.412 98.9702 182.997 99.1344 182.683 99.4294C182.378 99.7387 182.207 100.156 182.207 100.59C182.207 101.024 182.378 101.441 182.683 101.75L182.679 101.753Z" fill="#211715"/>
<path d="M179.24 109.737C185.833 111.782 192.737 112.635 199.629 112.258C200.061 112.248 200.473 112.072 200.778 111.766C201.084 111.461 201.26 111.049 201.27 110.617C201.266 110.183 201.092 109.767 200.785 109.461C200.478 109.154 200.063 108.979 199.629 108.976C193.032 109.345 186.422 108.532 180.112 106.573C178.083 105.972 177.216 109.138 179.24 109.737Z" fill="#211715"/>
<path d="M176.754 62.505C164.524 62.1836 159.788 67.8836 158.043 71.1159C156.163 74.4162 155.096 78.1161 154.929 81.9102C154.751 85.5342 154.987 89.5186 157.89 91.9994C158.252 90.0331 158.793 88.1042 159.509 86.2372C160.651 83.1401 162.678 80.4468 165.338 78.4912C167.81 76.4741 174.553 74.6176 177.637 75.4408C181.031 76.3469 182.373 77.3507 183.86 80.5323C185.346 83.714 186.167 87.1869 187.791 90.3016C189.351 93.0915 191.298 95.6468 193.573 97.8916C187.979 86.1701 181.935 73.5727 176.754 62.505Z" fill="#F49200"/>
<path d="M196.356 103.721C191.001 103.743 186.373 102.599 183.838 100.593L179.674 108.157C186.119 110.188 192.882 111.02 199.627 110.613C198.573 108.384 197.483 106.087 196.356 103.721Z" fill="#211715"/>
<path d="M270.385 92.6907C264.921 81.0267 259.32 69.4283 253.783 57.7992C252.36 54.8103 250.858 51.8434 249.521 48.8149C249.373 48.4778 249.28 48.3656 249.528 48.1072C249.694 48.0027 249.869 47.9124 250.05 47.8371C250.379 47.6305 250.673 47.3734 250.922 47.0753C252.016 45.7625 251.894 44.2335 251.212 42.7736C249.639 39.4039 248.004 36.0609 246.406 32.7021C246.046 31.9472 245.687 31.1921 245.329 30.4367C245.038 29.6468 244.581 28.9285 243.988 28.3307C243.428 27.8676 242.745 27.578 242.022 27.4975C241.3 27.417 240.57 27.549 239.921 27.8773C234.55 30.1584 229.198 32.4867 223.841 34.7986C215.61 38.3516 207.378 41.9023 199.147 45.4506C192.086 48.4935 185.02 51.525 177.95 54.545C176.236 55.2739 174.257 55.8086 173.693 57.8347C173.265 59.363 174.125 60.7326 174.747 62.066C175.35 63.3556 175.954 64.6443 176.559 65.9321C179.16 71.4689 181.782 76.9964 184.422 82.5146C189.586 93.3403 194.788 104.148 199.893 115.001C200.987 117.326 202.073 119.651 203.15 121.976C203.558 123.05 204.057 124.088 204.64 125.078C205.091 125.72 205.739 126.197 206.486 126.438C207.232 126.678 208.037 126.669 208.778 126.412C210.406 125.831 211.992 125.057 213.58 124.379C215.375 123.614 217.17 122.845 218.963 122.075C227.98 118.2 236.989 114.306 245.989 110.392C253.842 106.99 261.691 103.575 269.569 100.229C270.216 99.9855 270.782 99.5649 271.201 99.0152C271.621 98.4655 271.877 97.8088 271.941 97.1203C272.068 95.5756 271.019 94.0337 270.386 92.6825C270.164 92.3093 269.804 92.0385 269.384 91.9283C268.964 91.8182 268.517 91.8776 268.14 92.0938C267.772 92.32 267.505 92.6799 267.395 93.0983C267.285 93.5167 267.341 93.9613 267.552 94.3393C267.877 95.0347 268.223 95.724 268.527 96.429C268.672 96.7633 268.778 96.8905 268.502 97.1292C268.197 97.3169 267.868 97.4619 267.523 97.56L266.367 98.0523C264.73 98.7511 263.094 99.4527 261.458 100.157C257.475 101.87 253.493 103.589 249.514 105.314C240.619 109.167 231.723 113.02 222.827 116.871C219.117 118.471 215.405 120.064 211.69 121.651C210.94 121.97 210.191 122.289 209.441 122.608L208.901 122.837L208.708 122.918C208.379 123.114 208.022 123.26 207.651 123.351C207.048 123.36 206.618 121.71 206.39 121.215C205.91 120.174 205.428 119.134 204.944 118.095C200.225 107.958 195.381 97.88 190.56 87.7914C187.974 82.3804 185.395 76.9666 182.822 71.5501C181.578 68.9257 180.339 66.2993 179.103 63.6708C178.52 62.4291 177.938 61.1864 177.358 59.9428C177.231 59.6693 176.765 58.9855 176.854 58.712C176.943 58.4385 177.265 58.379 177.524 58.2675C183.764 55.5755 190.023 52.9285 196.265 50.2419C204.311 46.7774 212.355 43.3083 220.396 39.8347C226.588 37.1625 232.781 34.4927 238.976 31.8255C239.8 31.4713 240.621 31.1041 241.453 30.7657C241.61 30.7014 241.663 30.7568 241.525 30.7486C241.612 30.7533 241.731 30.6945 241.799 30.7718C242.18 31.3192 242.486 31.9159 242.707 32.5455C243.452 34.1142 244.199 35.6818 244.946 37.2486C245.698 38.8273 246.452 40.4061 247.207 41.9852C247.572 42.7497 247.949 43.5087 248.301 44.278C248.469 44.6424 248.626 44.8106 248.316 45.0677C247.99 45.3412 247.517 45.4732 247.184 45.7953C246.607 46.3598 246.235 47.1015 246.127 47.902C245.912 49.457 246.879 50.8888 247.519 52.2413C252.986 63.7973 258.538 75.3075 264.014 86.8566C265.2 89.3511 266.377 91.8483 267.547 94.3482C267.769 94.7213 268.129 94.992 268.549 95.1022C268.969 95.2123 269.416 95.153 269.792 94.937C270.162 94.7111 270.429 94.3514 270.54 93.9329C270.65 93.5144 270.595 93.0694 270.385 92.6907Z" fill="#211715"/>
<path d="M189.03 74.2976C195.666 71.5337 202.253 68.6488 208.848 65.7892C216.952 62.275 225.056 58.759 233.158 55.2411C234.912 54.4831 236.666 53.7263 238.42 52.971C239.13 52.666 239.84 52.3619 240.55 52.0588L241.468 51.6677L241.888 51.4892C242.005 51.44 242.522 51.2219 242.013 51.4366C242.425 51.3084 242.773 51.0285 242.986 50.6535C243.198 50.2785 243.261 49.8365 243.16 49.4173C243.042 48.9991 242.764 48.6442 242.386 48.4296C242.008 48.2151 241.561 48.1582 241.141 48.2713C234.65 51.0065 228.198 53.836 221.737 56.6409C213.599 60.1747 205.458 63.7032 197.314 67.2266C195.52 68.0015 193.724 68.7724 191.926 69.5391C191.19 69.8528 190.454 70.1657 189.717 70.478L189.495 70.5716C189.302 70.6537 189.794 70.4458 189.51 70.5655L189.047 70.7604C188.752 70.8848 188.455 71.0088 188.158 71.1323C187.747 71.26 187.399 71.5398 187.186 71.9148C186.973 72.2898 186.911 72.7318 187.012 73.1509C187.13 73.5692 187.408 73.9241 187.786 74.1388C188.164 74.3535 188.611 74.4105 189.031 74.2976H189.03Z" fill="#00674B"/>
<path d="M197.164 66.0182C198.117 68.1113 199.053 70.1975 200.173 72.2092C200.396 72.5817 200.756 72.852 201.176 72.9621C201.596 73.0722 202.042 73.0132 202.419 72.798C202.788 72.5722 203.055 72.2123 203.165 71.7937C203.275 71.3751 203.218 70.9303 203.007 70.5524C201.888 68.5407 200.952 66.4545 199.999 64.3614C199.782 63.993 199.43 63.7233 199.018 63.6092C198.703 63.5221 198.37 63.5309 198.06 63.6345C197.75 63.7381 197.479 63.9317 197.28 64.1906C197.08 64.4495 196.963 64.7619 196.943 65.0879C196.922 65.4138 196.999 65.7385 197.164 66.0203V66.0182Z" fill="#00674B"/>
<path d="M228.08 52.9627C228.984 54.9457 229.873 56.9287 230.934 58.8371C231.154 59.213 231.514 59.4862 231.935 59.5967C232.356 59.7072 232.804 59.6458 233.18 59.4262C233.556 59.2066 233.829 58.8467 233.939 58.4256C234.05 58.0046 233.988 57.5569 233.769 57.181C232.706 55.2719 231.818 53.2923 230.915 51.3059C230.697 50.9375 230.346 50.6678 229.933 50.5537C229.619 50.4668 229.285 50.4758 228.976 50.5794C228.666 50.6831 228.394 50.8767 228.195 51.1356C227.996 51.3944 227.879 51.7068 227.859 52.0326C227.838 52.3585 227.915 52.683 228.08 52.9648V52.9627Z" fill="#00674B"/>
<path d="M132.52 66.4107C134.366 56.5847 134.812 45.3412 131.904 35.9391C133.583 35.7113 135.246 35.3779 136.882 34.9408C138.585 45.0171 137.861 63.6195 134.236 69.617L131.768 70.0272C132.037 68.8484 132.287 67.6429 132.52 66.4107Z" fill="#211715"/>
<path d="M145.378 3.43468C144.1 3.53178 142.977 3.6152 142.09 3.67742L136.376 4.75165C132.339 5.51065 128.23 6.29359 124.598 8.21503C120.982 10.1296 118.03 13.0699 115.239 16.0601C110.373 21.2726 105.763 26.4167 104.618 33.379C104.524 34.0256 104.668 34.6843 105.024 35.2323C105.379 35.7804 105.922 36.1804 106.551 36.3576C107.088 36.4745 107.637 36.5336 108.187 36.534C112.084 36.6134 115.982 36.6099 119.879 36.5238C138.923 36.7494 141.638 33.2902 158.467 24.9678C160.34 24.0413 161.718 19.9324 161.314 16.8006C161.05 14.7493 166.528 7.51551 167.857 4.12257C167.945 3.89778 167.977 3.65471 167.95 3.41465C167.923 3.17459 167.837 2.94486 167.701 2.74558C167.564 2.5463 167.381 2.38354 167.167 2.27158C166.952 2.15961 166.714 2.10185 166.473 2.10335C162.399 2.12249 151.875 2.9444 145.378 3.43468Z" fill="#F49200"/>
<path d="M135.297 35.3785C135.981 39.9984 136.248 44.6703 136.096 49.338C136.087 54.1192 135.599 58.8874 134.638 63.571C134.415 64.5952 134.136 65.6064 133.802 66.6002C133.725 66.8272 133.642 67.0529 133.558 67.2771C133.521 67.3736 133.483 67.4686 133.445 67.5636C133.532 67.3483 133.456 67.5411 133.406 67.6491C133.23 68.0399 133.033 68.4211 132.816 68.791L133.797 68.0389L131.328 68.4491L133.348 70.4677C135.927 59.1572 136.92 46.7506 133.484 35.5084C132.869 33.494 129.7 34.3535 130.319 36.3809C133.585 47.0671 132.635 58.8419 130.182 69.5952C130.113 69.874 130.117 70.1661 130.193 70.4431C130.27 70.72 130.417 70.9723 130.62 71.1756C130.824 71.3788 131.076 71.5259 131.353 71.6027C131.63 71.6795 131.922 71.6833 132.201 71.6137C132.976 71.4852 133.781 71.4086 134.544 71.2246C135.701 70.9443 136.144 69.5712 136.552 68.5777C137.387 66.4078 137.975 64.1508 138.304 61.8492C139.244 55.891 139.59 49.854 139.337 43.8274C139.248 40.7045 138.956 37.5908 138.462 34.506C138.344 34.0882 138.065 33.7338 137.687 33.5194C137.31 33.305 136.863 33.2477 136.443 33.36C136.029 33.4842 135.679 33.7634 135.465 34.1394C135.252 34.5154 135.191 34.9592 135.297 35.3785Z" fill="#211715"/>
<path d="M145.377 1.79361C143.704 1.88118 142.038 2.06153 140.385 2.3338C138.702 2.65016 137.018 2.96653 135.335 3.28289C131.894 3.83009 128.525 4.76319 125.293 6.06454C119.402 8.6342 114.878 13.7913 110.753 18.5587C108.674 20.8623 106.871 23.4006 105.38 26.122C104.666 27.4832 104.08 28.908 103.63 30.3779C103.199 31.8057 102.694 33.4652 103.111 34.9456C104.163 38.688 108.482 38.1957 111.526 38.2203C115.112 38.2497 118.699 38.1909 122.285 38.1704C127.326 38.1416 132.444 37.8346 137.329 36.5156C141.407 35.2958 145.346 33.6511 149.082 31.6087C151.526 30.3567 153.956 29.0787 156.404 27.8322C157.649 27.2004 159.115 26.6937 160.171 25.759C161.125 24.8159 161.836 23.6547 162.242 22.3756C162.736 21.0155 162.999 19.5827 163.021 18.1361C163.073 17.6203 163.048 17.0995 162.945 16.5914C162.977 16.6865 162.854 16.8964 162.963 16.5292C163.016 16.3487 163.067 16.1709 163.129 15.9938C163.241 15.6885 163.374 15.3914 163.528 15.1049C163.765 14.6262 164.021 14.1606 164.28 13.697C164.858 12.6713 165.472 11.6688 166.085 10.6644C167.327 8.81042 168.412 6.85518 169.326 4.81936C169.617 4.12785 169.652 3.35586 169.427 2.6406C169.201 1.92534 168.73 1.31316 168.096 0.912888C167.134 0.313208 165.935 0.458854 164.856 0.495779C159.615 0.673563 154.38 1.11119 149.153 1.50368L145.373 1.7895C144.941 1.79992 144.529 1.97616 144.224 2.28169C143.918 2.58723 143.742 2.99862 143.732 3.43059C143.735 3.86478 143.909 4.28023 144.216 4.58726C144.523 4.89429 144.939 5.06828 145.373 5.07168C150.418 4.69081 155.463 4.29353 160.514 3.99266C161.624 3.92428 162.735 3.86548 163.845 3.81693C164.296 3.79778 164.746 3.78 165.196 3.76701C165.459 3.75881 166.179 3.87847 166.401 3.74308C166.435 3.72325 166.494 3.72393 166.412 3.74855C165.998 3.87163 166.703 3.09827 166.27 3.68496C166.258 3.7 166.176 3.92155 166.243 3.75334C166.32 3.56461 166.193 3.86206 166.175 3.9024C166.065 4.126 165.959 4.35097 165.845 4.57251C165.395 5.44776 164.894 6.29702 164.388 7.1415C163.261 9.02396 162.063 10.8702 161.027 12.8067C160.579 13.606 160.201 14.4435 159.9 15.3093C159.702 16.1121 159.648 16.9437 159.74 17.7655C159.754 18.9602 159.558 20.1482 159.16 21.2747C158.995 21.7556 158.777 22.2166 158.51 22.6491C158.441 22.7619 158.255 23.0279 158.236 23.0505C158.157 23.1447 158.072 23.2342 157.982 23.3185C157.607 23.6727 158.073 23.2836 157.845 23.4313C156.6 24.1448 155.32 24.7937 154.008 25.3754C152.827 25.9785 151.648 26.5868 150.471 27.2004C146.847 29.0808 143.177 31.0631 139.481 32.3972C135.684 33.7237 131.719 34.5041 127.703 34.7152C124.871 34.8984 122.045 34.841 119.21 34.8971C115.759 34.965 112.306 34.968 108.853 34.906C107.974 34.8902 106.485 35.1111 106.248 33.9651C106.219 33.4488 106.295 32.9321 106.473 32.4464C106.641 31.737 106.846 31.0369 107.088 30.3492C108.044 27.8227 109.383 25.4586 111.059 23.3404C112.823 21.096 114.704 18.9463 116.695 16.9005C118.642 14.7061 120.818 12.726 123.186 10.994C128.472 7.35689 135.098 6.65533 141.254 5.49904C142.619 5.28198 143.995 5.14068 145.375 5.07578C145.807 5.06553 146.219 4.88934 146.525 4.58377C146.83 4.2782 147.006 3.86671 147.017 3.43469C147.013 3.00073 146.839 2.58549 146.533 2.2785C146.226 1.97151 145.811 1.79736 145.377 1.79361Z" fill="#211715"/>
<path d="M120.442 23.8C121.764 22.3026 123.221 20.931 124.796 19.7027C124.998 19.5391 125.2 19.377 125.404 19.2165C125.441 19.1878 125.772 18.928 125.591 19.0695C125.409 19.2111 125.789 18.9184 125.824 18.8917C126.204 18.6032 126.59 18.3208 126.98 18.0445C127.627 17.5764 128.301 17.1467 128.998 16.7576C129.371 16.5352 129.642 16.1753 129.752 15.7553C129.862 15.3353 129.803 14.8888 129.587 14.5121C129.361 14.1431 129.001 13.8758 128.583 13.766C128.164 13.6563 127.72 13.7127 127.342 13.9233C125.654 14.9021 124.059 16.0322 122.577 17.2999C120.964 18.5502 119.472 19.9495 118.122 21.4792C117.818 21.7878 117.649 22.2039 117.65 22.6368C117.652 23.0697 117.825 23.4844 118.131 23.7905C118.437 24.0967 118.852 24.2694 119.285 24.2712C119.718 24.273 120.134 24.1036 120.442 23.8Z" fill="#211715"/>
<path d="M134.324 14.6235C135.158 14.3372 136.018 14.1336 136.891 14.0156L136.455 14.0744C136.732 14.038 137.01 14.0102 137.289 13.991C137.722 13.9814 138.136 13.8108 138.451 13.5124C138.759 13.2046 138.932 12.7872 138.932 12.352C138.932 11.9168 138.759 11.4994 138.451 11.1916C138.299 11.0387 138.117 10.9176 137.918 10.8354C137.718 10.7533 137.504 10.7116 137.289 10.713C135.982 10.796 134.692 11.0488 133.451 11.4651C133.044 11.588 132.695 11.8555 132.471 12.2173C132.362 12.4034 132.291 12.6091 132.261 12.8227C132.232 13.0362 132.245 13.2535 132.3 13.462C132.354 13.6706 132.45 13.8663 132.58 14.038C132.71 14.2097 132.873 14.3541 133.059 14.4628C133.248 14.5736 133.458 14.6454 133.675 14.6738C133.892 14.7022 134.113 14.6868 134.324 14.6283V14.6235Z" fill="#211715"/>
</g>
<defs>
<clipPath id="clip0_844_3953">
<rect width="304.421" height="304.421" fill="white" transform="translate(0.248047 0.457489)"/>
</clipPath>
</defs>
</svg>
