<svg width="283" height="291" viewBox="0 0 283 291" fill="none" xmlns="http://www.w3.org/2000/svg">
<g clip-path="url(#clip0_844_3855)">
<path d="M121.334 162.264C124.647 172.541 128.524 182.614 132.947 192.435C133.828 194.17 134.481 196.019 134.888 197.933C135.256 200.177 134.915 202.472 134.572 204.72C131.977 221.825 129.382 238.931 126.786 256.036C123.758 255.21 115.004 252.571 111.833 251.745C112.207 244.393 113.611 228.533 114.83 219.629C115.303 216.175 116.028 212.027 115.392 208.601C114.893 205.428 113.821 202.381 112.23 199.619C104.873 186.56 94.8381 173.097 87.4804 160.04" fill="#3F88C9"/>
<path d="M180.882 32.8316C180.66 34.7607 180.235 36.6589 179.613 38.4921C178.739 41.9594 177.516 46.7691 180.08 49.3908C180.607 49.8901 180.958 50.5563 181.077 51.2844C181.322 53.2165 179.68 53.5541 178.515 54.2724C177.778 54.7397 177.164 55.386 176.726 56.1549C176.104 57.9832 174.405 62.008 172.626 63.8984C171.486 65.2226 169.894 66.0388 168.183 66.1753C165.393 66.3666 161.65 65.2435 158.724 64.6349C157.038 64.345 155.65 64.2177 154.127 64.8589C153.733 65.0255 153.359 65.238 153.011 65.4923C151.49 66.5971 150.458 68.4097 149.529 70.1283C148.312 72.3758 146.921 74.6756 145.704 76.9231L145.592 77.1294C145.466 76.7324 145.334 76.3374 145.202 75.9436C143.575 71.0875 139.954 63.3865 137.002 57.8526C137.155 57.3824 137.174 56.945 137.313 56.4291C138.154 53.3602 136.289 49.906 135.138 47.0721C133.232 41.3812 132.794 35.276 133.867 29.3572C136.15 17.6364 143.123 12.478 148.125 10.8652C155.058 8.55194 162.594 9.15008 169.103 12.5302C174.914 15.4555 182.071 21.8807 180.882 32.8375" fill="#FFFAE2"/>
<path d="M135.356 54.8626C138.447 60.2313 143.259 70.1244 145.205 75.939C145.862 77.6376 146.283 79.4242 146.453 81.245C146.461 82.8967 146.264 84.5426 145.866 86.1423L142.241 103.817C140.742 110.492 133.998 123.497 132.71 126.917C132.919 128.071 129.519 135.139 126.399 136.835C111.908 141.322 94.927 145.681 79.8007 145.82C75.6795 146.016 76.4288 140.984 77.6465 135.856C78.3022 131.31 81.5065 122.429 82.0022 121.346L84.9486 116.705C87.8993 110.175 88.6612 107.546 92.5642 98.7073C100.434 80.8852 113.578 64.7289 135.356 54.8626Z" fill="white"/>
<path d="M133.662 40.7162C133.081 36.9447 133.152 33.0969 133.87 29.3507C136.146 17.6326 143.121 12.4741 148.123 10.8633C155.057 8.54741 162.595 9.14561 169.105 12.5283C174.62 15.3015 181.351 21.231 181.001 31.1979C177.217 30.8329 173.321 30.4529 173.321 30.4529C168.936 30.1825 165.571 31.463 162.486 33.1953C159.591 34.8193 157.663 39.1732 155.579 38.9349C155.416 37.4189 154.721 36.0172 153.625 34.9949C153.257 34.6842 152.825 34.4658 152.361 34.3567C151.898 34.2476 151.417 34.2508 150.955 34.3661C149.578 34.7716 148.798 36.2871 148.479 37.7289C148.171 38.9266 148.099 40.1757 148.265 41.4028C148.431 42.6299 148.833 43.8103 149.447 44.8749C146.476 47.6069 142.152 51.5025 137.371 53.2616C136.985 51.1199 135.902 48.9553 135.139 47.0702C134.474 44.9991 133.98 42.8735 133.662 40.7162Z" fill="#393939"/>
<path d="M149.415 46.9918C146.087 49.9922 142.56 52.7947 138.434 54.5146C138.046 54.6225 137.632 54.5681 137.283 54.3632C136.933 54.1584 136.676 53.8195 136.567 53.4202C136.47 53.0199 136.526 52.5962 136.723 52.2372C136.92 51.8782 137.244 51.6116 137.627 51.4927C139.48 50.6654 141.239 49.6312 142.875 48.4087C144.4 47.2782 145.867 46.0655 147.269 44.7756C147.558 44.4908 147.942 44.332 148.342 44.332C148.741 44.332 149.126 44.4908 149.415 44.7756C149.696 45.0713 149.854 45.4692 149.854 45.8837C149.854 46.2982 149.697 46.6961 149.415 46.9918Z" fill="#211715"/>
<path d="M173.321 32.02C169.764 31.8434 166.233 32.74 163.161 34.6005C160.662 36.0781 159.408 39.5761 156.53 40.406C154.646 40.9493 153.841 37.9247 155.723 37.3834C156.116 37.2698 155.499 37.5343 155.885 37.3305C156.023 37.2566 156.155 37.1715 156.28 37.0759C156.28 37.0759 156.642 36.7494 156.772 36.6188C157.314 36.0755 157.806 35.482 158.311 34.9035C159.413 33.5526 160.743 32.4198 162.237 31.5603C165.63 29.6517 169.461 28.7286 173.321 28.889C175.264 28.9948 175.276 32.1297 173.321 32.0232V32.02Z" fill="#211715"/>
<path d="M153.738 37.8085C153.372 36.8035 152.458 35.636 151.452 35.8496C151.245 35.9085 151.052 36.0121 150.886 36.1534C150.721 36.2948 150.586 36.4707 150.491 36.6697C150.171 37.2541 149.957 37.8938 149.859 38.5574C149.316 41.4265 150.309 43.9006 152.213 46.1103C152.489 46.4087 152.643 46.8055 152.643 47.2183C152.643 47.6311 152.489 48.028 152.213 48.3264C151.926 48.6168 151.541 48.7795 151.14 48.7795C150.738 48.7795 150.353 48.6168 150.067 48.3264C148.611 46.7557 147.549 44.8411 146.974 42.7494C146.499 40.7208 146.58 38.5958 147.206 36.6116C147.882 34.5528 149.426 32.6611 151.7 32.6938C154.191 32.7277 155.849 34.7408 156.665 36.9714C156.769 37.3721 156.716 37.7988 156.517 38.1595C156.319 38.5202 155.992 38.786 155.605 38.8996C155.218 39.001 154.808 38.9442 154.46 38.7409C154.112 38.5377 153.853 38.2036 153.738 37.8085Z" fill="#211715"/>
<path d="M182.4 32.8316C182.102 34.9596 181.642 37.0602 181.025 39.1138C180.589 40.6037 180.284 42.1313 180.115 43.678C179.992 45.0903 179.974 46.7587 180.856 47.9445C181.37 48.5056 181.821 49.1251 182.201 49.791C182.631 50.7004 182.727 51.7403 182.47 52.717C182 54.3409 180.548 54.847 179.281 55.624C178.033 56.3893 177.799 57.69 177.239 59.0063C175.856 62.2562 174.011 65.743 170.669 67.1612C168.798 67.9559 166.786 67.809 164.825 67.5184C162.632 67.1919 160.489 66.6043 158.321 66.1439C158.129 66.0892 157.949 65.9959 157.792 65.8695C157.635 65.743 157.503 65.5858 157.405 65.4068C157.306 65.2278 157.243 65.0305 157.218 64.8263C157.194 64.622 157.208 64.4148 157.261 64.2164C157.314 64.0179 157.405 63.8322 157.527 63.6698C157.65 63.5075 157.802 63.3716 157.975 63.27C158.148 63.1683 158.339 63.103 158.537 63.0776C158.735 63.0522 158.936 63.0673 159.128 63.122C160.903 63.4968 162.66 63.9617 164.443 64.2973C165.869 64.5644 167.485 64.855 168.915 64.4782C171.876 63.6946 173.397 60.2529 174.532 57.6279C175.11 56.2894 175.469 54.9828 176.51 53.9139C177.055 53.3718 177.679 52.9222 178.36 52.5818C178.827 52.4094 179.252 52.1362 179.609 51.7806C179.482 51.9537 179.599 51.6651 179.582 51.5194C179.535 51.2333 179.415 50.9653 179.234 50.7437C178.74 50.2062 178.299 49.6193 177.918 48.9918C177.237 47.5603 176.932 45.9694 177.033 44.378C177.188 40.3864 178.913 36.7618 179.362 32.8355C179.374 32.4238 179.538 32.0323 179.82 31.741C180.102 31.4497 180.481 31.2807 180.88 31.2684C181.281 31.2709 181.666 31.4369 181.95 31.7302C182.234 32.0235 182.395 32.4207 182.397 32.8355L182.4 32.8316Z" fill="#211715"/>
<path d="M179.366 32.8329C179.755 29.7246 179.333 26.5653 178.143 23.6822C177.062 21.2819 175.5 19.1463 173.559 17.417C170.457 14.7095 166.786 12.786 162.839 11.7994C158.891 10.8127 154.775 10.7899 150.817 11.7329C149.966 11.9341 149.119 12.1678 148.288 12.4512C148.085 12.5209 147.883 12.5944 147.682 12.6719C147.6 12.7039 147.518 12.7372 147.435 12.7699C147.353 12.8025 147.269 12.8384 147.186 12.8737C147.318 12.8149 147.335 12.8084 147.234 12.8528C145.355 13.6947 143.628 14.8623 142.129 16.305C137.777 20.4892 135.427 26.6434 134.911 32.6879C134.586 37.1958 135.096 41.7265 136.414 46.0371C136.993 48.0431 138.089 49.8583 138.627 51.8916C139.157 53.9889 139.101 56.1983 138.467 58.2646C137.932 60.2006 135.003 59.3746 135.54 57.4314C136.094 55.6436 136.069 53.7181 135.468 51.9465C134.875 50.1103 133.938 48.4172 133.393 46.5654C132.144 42.4014 131.609 38.0438 131.813 33.6896C132.192 26.791 134.595 19.7161 139.349 14.7327C148.415 5.23137 164.463 6.21996 174.26 13.9831C176.865 15.9793 178.999 18.5585 180.502 21.5274C182.172 25.0302 182.833 28.9553 182.404 32.8348C182.393 33.2468 182.229 33.6386 181.947 33.93C181.665 34.2214 181.286 34.3903 180.887 34.402C180.485 34.3994 180.1 34.2334 179.816 33.9401C179.532 33.6468 179.372 33.2497 179.369 32.8348L179.366 32.8329Z" fill="#211715"/>
<path d="M124.209 256.165C123.807 260.366 127.174 264.728 130.411 266.337C133.649 267.945 137.268 269.001 139.852 271.579C141.615 273.335 142.648 276.556 140.833 278.256C139.491 279.513 137.408 279.183 135.64 278.775C128.35 277.09 121.816 276.062 114.523 274.378C112.752 273.969 109.979 272.705 109.251 270.988C108.567 269.006 108.635 266.83 109.441 264.897C110.59 262.371 111.184 257.883 111.889 254.026" fill="white"/>
<path d="M125.728 256.165C125.522 258.797 126.807 261.23 128.573 263.046C130.441 264.967 132.961 265.78 135.321 266.857C137.85 268.009 140.484 269.464 142.056 271.899C143.436 274.038 143.945 277.212 142.056 279.212C139.825 281.577 136.421 280.539 133.71 279.937C130.516 279.227 127.306 278.601 124.1 277.97C120.82 277.327 117.537 276.683 114.28 275.922C112.032 275.4 109.36 274.23 108.115 272.104C107.422 270.733 107.136 269.182 107.293 267.645C107.335 266.835 107.469 266.032 107.694 265.254C107.897 264.59 108.214 263.972 108.434 263.313C109.477 260.192 109.844 256.839 110.432 253.607C110.542 253.208 110.799 252.87 111.148 252.665C111.497 252.46 111.91 252.405 112.298 252.512C112.682 252.63 113.006 252.897 113.204 253.256C113.402 253.615 113.457 254.04 113.359 254.44C112.859 257.187 112.48 259.97 111.787 262.674C111.215 264.907 109.999 266.894 110.365 269.293C110.398 269.701 110.519 270.096 110.72 270.45C110.92 270.804 111.195 271.106 111.524 271.335C112.394 271.969 113.366 272.438 114.394 272.722C117.197 273.547 120.148 274.006 123.006 274.574C125.942 275.156 128.882 275.718 131.812 276.331C133.305 276.644 134.791 276.984 136.28 277.31C137.249 277.524 138.466 277.803 139.41 277.364C141.152 276.556 139.944 273.953 139.006 272.915C137.278 271.004 134.77 269.977 132.485 268.976C131.183 268.473 129.923 267.861 128.716 267.148C127.582 266.404 126.563 265.489 125.693 264.432C123.815 262.147 122.456 259.221 122.697 256.16C122.706 255.748 122.869 255.355 123.152 255.063C123.434 254.771 123.815 254.603 124.214 254.593C124.615 254.596 125 254.762 125.284 255.056C125.567 255.349 125.728 255.746 125.731 256.16L125.728 256.165Z" fill="#211715"/>
<path d="M122.795 161.848C124.709 167.774 126.807 173.632 129.089 179.422C130.219 182.285 131.397 185.128 132.622 187.949C133.818 190.706 135.33 193.45 136.103 196.373C136.925 199.491 136.412 202.648 135.938 205.775L134.478 215.397L131.558 234.64L128.249 256.449C128.138 256.848 127.881 257.185 127.532 257.39C127.183 257.595 126.77 257.65 126.382 257.544C121.382 256.172 116.443 254.566 111.429 253.252C111.11 253.159 110.829 252.961 110.628 252.689C110.427 252.416 110.317 252.084 110.315 251.741C110.872 240.913 111.89 230.038 113.354 219.3C113.804 215.997 114.524 212.479 113.951 209.147C113.447 206.071 112.42 203.112 110.917 200.407C107.335 194.004 103.3 187.877 99.2892 181.757C94.778 174.875 90.2225 168.01 86.1665 160.827C85.1808 159.081 87.8022 157.502 88.7873 159.245C96.076 172.154 104.945 184.019 112.392 196.826C114.151 199.635 115.493 202.701 116.376 205.92C116.816 207.601 117.076 209.327 117.151 211.067C117.165 212.908 117.039 214.748 116.771 216.569C116.041 222.242 115.328 227.922 114.774 233.69C114.197 239.697 113.661 245.714 113.35 251.741L112.235 250.236C117.25 251.55 122.189 253.16 127.189 254.527L125.323 255.622L131.089 217.616L132.524 208.155C132.985 205.122 133.751 201.941 133.482 198.856C133.234 196.019 131.68 193.361 130.561 190.815C129.32 187.99 128.123 185.144 126.969 182.279C124.371 175.839 122.004 169.308 119.868 162.683C119.249 160.766 122.179 159.941 122.795 161.85V161.848Z" fill="#211715"/>
<path d="M146.408 82.8729C146.441 82.5053 146.46 82.1363 146.461 81.7668C147.893 85.3233 148.917 89.0406 149.512 92.843C149.962 95.9341 150.504 99.0632 151.843 101.866C153.009 104.305 154.733 106.402 156.396 108.509C160.194 113.315 163.766 118.299 167.113 123.462C164.378 126.116 162.523 127.659 160.222 130.72C160.151 130.647 160.082 130.575 160.012 130.501L156.054 126.33C153.715 120.414 148.712 114.737 144.405 109.287C143.525 108.177 142.629 107.067 141.813 105.906L145.866 86.1442C146.108 85.0655 146.289 83.9732 146.408 82.8729Z" fill="white"/>
<path d="M168.794 124.736C168.298 124.232 167.74 123.798 167.134 123.444C164.099 126.391 162.147 127.966 159.475 131.747C160.086 132.328 160.805 132.776 161.588 133.062C163.461 133.689 165.48 132.963 167.449 132.921C169.567 132.937 171.634 133.596 173.393 134.815C175.339 133.77 177.585 132.546 179.314 132.399C180.457 132.308 181.602 132.534 182.632 133.052C182.829 129.943 180.257 129.069 178.049 129.015C176.45 128.976 174.791 129.216 173.291 128.641C171.446 127.928 170.236 126.144 168.794 124.736Z" fill="white"/>
<path d="M147.926 81.3541C149.04 84.1779 149.922 87.0931 150.563 90.0692C151.164 93.0075 151.407 96.004 152.307 98.8764C153.197 101.717 154.858 104.092 156.669 106.386C158.6 108.833 160.505 111.299 162.343 113.821C164.45 116.713 166.479 119.662 168.428 122.67C168.596 122.97 168.663 123.318 168.62 123.661C168.577 124.004 168.427 124.323 168.191 124.569C165.785 126.899 163.339 129.135 161.299 131.828C161.014 132.119 160.628 132.283 160.226 132.283C159.825 132.283 159.439 132.119 159.153 131.828C158.878 131.529 158.725 131.132 158.725 130.72C158.725 130.307 158.878 129.91 159.153 129.611C161.194 126.919 163.639 124.683 166.045 122.353L165.807 124.252C162.348 118.924 158.646 113.783 154.702 108.828C152.797 106.419 150.998 103.989 149.864 101.083C148.752 98.2339 148.4 95.2191 147.886 92.2188C147.252 88.7841 146.286 85.4239 145.002 82.1886C144.898 81.7878 144.951 81.3608 145.15 81C145.348 80.6392 145.676 80.3735 146.062 80.2604C146.45 80.1598 146.861 80.2174 147.208 80.4214C147.556 80.6253 147.814 80.9599 147.929 81.3554L147.926 81.3541Z" fill="#211715"/>
<path d="M167.475 121.875C168.784 122.587 169.948 123.551 170.906 124.716C171.822 125.713 172.769 126.87 174.098 127.258C175.816 127.756 177.69 127.308 179.45 127.585C180.273 127.679 181.067 127.958 181.774 128.404C182.481 128.85 183.084 129.451 183.541 130.165C184.573 131.884 181.949 133.46 180.921 131.747C180.288 130.699 178.849 130.585 177.769 130.575C175.872 130.558 174.011 130.706 172.236 129.867C169.701 128.666 168.455 125.767 165.943 124.583C165.598 124.371 165.347 124.027 165.245 123.626C165.143 123.225 165.198 122.798 165.398 122.439C165.608 122.087 165.941 121.832 166.327 121.728C166.714 121.623 167.125 121.676 167.475 121.876V121.875Z" fill="#211715"/>
<path d="M121.539 242.974C121.539 209.841 95.8811 196.649 74.4207 196.649C52.9603 196.649 27.3023 210.588 27.3023 242.974C27.3023 275.36 52.9597 289.299 74.4207 289.299C95.8817 289.299 121.539 276.109 121.539 242.974Z" fill="#000705"/>
<path d="M112.67 242.974C112.67 216.077 91.8412 205.369 74.4179 205.369C56.9945 205.369 36.1658 216.684 36.1658 242.974C36.1658 269.265 57.0002 280.58 74.4198 280.58C91.8393 280.58 112.672 269.871 112.672 242.974" fill="white"/>
<path d="M111.153 242.974C111.132 234.536 108.855 226.049 103.487 219.621C98.8652 214.088 92.6241 210.444 85.8797 208.529C79.3887 206.681 72.5668 206.442 65.9697 207.833C59.035 209.33 52.4645 212.549 47.3779 217.662C41.735 223.471 38.3366 231.206 37.8193 239.417C37.1617 248.139 38.903 257.034 43.9244 264.199C48.081 270.13 54.3252 274.385 60.9501 276.702C67.3634 278.941 74.2019 279.564 80.8956 278.52C87.7828 277.418 94.476 274.705 99.7662 270.114C105.639 264.944 109.505 257.757 110.651 249.876C110.996 247.593 111.164 245.285 111.153 242.974C111.158 240.958 114.193 240.954 114.188 242.974C114.166 252.181 111.633 261.234 105.811 268.327C100.904 274.306 94.0328 278.34 86.77 280.418C79.7253 282.427 72.3181 282.674 65.1629 281.136C57.6204 279.59 50.6612 275.855 45.1011 270.369C38.8821 264.051 35.4906 255.566 34.7951 246.65C34.0744 237.412 35.9863 227.755 41.3075 220.166C45.923 213.579 52.5719 208.909 59.9789 206.281C66.9671 203.847 74.4235 203.203 81.7061 204.405C89.1287 205.52 96.1161 208.705 101.917 213.616C108.232 219.21 112.384 226.965 113.613 235.463C113.993 237.947 114.185 240.457 114.189 242.972C114.195 244.989 111.16 244.992 111.155 242.972L111.153 242.974Z" fill="#211715"/>
<path d="M69.317 234.414C66.3774 228.115 63.3182 221.877 60.1396 215.702C59.2235 213.921 61.8423 212.336 62.7604 214.12C65.9385 220.294 68.9977 226.532 71.9377 232.833C72.1303 233.194 72.1812 233.618 72.0799 234.017C71.9786 234.416 71.7328 234.759 71.3933 234.977C71.045 235.183 70.6321 235.24 70.2437 235.134C69.8553 235.029 69.5225 234.771 69.317 234.414Z" fill="#211715"/>
<path d="M70.9424 253.271C67.0799 259.209 63.4905 265.386 59.9663 271.542C58.973 273.277 56.3485 271.702 57.3455 269.96C60.8704 263.804 64.4592 257.627 68.3217 251.689C69.4054 250.023 72.0356 251.591 70.9424 253.271Z" fill="#211715"/>
<path d="M64.5892 248.266C59.0031 250.452 53.4992 252.944 48.0447 255.458C47.6945 255.655 47.2846 255.706 46.8987 255.602C46.5129 255.497 46.1803 255.245 45.9689 254.895C45.7687 254.536 45.7136 254.109 45.8154 253.708C45.9173 253.307 46.168 252.963 46.5133 252.751C52.2037 250.127 57.9516 247.527 63.7824 245.242C64.1704 245.135 64.5837 245.189 64.9331 245.394C65.2825 245.599 65.5398 245.937 65.6495 246.336C65.7481 246.737 65.6928 247.162 65.4952 247.522C65.2976 247.881 64.9729 248.148 64.5892 248.266Z" fill="#211715"/>
<path d="M120.021 242.974C120 232.521 117.18 222.02 110.541 214.03C104.822 207.147 97.0496 202.59 88.674 200.205C80.6017 197.898 72.115 197.601 63.91 199.337C55.2985 201.197 47.1239 205.22 40.812 211.583C33.7344 218.718 29.7581 228.382 28.9842 238.551C28.1623 249.374 30.3297 260.441 36.567 269.326C41.7516 276.716 49.5019 282 57.7745 284.886C61.8208 286.302 66.0201 287.201 70.2782 287.561C74.3836 287.892 78.5123 287.736 82.5833 287.096C91.0936 285.719 99.3675 282.335 105.922 276.636C113.316 270.207 117.866 261.307 119.407 251.455C119.827 248.649 120.032 245.813 120.02 242.974C120.024 240.958 123.059 240.954 123.055 242.974C123.033 254.227 119.936 265.326 112.804 273.99C106.805 281.28 98.4298 286.2 89.5636 288.74C80.9375 291.209 71.8656 291.515 63.1019 289.633C53.9733 287.661 45.2088 283.234 38.534 276.448C30.9544 268.739 26.8086 258.389 25.9576 247.515C25.0724 236.177 27.4118 224.348 33.945 215.038C39.5905 206.996 47.7448 201.291 56.7982 198.097C65.2981 195.146 74.3623 194.359 83.22 195.803C92.2658 197.236 101.04 200.985 108.068 207.099C115.802 213.96 120.88 223.473 122.368 233.889C122.822 236.896 123.052 239.934 123.055 242.977C123.059 244.994 120.024 244.996 120.02 242.977L120.021 242.974Z" fill="#211715"/>
<path d="M255.912 242.974C255.912 209.841 230.254 196.649 208.794 196.649C187.333 196.649 161.675 210.588 161.675 242.974C161.675 275.36 187.333 289.299 208.794 289.299C230.255 289.299 255.912 276.107 255.912 242.974Z" fill="#000705"/>
<path d="M247.043 242.974C247.043 216.077 226.214 205.369 208.791 205.369C191.368 205.369 170.539 216.684 170.539 242.974C170.539 269.265 191.368 280.58 208.791 280.58C226.214 280.58 247.043 269.871 247.043 242.974Z" fill="white"/>
<path d="M245.526 242.974C245.505 234.537 243.227 226.049 237.86 219.621C233.238 214.088 226.997 210.444 220.252 208.529C213.761 206.681 206.939 206.443 200.342 207.833C193.407 209.33 186.836 212.549 181.75 217.662C176.107 223.471 172.709 231.206 172.192 239.417C171.534 248.139 173.275 257.034 178.296 264.199C182.453 270.13 188.698 274.385 195.322 276.702C201.735 278.941 208.574 279.564 215.267 278.52C222.155 277.418 228.848 274.705 234.139 270.114C240.011 264.944 243.877 257.757 245.023 249.876C245.368 247.593 245.537 245.285 245.526 242.974C245.531 240.958 248.566 240.954 248.561 242.974C248.538 252.181 246.006 261.234 240.183 268.327C235.277 274.306 228.405 278.34 221.142 280.418C214.098 282.428 206.691 282.674 199.535 281.136C191.993 279.59 185.034 275.855 179.474 270.369C173.255 264.051 169.863 255.566 169.168 246.65C168.447 237.412 170.359 227.755 175.68 220.166C180.295 213.58 186.944 208.91 194.351 206.281C201.339 203.847 208.796 203.203 216.079 204.405C223.501 205.52 230.488 208.705 236.288 213.616C242.605 219.209 246.758 226.965 247.988 235.463C248.368 237.947 248.56 240.458 248.564 242.972C248.57 244.989 245.535 244.992 245.53 242.972L245.526 242.974Z" fill="#211715"/>
<path d="M200.255 248.714C193.69 251.979 187.19 255.379 180.754 258.914C179.03 259.861 177.495 257.156 179.223 256.208C185.657 252.675 192.158 249.275 198.723 246.008C199.073 245.809 199.483 245.756 199.87 245.861C200.256 245.966 200.589 246.219 200.799 246.57C200.999 246.93 201.054 247.356 200.952 247.757C200.85 248.158 200.6 248.502 200.255 248.714Z" fill="#211715"/>
<path d="M218.515 247.037C224.264 251.026 230.245 254.732 236.206 258.372C237.886 259.398 236.361 262.109 234.674 261.079C228.713 257.439 222.733 253.732 216.983 249.743C215.37 248.624 216.888 245.908 218.515 247.037Z" fill="#211715"/>
<path d="M213.667 253.597C215.783 259.367 218.196 265.051 220.629 270.683C220.82 271.045 220.87 271.468 220.769 271.867C220.668 272.266 220.423 272.609 220.085 272.828C219.737 273.034 219.324 273.091 218.935 272.986C218.547 272.881 218.214 272.622 218.009 272.265C215.469 266.389 212.951 260.453 210.738 254.43C210.634 254.03 210.688 253.603 210.886 253.242C211.084 252.882 211.412 252.616 211.798 252.503C212.186 252.402 212.597 252.459 212.944 252.663C213.292 252.867 213.55 253.201 213.665 253.597H213.667Z" fill="#211715"/>
<path d="M254.393 242.974C254.372 232.521 251.548 222.02 244.913 214.03C239.194 207.147 231.421 202.59 223.046 200.205C214.974 197.898 206.487 197.601 198.282 199.337C189.67 201.197 181.496 205.22 175.184 211.583C168.106 218.718 164.13 228.382 163.356 238.551C162.534 249.374 164.701 260.441 170.939 269.326C176.123 276.716 183.874 282 192.146 284.886C196.193 286.302 200.393 287.2 204.651 287.56C208.756 287.891 212.885 287.734 216.956 287.094C225.466 285.718 233.741 282.334 240.295 276.634C247.691 270.207 252.239 261.307 253.78 251.455C254.2 248.649 254.405 245.813 254.393 242.974C254.397 240.958 257.432 240.954 257.428 242.974C257.406 254.227 254.309 265.326 247.177 273.99C241.177 281.28 232.803 286.2 223.937 288.74C215.311 291.209 206.239 291.515 197.475 289.633C188.346 287.661 179.582 283.234 172.907 276.448C165.327 268.739 161.182 258.389 160.33 247.515C159.445 236.177 161.784 224.348 168.318 215.038C173.963 206.996 182.117 201.291 191.171 198.097C199.671 195.146 208.737 194.359 217.595 195.803C226.641 197.236 235.415 200.986 242.443 207.1C250.176 213.96 255.253 223.471 256.741 233.887C257.195 236.893 257.425 239.931 257.428 242.974C257.432 244.991 254.397 244.994 254.393 242.974Z" fill="#211715"/>
<path d="M105.495 186.515C104.173 182.154 102.881 177.862 101.654 173.773L112.382 172.01C113.084 174.332 114.559 179.411 115.262 181.732C128.849 177.676 167.171 166.473 179.721 162.861C177.381 155.011 175.46 148.474 174.307 144.435L182.653 141.798C187.572 159.03 206.253 220.896 211.863 237.594L203.517 240.231C200.017 229.81 191.535 202.16 184.423 178.54C178.363 188.838 156.257 224.41 142.757 244.809L123.483 242.106C120.792 234.095 115.115 215.751 109.418 197.021C100.483 211.408 88.2072 230.626 80.0421 242.966L72.7363 238.032C81.0898 225.097 95.637 202.285 105.495 186.515ZM133.247 239.434L138.082 236.29C149.83 218.105 171.3 184.035 177.649 173.41C165.665 176.823 129.779 187.166 118.224 190.623C123.811 209.051 130.622 231.621 133.247 239.434Z" fill="#F49200"/>
<path d="M78.2195 242.974C78.2195 242.808 78.2062 242.644 78.2018 242.478C78.1891 241.999 78.2719 242.728 78.1803 242.276C78.1221 241.99 78.0475 241.716 77.9628 241.438C77.9438 241.372 77.842 241.169 77.9628 241.432C77.9065 241.312 77.8496 241.193 77.7857 241.078C77.7219 240.962 77.651 240.859 77.5847 240.751C77.4841 240.608 77.4892 240.612 77.5992 240.764C77.548 240.699 77.4943 240.636 77.4392 240.574C77.3033 240.422 77.1541 240.286 77.0049 240.147C77.2723 240.397 76.9916 240.139 76.9322 240.098C76.8348 240.029 76.7343 239.967 76.6318 239.902C76.4618 239.8 76.2866 239.711 76.1077 239.626C76.4573 239.79 76.0995 239.631 76.0343 239.608C75.8877 239.555 75.7391 239.508 75.5886 239.468C75.3989 239.418 75.2137 239.383 75.0246 239.346C74.6453 239.27 75.3597 239.361 74.9766 239.346C74.8646 239.34 74.7528 239.328 74.6408 239.323C74.4541 239.317 74.2676 239.319 74.0813 239.33C73.9668 239.336 73.8537 239.349 73.7392 239.36C74.1673 239.319 73.6558 239.382 73.5691 239.401C73.3795 239.444 73.1866 239.495 73.0001 239.557C72.8869 239.594 72.7763 239.639 72.6637 239.679C73.0159 239.549 72.6511 239.687 72.5879 239.719C72.3715 239.828 72.1626 239.952 71.9625 240.09C71.8955 240.136 71.8298 240.185 71.7647 240.234C72.065 240.006 71.6591 240.343 71.6072 240.394C71.5187 240.482 71.439 240.58 71.3543 240.668C71.0768 240.951 71.4985 240.414 71.2822 240.755C71.1646 240.94 71.0622 241.131 70.9516 241.321C70.7429 241.678 71.0243 241.045 70.8883 241.451C70.8441 241.587 70.7986 241.72 70.7619 241.858C70.7303 241.976 70.7029 242.095 70.6797 242.216C70.6645 242.29 70.6512 242.364 70.6405 242.439C70.6607 242.277 70.6607 242.294 70.6405 242.488C70.6291 242.819 70.6291 243.141 70.6405 243.474C70.6576 243.966 70.6044 243.323 70.6519 243.598C70.6734 243.721 70.6968 243.843 70.7258 243.964C70.7593 244.104 70.7979 244.242 70.8428 244.379C70.8592 244.428 71.0439 244.828 70.8915 244.518C71.0082 244.754 71.1378 244.983 71.2797 245.205C71.4959 245.545 71.0742 245.009 71.3518 245.291C71.439 245.38 71.5187 245.478 71.6047 245.566C71.6907 245.654 71.7861 245.734 71.8785 245.816C71.6508 245.613 71.8001 245.758 71.8601 245.799C72.0631 245.936 72.2629 246.07 72.4778 246.185C72.5845 246.242 72.6928 246.295 72.8028 246.345C72.4557 246.188 72.8661 246.358 72.9413 246.384C73.147 246.454 73.3562 246.512 73.5679 246.559C73.6823 246.584 73.7974 246.603 73.9125 246.624C73.5097 246.551 73.8865 246.616 73.9668 246.624C74.1565 246.639 74.3411 246.644 74.5283 246.641C74.6402 246.641 74.7515 246.634 74.8628 246.625C74.938 246.62 75.0126 246.613 75.0879 246.605C74.8723 246.637 74.8508 246.64 75.0246 246.613C75.2516 246.568 75.4773 246.524 75.7005 246.458C75.8131 246.426 75.9243 246.39 76.0343 246.351C76.1083 246.324 76.181 246.296 76.2537 246.267C76.0725 246.349 76.0594 246.354 76.2145 246.282C76.4251 246.17 76.6344 246.062 76.8335 245.929C76.9334 245.864 77.0306 245.794 77.125 245.72C76.8203 245.958 77.2192 245.616 77.2711 245.564C77.3229 245.512 77.3849 245.446 77.4392 245.385C77.4936 245.323 77.548 245.26 77.5992 245.195C77.4892 245.348 77.4841 245.352 77.5847 245.209C77.6479 245.098 77.7231 244.992 77.7857 244.882C77.8085 244.84 78.0077 244.425 77.9381 244.59C77.8483 244.803 78.0076 244.381 78.0051 244.39C78.0636 244.206 78.1122 244.02 78.1505 243.831C78.1556 243.805 78.2169 243.323 78.1866 243.641C78.2075 243.423 78.215 243.205 78.2176 242.988C78.2176 242.572 78.3774 242.174 78.662 241.88C78.9466 241.586 79.3325 241.421 79.735 241.421C80.1374 241.421 80.5234 241.586 80.808 241.88C81.0926 242.174 81.2524 242.572 81.2524 242.988C81.2692 244.601 80.7355 246.169 79.7451 247.416C78.8878 248.422 77.761 249.142 76.5073 249.485C75.2803 249.852 73.9824 249.884 72.7398 249.579C71.4971 249.274 70.3522 248.642 69.4164 247.744C68.3679 246.603 67.7258 245.127 67.5955 243.56C67.4651 241.992 67.8541 240.426 68.6988 239.116C69.5021 238.021 70.5843 237.178 71.8246 236.682C73.0649 236.185 74.4145 236.054 75.7226 236.303C77.1342 236.52 78.4436 237.191 79.4644 238.221C80.6423 239.501 81.286 241.208 81.2569 242.974C81.2569 243.39 81.097 243.788 80.8124 244.082C80.5278 244.376 80.1419 244.541 79.7394 244.541C79.337 244.541 78.951 244.376 78.6664 244.082C78.3819 243.788 78.222 243.39 78.222 242.974H78.2195Z" fill="#211715"/>
<path d="M71.428 237.242C80.0845 223.841 88.6669 210.387 97.1751 196.882C99.5195 193.168 101.857 189.45 104.186 185.726L104.033 186.934C102.747 182.688 101.467 178.441 100.193 174.191C99.6131 172.261 102.542 171.435 103.119 173.358C103.991 176.265 104.866 179.17 105.742 182.075C105.96 182.795 106.178 183.516 106.395 184.236C106.62 184.978 107.091 185.945 106.987 186.726C106.824 187.322 106.541 187.876 106.155 188.351L105.245 189.803C102.706 193.851 100.158 197.895 97.6013 201.936C92.2999 210.318 86.975 218.684 81.6264 227.035C79.1066 230.969 76.5805 234.899 74.0481 238.825C72.9694 240.494 70.3398 238.927 71.428 237.242Z" fill="#211715"/>
<path d="M212.592 242.974C212.592 242.808 212.579 242.644 212.574 242.478C212.562 241.999 212.644 242.728 212.553 242.276C212.495 241.99 212.42 241.716 212.335 241.438C212.316 241.372 212.214 241.169 212.335 241.432C212.28 241.312 212.223 241.193 212.159 241.078C212.095 240.962 212.024 240.859 211.958 240.751C211.857 240.608 211.862 240.612 211.972 240.764C211.92 240.699 211.867 240.636 211.812 240.574C211.676 240.422 211.527 240.286 211.378 240.147C211.645 240.397 211.365 240.139 211.305 240.098C211.207 240.029 211.107 239.967 211.005 239.902C210.835 239.8 210.66 239.711 210.481 239.626C210.83 239.79 210.472 239.631 210.407 239.608C210.261 239.555 210.112 239.509 209.965 239.468C209.775 239.418 209.59 239.383 209.4 239.346C209.021 239.27 209.736 239.361 209.353 239.346C209.24 239.34 209.129 239.328 209.017 239.323C208.83 239.317 208.644 239.319 208.458 239.33C208.343 239.336 208.23 239.349 208.115 239.36C208.543 239.319 208.032 239.382 207.945 239.401C207.756 239.444 207.563 239.495 207.376 239.557C207.263 239.594 207.153 239.639 207.04 239.679C207.392 239.549 207.027 239.687 206.964 239.719C206.748 239.828 206.539 239.952 206.339 240.09C206.272 240.136 206.206 240.185 206.141 240.234C206.441 240.006 206.035 240.343 205.983 240.394C205.895 240.482 205.815 240.58 205.731 240.668C205.453 240.951 205.875 240.414 205.658 240.755C205.54 240.94 205.438 241.131 205.328 241.321C205.119 241.678 205.401 241.045 205.265 241.451C205.22 241.587 205.175 241.72 205.138 241.858C205.106 241.976 205.079 242.095 205.056 242.216C205.041 242.29 205.027 242.364 205.016 242.439C205.037 242.277 205.037 242.294 205.016 242.488C205.005 242.819 205.005 243.141 205.016 243.474C205.033 243.966 204.98 243.323 205.027 243.598C205.049 243.721 205.072 243.843 205.101 243.964C205.135 244.104 205.174 244.242 205.218 244.379C205.235 244.428 205.419 244.828 205.266 244.518C205.384 244.754 205.513 244.983 205.655 245.205C205.872 245.545 205.45 245.009 205.727 245.291C205.815 245.38 205.894 245.478 205.98 245.566C206.066 245.654 206.161 245.734 206.253 245.816C206.026 245.613 206.176 245.758 206.236 245.799C206.435 245.939 206.641 246.068 206.853 246.185C206.961 246.242 207.069 246.295 207.178 246.345C206.831 246.188 207.242 246.358 207.317 246.384C207.523 246.454 207.732 246.512 207.943 246.559C208.058 246.584 208.173 246.603 208.288 246.624C207.885 246.551 208.262 246.616 208.342 246.624C208.531 246.639 208.717 246.644 208.904 246.641C209.016 246.641 209.127 246.634 209.238 246.625C209.314 246.62 209.388 246.613 209.463 246.605C209.248 246.637 209.226 246.64 209.4 246.613C209.628 246.568 209.854 246.524 210.077 246.458C210.189 246.426 210.301 246.393 210.411 246.351C210.484 246.324 210.557 246.296 210.63 246.267C210.449 246.349 210.436 246.354 210.591 246.282C210.801 246.17 211.011 246.062 211.21 245.929C211.309 245.864 211.407 245.794 211.501 245.72C211.196 245.958 211.595 245.616 211.647 245.564C211.699 245.512 211.761 245.446 211.815 245.385C211.87 245.323 211.924 245.26 211.975 245.195C211.865 245.348 211.86 245.352 211.961 245.209C212.027 245.098 212.099 244.992 212.162 244.882C212.185 244.84 212.384 244.425 212.314 244.59C212.224 244.803 212.384 244.381 212.381 244.39C212.44 244.206 212.488 244.02 212.527 243.831C212.532 243.805 212.593 243.323 212.563 243.641C212.584 243.423 212.591 243.205 212.594 242.988C212.594 242.782 212.633 242.578 212.709 242.388C212.786 242.198 212.897 242.025 213.038 241.88C213.179 241.734 213.346 241.619 213.531 241.54C213.715 241.461 213.912 241.421 214.111 241.421C214.311 241.421 214.508 241.461 214.692 241.54C214.876 241.619 215.043 241.734 215.184 241.88C215.325 242.025 215.437 242.198 215.513 242.388C215.589 242.578 215.629 242.782 215.629 242.988C215.642 244.596 215.108 246.159 214.119 247.403C213.262 248.408 212.135 249.128 210.882 249.472C209.655 249.838 208.357 249.871 207.114 249.565C205.871 249.26 204.727 248.628 203.791 247.73C202.745 246.591 202.104 245.118 201.973 243.554C201.841 241.989 202.228 240.425 203.069 239.116C203.872 238.021 204.954 237.178 206.195 236.682C207.435 236.185 208.784 236.054 210.093 236.303C211.504 236.52 212.813 237.191 213.834 238.221C215.012 239.501 215.656 241.208 215.627 242.974C215.627 243.18 215.588 243.384 215.511 243.574C215.435 243.764 215.323 243.937 215.182 244.082C215.041 244.228 214.874 244.343 214.69 244.422C214.506 244.501 214.309 244.541 214.109 244.541C213.91 244.541 213.713 244.501 213.529 244.422C213.345 244.343 213.177 244.228 213.036 244.082C212.895 243.937 212.784 243.764 212.707 243.574C212.631 243.384 212.592 243.18 212.592 242.974Z" fill="#211715"/>
<path d="M184.115 141.381C185.503 146.241 186.94 151.086 188.378 155.931C190.423 162.823 192.484 169.71 194.562 176.593C196.869 184.247 199.19 191.894 201.526 199.535C203.672 206.554 205.835 213.566 208.017 220.573C209.613 225.684 211.213 230.796 212.892 235.879C213.036 236.312 213.18 236.745 213.325 237.176C213.966 239.086 211.035 239.907 210.398 238.01C208.806 233.266 207.309 228.487 205.812 223.71C203.668 216.875 201.551 210.031 199.459 203.177C197.12 195.537 194.795 187.893 192.486 180.242C190.359 173.196 188.244 166.145 186.143 159.09C184.603 153.915 183.067 148.737 181.573 143.55C181.446 143.105 181.318 142.66 181.189 142.214C180.635 140.276 183.564 139.448 184.115 141.381V141.381Z" fill="#211715"/>
<path d="M136.773 235.5C142.396 226.793 147.971 218.053 153.498 209.28C159.113 200.399 164.695 191.497 170.244 182.573C172.294 179.267 174.342 175.96 176.34 172.619L178.054 174.921C170.698 177.017 163.346 179.128 155.998 181.255C147.093 183.823 138.192 186.403 129.294 188.995C125.737 190.034 122.182 191.08 118.628 192.135L119.688 190.207C123.906 204.115 128.072 218.045 132.425 231.911C133.171 234.284 133.92 236.658 134.711 239.016C135.351 240.926 132.42 241.746 131.784 239.85C127.766 227.872 124.241 215.707 120.572 203.61C119.302 199.419 118.031 195.229 116.762 191.038C116.66 190.637 116.714 190.212 116.912 189.851C117.11 189.491 117.436 189.225 117.821 189.11C125.059 186.946 132.315 184.85 139.571 182.746C148.498 180.158 157.428 177.581 166.361 175.015C169.989 173.973 173.618 172.933 177.248 171.897C177.538 171.822 177.842 171.837 178.124 171.938C178.406 172.04 178.653 172.224 178.835 172.469C179.017 172.713 179.125 173.007 179.148 173.314C179.171 173.622 179.106 173.929 178.962 174.199C174.773 181.204 170.421 188.107 166.091 195.02C160.183 204.45 154.239 213.856 148.261 223.239C145.317 227.86 142.361 232.473 139.393 237.077C138.314 238.747 135.685 237.18 136.773 235.496V235.5Z" fill="#211715"/>
<path d="M175.77 144.017C177.528 150.173 179.357 156.309 181.184 162.443C181.286 162.844 181.232 163.269 181.034 163.63C180.836 163.99 180.51 164.256 180.125 164.371C172.298 166.624 164.476 168.898 156.661 171.192C146.991 174.016 137.324 176.85 127.658 179.693C123.66 180.871 119.662 182.054 115.666 183.243C115.278 183.345 114.867 183.289 114.518 183.084C114.17 182.88 113.912 182.544 113.799 182.148C112.822 178.913 111.896 175.661 110.919 172.426C110.336 170.496 113.264 169.67 113.845 171.593C114.822 174.828 115.748 178.08 116.725 181.315L114.859 180.22C122.919 177.815 130.987 175.436 139.062 173.083C148.658 170.269 158.257 167.465 167.857 164.67C171.677 163.559 175.497 162.452 179.318 161.349L178.258 163.276C176.431 157.139 174.602 151.007 172.844 144.85C172.29 142.912 175.218 142.084 175.77 144.017Z" fill="#211715"/>
<path d="M122.022 242.522C118.374 231.652 115.062 220.656 111.699 209.69C110.447 205.607 109.199 201.522 107.957 197.436L110.731 197.81C103.048 210.178 95.2411 222.461 87.3099 234.662C85.336 237.701 83.3509 240.732 81.3546 243.756C80.2595 245.412 77.6281 243.845 78.7339 242.174C86.5569 230.348 94.1928 218.387 101.756 206.382C103.884 203.004 106.002 199.62 108.11 196.229C108.266 195.971 108.491 195.764 108.758 195.634C109.024 195.504 109.321 195.456 109.614 195.496C109.906 195.535 110.181 195.66 110.406 195.857C110.631 196.053 110.797 196.312 110.884 196.603C114.779 209.412 118.682 222.224 122.758 234.971C123.476 237.214 124.199 239.456 124.948 241.688C125.589 243.598 122.659 244.419 122.022 242.522Z" fill="#211715"/>
<path d="M141.446 244.017C147.664 234.614 153.722 225.104 159.741 215.567C165.565 206.339 171.335 197.074 177.05 187.772C179.09 184.442 181.128 181.112 183.11 177.748C183.265 177.489 183.49 177.283 183.757 177.152C184.023 177.022 184.321 176.973 184.613 177.013C184.905 177.052 185.181 177.178 185.406 177.375C185.631 177.571 185.797 177.831 185.883 178.122C188.715 187.522 191.568 196.915 194.444 206.301C196.931 214.414 199.449 222.517 201.997 230.61C202.972 233.684 203.954 236.757 204.979 239.813C205.62 241.723 202.689 242.544 202.052 240.646C199.966 234.425 198.021 228.151 196.071 221.883C193.281 212.925 190.526 203.955 187.804 194.975C186.181 189.637 184.565 184.298 182.957 178.955L185.73 179.33C181.52 186.482 177.125 193.521 172.748 200.565C166.545 210.545 160.28 220.483 153.952 230.378C150.688 235.472 147.393 240.545 144.067 245.598C142.972 247.254 140.341 245.689 141.446 244.017Z" fill="#211715"/>
<path d="M178.107 141.97C180.242 141.665 182.449 141.336 184.276 140.156C186.103 138.976 187.453 136.7 186.916 134.545C186.315 132.133 183.594 130.84 181.19 131.042C178.786 131.245 175.383 133.538 173.168 134.525C167.803 136.917 164.822 138.107 159.67 140.171C158.39 140.686 157.211 141.438 156.193 142.391C155.81 142.908 155.587 143.533 155.554 144.183C155.521 144.834 155.679 145.479 156.007 146.035C156.399 146.539 156.918 146.923 157.507 147.144C158.095 147.365 158.732 147.415 159.346 147.289C165.748 146.13 172.03 144.349 178.108 141.971" fill="#7A7473"/>
<path d="M85.3597 157.157C96.1232 157.313 106.86 158.317 117.475 160.16C119.486 160.509 121.812 161.144 122.574 163.099C123.153 164.582 122.531 166.339 121.436 167.474C120.275 168.54 118.902 169.331 117.414 169.792C108.343 173.215 98.6346 174.455 89.0294 173.417C87.8692 173.291 86.64 173.099 85.7561 172.312C84.6775 171.353 84.3923 169.766 84.2615 168.301C83.9602 164.914 84.129 161.5 84.7628 158.162" fill="#7A7473"/>
<path d="M177.698 140.459C179.925 140.14 182.613 139.874 184.293 138.15C185.526 136.886 186.074 134.863 184.57 133.58C181.376 130.861 177.194 134.342 174.19 135.757C169.79 137.827 165.25 139.604 160.744 141.409C159.766 141.783 158.834 142.276 157.969 142.879C157.314 143.351 156.923 143.806 157.081 144.7C157.408 146.563 160.55 145.499 161.672 145.266C167.131 144.114 172.491 142.505 177.698 140.457C178.086 140.349 178.499 140.404 178.849 140.609C179.198 140.814 179.455 141.152 179.565 141.551C179.663 141.952 179.608 142.376 179.41 142.735C179.213 143.094 178.888 143.361 178.505 143.479C173.137 145.596 167.606 147.24 161.97 148.393C160.574 148.672 159.14 149.046 157.717 148.8C157.045 148.697 156.405 148.434 155.848 148.033C155.291 147.632 154.831 147.102 154.506 146.486C154.226 145.888 154.065 145.238 154.032 144.574C153.999 143.911 154.096 143.247 154.316 142.623C154.815 141.27 155.989 140.41 157.161 139.7C159.521 138.269 162.288 137.454 164.825 136.413C167.393 135.361 169.958 134.289 172.483 133.131C174.803 132.067 176.955 130.581 179.403 129.82C180.585 129.443 181.838 129.362 183.056 129.586C184.275 129.81 185.424 130.331 186.408 131.107C187.569 132.081 188.313 133.488 188.479 135.024C188.644 136.56 188.218 138.102 187.293 139.316C185.206 142.255 181.81 143.006 178.505 143.479C178.117 143.575 177.708 143.516 177.361 143.313C177.015 143.109 176.756 142.777 176.638 142.384C176.534 141.983 176.586 141.557 176.785 141.196C176.983 140.835 177.312 140.57 177.698 140.457V140.459Z" fill="#211715"/>
<path d="M85.3569 155.59C92.4959 155.696 99.6253 156.172 106.718 157.018C110.346 157.453 113.964 157.979 117.57 158.596C120.137 159.04 123.031 159.902 124.034 162.682C125.199 165.909 122.748 168.974 120.097 170.325C117.135 171.722 114.033 172.778 110.847 173.474C104.28 175.107 97.5065 175.67 90.771 175.145C89.0196 175.005 87.0564 174.961 85.496 174.028C84.7816 173.55 84.1793 172.914 83.7329 172.165C83.2866 171.416 83.0074 170.574 82.9157 169.7C82.3662 165.722 82.4963 161.675 83.3001 157.743C83.4104 157.344 83.6677 157.006 84.0168 156.801C84.3658 156.597 84.7787 156.542 85.1666 156.648C85.55 156.766 85.8745 157.032 86.072 157.392C86.2696 157.751 86.3248 158.175 86.2262 158.576C85.6545 161.677 85.4954 164.844 85.7533 167.99C85.8361 169.017 85.9291 170.397 86.7435 171.119C87.616 171.891 89.1069 171.865 90.1899 171.962C96.1125 172.499 102.079 172.154 107.907 170.938C110.811 170.329 113.67 169.508 116.462 168.483C118.259 167.822 121.647 166.608 121.263 164.012C120.965 161.987 117.613 161.76 116.15 161.512C113.068 160.99 109.975 160.542 106.872 160.168C99.7287 159.311 92.5477 158.829 85.3569 158.722C83.4057 158.692 83.4 155.558 85.3569 155.588V155.59Z" fill="#000705"/>
<path d="M129.527 284.636C129.784 283.412 130.315 280.857 130.593 279.551C130.615 279.454 130.617 279.353 130.601 279.255C130.584 279.157 130.549 279.063 130.497 278.979C130.446 278.895 130.378 278.822 130.299 278.765C130.22 278.708 130.131 278.667 130.037 278.646C127.694 278.101 115.288 275.193 112.874 274.63C112.779 274.608 112.681 274.605 112.586 274.622C112.49 274.639 112.399 274.676 112.317 274.73C112.235 274.784 112.165 274.854 112.109 274.936C112.054 275.018 112.015 275.111 111.994 275.208C111.727 276.441 111.189 278.946 110.941 280.1C110.897 280.294 110.93 280.499 111.032 280.669C111.135 280.839 111.297 280.96 111.486 281.006C113.875 281.594 126.293 284.635 128.634 285.213C128.729 285.237 128.828 285.241 128.925 285.225C129.022 285.209 129.115 285.173 129.198 285.119C129.282 285.065 129.353 284.995 129.41 284.912C129.466 284.829 129.506 284.735 129.527 284.636Z" fill="#7A7473"/>
<path d="M145.721 253.548C145.721 244.068 138.379 240.293 132.239 240.293C126.098 240.293 118.756 244.281 118.756 253.548C118.756 262.815 126.098 266.803 132.239 266.803C138.379 266.803 145.721 263.029 145.721 253.548Z" fill="white"/>
<path d="M128.063 284.219C128.271 283.229 128.478 282.24 128.685 281.25C128.783 280.782 128.881 280.314 128.979 279.846C129.079 279.373 128.964 279.087 129.364 279.727C129.79 280.409 129.703 280.119 129.404 280.104C128.923 280.032 128.449 279.922 127.985 279.773L126.033 279.316L116.111 276.992C114.959 276.805 113.821 276.538 112.704 276.195C112.668 276.189 112.632 276.18 112.597 276.17L112.564 276.162C112.188 276.082 112.486 275.903 113.456 275.624C113.442 275.801 113.405 275.975 113.345 276.141L112.997 277.753C112.884 278.279 112.771 278.806 112.657 279.332L112.509 280.025C112.499 280.069 112.485 280.254 112.453 280.286C112.317 280.407 111.94 279.515 111.947 279.513C112.212 279.43 112.918 279.751 113.185 279.816L115.095 280.285L119.933 281.471L125.398 282.811L127.581 283.347L128.403 283.549C128.515 283.57 128.625 283.597 128.733 283.63C129.378 283.866 128.453 283.108 128.059 284.222C128.175 283.827 128.433 283.493 128.781 283.289C129.128 283.086 129.538 283.028 129.926 283.128C130.312 283.241 130.64 283.506 130.838 283.867C131.036 284.228 131.089 284.654 130.985 285.055C130.474 286.508 129.289 286.989 127.887 286.644C127.333 286.507 126.778 286.37 126.223 286.234L120.848 284.915L115.056 283.496C113.759 283.178 112.416 282.932 111.136 282.535C109.584 282.052 109.258 280.671 109.576 279.195C109.841 277.965 110.106 276.734 110.37 275.504C110.446 274.86 110.697 274.252 111.093 273.749C111.38 273.46 111.733 273.251 112.119 273.143C112.505 273.034 112.912 273.029 113.301 273.128C113.811 273.227 114.317 273.366 114.823 273.484C118.506 274.346 122.188 275.208 125.87 276.07C127.37 276.422 128.926 276.683 130.403 277.13C130.798 277.24 131.159 277.455 131.447 277.755C131.736 278.055 131.943 278.428 132.047 278.837C132.136 279.597 132.055 280.368 131.811 281.09C131.533 282.412 131.256 283.734 130.98 285.055C130.576 287.023 127.65 286.189 128.063 284.219Z" fill="#211715"/>
<path d="M130.002 263.798C127.789 269.826 123.437 281.504 123.152 282.089C122.369 283.695 120.706 284.697 119.089 284.1C116.829 283.268 117.161 280.97 117.522 279.925C118.05 278.399 123.35 264.506 125.099 259.995" fill="white"/>
<path d="M144.201 253.548C144.182 250.794 143.453 247.985 141.704 245.937C140.171 244.182 138.166 242.939 135.945 242.367C131.706 241.185 126.665 242.05 123.384 245.359C119.614 249.162 119.203 256.043 122.303 260.47C123.683 262.333 125.576 263.721 127.733 264.453C128.81 264.837 129.928 265.084 131.062 265.189C131.618 265.233 132.175 265.247 132.732 265.229C133.011 265.219 133.289 265.202 133.567 265.178C133.679 265.168 133.792 265.157 133.904 265.145C133.894 265.145 134.405 265.08 134.175 265.112C136.754 264.798 139.171 263.65 141.08 261.833C143.243 259.674 144.178 256.671 144.201 253.549C144.215 251.533 147.249 251.525 147.235 253.549C147.36 256.79 146.391 259.976 144.494 262.562C142.598 265.148 139.891 266.974 136.836 267.729C131.436 269.268 125.125 267.999 121.109 263.821C116.511 259.039 115.876 250.532 119.682 245.045C123.13 240.074 129.267 238.069 134.983 238.964C138.103 239.42 141.008 240.87 143.292 243.113C146.011 245.868 147.212 249.675 147.237 253.549C147.251 255.566 144.216 255.568 144.202 253.549L144.201 253.548Z" fill="#211715"/>
<path d="M135.898 232.229C134.285 236.793 130.157 249.709 129.67 251.25C129.341 252.308 129.076 254.613 131.358 255.377C132.996 255.919 134.627 254.867 135.36 253.235C135.626 252.654 139.824 240.274 141.904 234.07" fill="white"/>
<path d="M125.038 264.367C123.025 269.63 120.888 274.867 119.04 280.196C118.917 280.524 118.829 280.865 118.777 281.213C118.812 280.925 118.783 281.6 118.792 281.701C118.769 281.432 118.802 281.762 118.823 281.832C118.909 282.114 118.813 281.938 118.937 282.136C119.061 282.301 119.217 282.436 119.396 282.534C119.574 282.632 119.77 282.691 119.971 282.705C120.289 282.698 120.601 282.611 120.879 282.451C121.158 282.292 121.394 282.066 121.569 281.791C121.663 281.66 121.737 281.353 121.862 281.25C122.041 281.105 121.704 281.659 121.828 281.335C121.964 280.984 122.101 280.635 122.236 280.284C122.677 279.134 123.113 277.981 123.544 276.827C124.893 273.23 126.234 269.631 127.568 266.027C127.685 265.633 127.943 265.3 128.291 265.096C128.638 264.893 129.047 264.834 129.435 264.933C129.821 265.046 130.149 265.312 130.348 265.672C130.546 266.033 130.599 266.46 130.495 266.86C129.188 270.396 127.872 273.929 126.546 277.459C126.058 278.759 125.57 280.058 125.072 281.354C124.768 282.311 124.309 283.208 123.715 284.007C123.058 284.841 122.153 285.426 121.14 285.672C120.127 285.918 119.063 285.811 118.116 285.368C117.389 285.015 116.778 284.451 116.357 283.744C115.936 283.037 115.725 282.219 115.748 281.39C115.795 280.434 116.011 279.495 116.385 278.619C116.818 277.444 117.26 276.279 117.702 275.11C119.163 271.247 120.633 267.388 122.112 263.533C122.229 263.139 122.487 262.806 122.835 262.602C123.182 262.399 123.591 262.34 123.979 262.438C124.365 262.551 124.693 262.817 124.891 263.178C125.09 263.539 125.142 263.965 125.038 264.366V264.367Z" fill="#211715"/>
<path d="M137.363 232.646C135.243 238.66 133.337 244.76 131.398 250.839C131.3 251.149 131.191 251.459 131.104 251.773C131.065 251.913 131.036 252.056 131.004 252.198C130.941 252.483 130.989 252.254 130.986 252.344C130.974 252.522 130.972 252.699 130.981 252.877C130.981 252.887 131.014 253.138 130.988 252.981C130.96 252.812 131.051 253.204 131.061 253.242C131.082 253.331 131.12 253.415 131.173 253.488C131.226 253.561 131.294 253.623 131.371 253.668C131.689 253.9 132.08 253.999 132.466 253.947C132.785 253.879 133.082 253.726 133.326 253.503C133.465 253.383 134.148 252.635 134.06 252.43C134.097 252.514 133.862 252.953 134.012 252.53C134.075 252.358 134.138 252.186 134.197 252.014C134.377 251.506 134.553 250.996 134.73 250.487C135.267 248.937 135.799 247.386 136.326 245.833C137.708 241.778 139.08 237.719 140.443 233.657C141.075 231.763 144.012 232.577 143.37 234.49C142.051 238.423 140.723 242.353 139.387 246.278C138.814 247.96 138.238 249.641 137.659 251.32C137.348 252.219 137.075 253.156 136.679 254.021C136.162 255.239 135.199 256.195 134 256.681C132.802 257.166 131.466 257.141 130.285 256.611C128.282 255.638 127.665 253.411 128.093 251.303C128.323 250.378 128.604 249.468 128.933 248.576C129.465 246.915 129.999 245.256 130.535 243.597C131.808 239.661 133.065 235.715 134.439 231.816C134.555 231.421 134.814 231.087 135.161 230.884C135.508 230.68 135.918 230.622 136.306 230.721C136.692 230.835 137.02 231.1 137.218 231.461C137.416 231.822 137.469 232.248 137.366 232.649L137.363 232.646Z" fill="#211715"/>
<path d="M149.419 230.324C149.04 231.538 148.247 234.07 147.847 235.366C147.817 235.463 147.77 235.553 147.707 235.631C147.644 235.709 147.566 235.773 147.479 235.82C147.392 235.867 147.297 235.895 147.199 235.904C147.101 235.913 147.003 235.902 146.909 235.871C144.575 235.116 132.207 231.14 129.8 230.364C129.706 230.334 129.619 230.284 129.543 230.219C129.468 230.153 129.405 230.073 129.36 229.982C129.315 229.892 129.287 229.793 129.279 229.691C129.27 229.59 129.282 229.488 129.312 229.39C129.685 228.164 130.45 225.673 130.8 224.526C130.858 224.331 130.989 224.168 131.162 224.073C131.336 223.977 131.54 223.956 131.729 224.014C134.125 224.756 146.568 228.621 148.917 229.345C149.013 229.374 149.102 229.423 149.18 229.488C149.257 229.553 149.321 229.634 149.368 229.725C149.415 229.816 149.443 229.916 149.452 230.019C149.461 230.122 149.45 230.226 149.419 230.324Z" fill="#7A7473"/>
<path d="M150.882 230.741C150.518 231.908 150.154 233.076 149.788 234.243C149.36 235.618 149.008 237.347 147.3 237.455C146.648 237.431 146.005 237.286 145.403 237.026C144.677 236.791 143.951 236.558 143.225 236.324C139.461 235.112 135.697 233.901 131.934 232.691C130.531 232.24 128.243 231.931 127.834 230.21C127.551 229.02 128.293 227.523 128.637 226.399C128.989 225.248 129.214 223.541 130.245 222.829C131.561 221.922 133.483 222.918 134.851 223.342L140.388 225.06L146.7 227.019L148.832 227.68C150.276 228.126 151.169 229.089 150.885 230.738C150.775 231.137 150.518 231.475 150.168 231.68C149.819 231.885 149.406 231.939 149.018 231.833C148.635 231.714 148.311 231.448 148.114 231.088C147.916 230.729 147.861 230.305 147.959 229.905C147.907 230.207 148.805 230.809 148.294 230.784C148.202 230.767 148.112 230.739 148.026 230.702L147.311 230.48L145.47 229.91L140.656 228.417C137.741 227.512 134.826 226.607 131.912 225.704C131.808 225.672 131.456 225.629 131.388 225.541C131.291 225.417 130.308 226.024 131.775 225.303C132.499 224.948 132.182 224.995 132.149 225.323C132.096 225.576 132.02 225.824 131.922 226.062C131.609 227.085 131.296 228.108 130.984 229.131C130.952 229.339 130.89 229.54 130.801 229.729C130.453 230.121 130.587 228.69 130.267 228.871C130.313 228.881 130.357 228.895 130.4 228.914C130.617 228.954 130.828 229.023 131.028 229.117L132.741 229.667L142.459 232.794C143.886 233.253 145.312 233.712 146.738 234.172C146.938 234.204 147.133 234.267 147.315 234.358C146.07 233.285 146.411 235.327 146.489 234.615C146.516 234.487 146.555 234.362 146.605 234.242L146.899 233.297C147.252 232.165 147.605 231.035 147.959 229.906C148.553 227.995 151.483 228.813 150.882 230.741Z" fill="#211715"/>
<path d="M141.113 203.046C140.593 205.741 141.555 208.651 143.129 210.979C141.756 212.081 139.123 211.942 137.42 211.668C134.72 211.235 129.24 210.374 128.013 205.341C128.635 203.715 129.183 202.062 129.657 200.383" fill="white"/>
<path d="M150.941 229.146C150.327 229.082 149.721 228.957 149.131 228.771C141.544 226.194 135.846 224.214 127.725 221.471C126.788 221.118 125.939 220.551 125.243 219.812C124.547 219.073 124.022 218.181 123.705 217.204C123.151 215.444 124.124 213.604 124.989 211.98C126.133 209.835 127.143 207.616 128.013 205.337C129.239 210.371 134.72 211.232 137.419 211.665C139.123 211.939 141.756 212.078 143.127 210.976C144.067 212.398 145.276 213.607 146.682 214.532C149.963 216.592 153.706 218.105 156.196 221.127C157.893 223.185 158.666 226.723 156.564 228.336C155.416 229.219 152.912 229.376 150.941 229.146Z" fill="white"/>
<path d="M142.574 203.463C142.107 206.107 143.362 208.947 144.988 210.929C146.831 213.174 149.418 214.3 151.847 215.728C154.29 217.164 156.94 218.947 158.317 221.569C159.536 223.889 159.952 227.176 157.938 229.183C156.141 230.972 153.069 230.979 150.752 230.689C149.411 230.475 148.095 230.121 146.824 229.634C145.28 229.109 143.737 228.581 142.194 228.053C139.269 227.051 136.344 226.05 133.418 225.049C131.777 224.489 130.135 223.931 128.493 223.376C126.956 222.966 125.536 222.186 124.347 221.1C123.055 219.873 122.234 218.206 122.036 216.405C121.917 214.419 122.933 212.608 123.818 210.927C125.646 207.441 127.114 203.767 128.195 199.963C128.747 198.033 131.677 198.853 131.122 200.796C130.208 203.994 129.04 207.109 127.632 210.11C126.952 211.557 126.094 212.935 125.478 214.411C125.199 214.968 125.075 215.594 125.12 216.218C125.165 216.843 125.378 217.443 125.734 217.951C126.404 218.992 127.409 219.755 128.571 220.105C130.106 220.624 131.639 221.144 133.172 221.666C135.951 222.612 138.73 223.562 141.507 224.515C144.266 225.46 147.022 226.559 149.826 227.345C150.813 227.601 151.83 227.709 152.847 227.666C153.773 227.704 154.695 227.527 155.547 227.149C155.836 226.929 156.06 226.631 156.195 226.288C156.33 225.945 156.37 225.57 156.311 225.204C156.217 224.184 155.85 223.21 155.251 222.393C153.662 220.18 151.053 218.831 148.769 217.546C147.475 216.879 146.229 216.115 145.043 215.26C143.821 214.298 142.751 213.145 141.872 211.843C140.926 210.536 140.243 209.047 139.861 207.463C139.479 205.88 139.407 204.234 139.648 202.622C139.758 202.223 140.016 201.885 140.365 201.68C140.714 201.475 141.127 201.42 141.515 201.527C141.899 201.645 142.223 201.912 142.42 202.271C142.618 202.63 142.673 203.054 142.575 203.455L142.574 203.463Z" fill="#211715"/>
<path d="M143.733 212.451C141.999 213.566 139.754 213.548 137.795 213.292C136.429 213.131 135.076 212.865 133.749 212.495C130.405 211.516 127.479 209.371 126.547 205.757C126.044 203.806 128.971 202.974 129.473 204.924C130.161 207.589 132.306 208.836 134.708 209.517C135.731 209.796 136.771 210.01 137.82 210.157C139.153 210.353 140.967 210.537 142.2 209.745C143.862 208.676 145.387 211.386 143.732 212.451H143.733Z" fill="#211715"/>
<path d="M82.7687 145.918C80.4767 152.553 85.5209 159.957 91.8594 162.557C98.1979 165.157 105.311 164.262 112.072 163.326C121.477 162.02 128.093 163.568 137.498 162.264C134.898 169.385 133.224 175.389 132.403 178.273C130.496 185.379 129.06 192.61 128.104 199.917C130.914 201.077 138.953 203.887 143.645 204.247C149.947 190.218 156.22 174.002 162.525 159.966C164.595 155.358 166.493 149.388 163.141 145.666C161.292 143.614 158.412 143.038 155.736 142.57L125.236 137.236" fill="#00674B"/>
<path d="M84.2331 146.335C83.0912 149.763 84.0972 153.285 86.1425 156.12C88.4631 159.202 91.7833 161.316 95.4925 162.072C99.8975 163.097 104.511 162.72 108.953 162.173C111.285 161.886 113.604 161.52 115.949 161.358C118.142 161.206 120.339 161.18 122.536 161.199C127.542 161.242 132.521 161.373 137.498 160.697C137.732 160.698 137.962 160.755 138.171 160.862C138.38 160.97 138.562 161.125 138.703 161.317C138.845 161.509 138.942 161.731 138.986 161.968C139.031 162.204 139.023 162.448 138.962 162.681C135.736 171.421 133.187 180.411 131.337 189.567C130.66 192.996 130.072 196.448 129.621 199.917L128.507 198.405C130.78 199.34 133.117 200.125 135.462 200.838C138.122 201.735 140.864 202.352 143.644 202.68L142.334 203.455C147.926 190.995 152.926 178.263 158.337 165.719C159.578 162.841 160.986 160.009 162.087 157.071C162.96 154.738 163.83 151.985 163.332 149.457C162.811 146.811 160.821 145.427 158.421 144.744C155.296 143.855 151.987 143.499 148.796 142.94L124.833 138.75C124.446 138.636 124.119 138.371 123.92 138.01C123.722 137.649 123.669 137.222 123.772 136.822C123.888 136.426 124.146 136.092 124.494 135.888C124.841 135.684 125.252 135.626 125.64 135.727L147.736 139.591C151.207 140.199 154.726 140.679 158.168 141.454C161.031 142.099 163.882 143.42 165.373 146.174C168.364 151.697 164.906 158.312 162.664 163.397C159.795 169.902 157.07 176.473 154.339 183.041C151.278 190.403 148.221 197.768 144.958 205.037C144.829 205.277 144.638 205.476 144.407 205.613C144.177 205.749 143.914 205.819 143.648 205.814C140.671 205.494 137.732 204.861 134.878 203.926C132.458 203.197 130.047 202.39 127.704 201.428C127.147 201.199 126.497 200.635 126.59 199.917C127.854 190.297 129.927 180.808 132.786 171.559C133.787 168.291 134.87 165.054 136.035 161.848L137.498 163.831C132.787 164.471 128.07 164.4 123.331 164.341C121.013 164.313 118.693 164.319 116.376 164.464C113.886 164.62 111.426 165.002 108.952 165.307C100.168 166.388 90.007 166.228 84.032 158.392C81.2684 154.768 79.8041 150.009 81.3044 145.501C81.9367 143.608 84.8685 144.42 84.2312 146.335H84.2331Z" fill="#211715"/>
<path d="M156.278 155.699L145.615 159.195C145.423 159.249 145.222 159.265 145.025 159.239C144.827 159.214 144.636 159.148 144.462 159.047C144.289 158.945 144.137 158.809 144.014 158.647C143.892 158.485 143.802 158.299 143.749 158.1C143.696 157.902 143.681 157.695 143.706 157.49C143.73 157.286 143.794 157.089 143.892 156.91C143.99 156.731 144.122 156.574 144.279 156.447C144.436 156.321 144.616 156.228 144.808 156.173L155.472 152.678C155.86 152.567 156.274 152.62 156.624 152.825C156.974 153.031 157.231 153.371 157.338 153.772C157.445 154.173 157.393 154.601 157.195 154.962C156.996 155.324 156.666 155.589 156.278 155.699Z" fill="#211715"/>
<path d="M154.581 124.774L160.012 130.5C160.998 131.538 162.036 132.613 163.377 133.06C165.251 133.687 167.271 132.961 169.24 132.919C171.963 132.863 175.999 134.552 178.103 136.339C179.841 137.915 181.271 139.819 182.317 141.95C182.705 142.648 183.465 145.65 181.076 146.109C180.726 146.147 180.371 146.092 180.047 145.948C179.723 145.804 179.441 145.576 179.226 145.287C179.56 145.777 180.491 149.009 178.196 149.955C177.673 150.153 177.096 150.142 176.58 149.923C176.064 149.703 175.646 149.292 175.409 148.77C175.761 150.027 175.575 152.529 173.185 152.884C172.881 152.906 172.576 152.855 172.296 152.733C172.015 152.611 171.766 152.422 171.569 152.183C170.679 151.133 169.887 150 169.204 148.797C169.59 149.387 169.737 150.109 169.615 150.809C169.492 151.509 169.109 152.132 168.548 152.545C168.203 152.843 166.899 152.888 165.925 152.062C164.959 151.215 164.115 150.229 163.42 149.135C163.009 148.223 162.379 147.433 161.591 146.842C160.803 146.25 159.882 145.875 158.915 145.753C158.126 145.643 157.356 145.417 156.629 145.083C155.365 144.469 154.728 143.024 154.041 141.764C152.289 138.489 150.106 135.481 147.553 132.826" fill="white"/>
<path d="M178.644 146.709C178.085 146.258 177.624 145.692 177.289 145.046C176.842 144.352 176.403 143.656 175.925 142.983C175.711 142.681 176.115 143.221 175.935 142.997C175.886 142.936 175.838 142.873 175.788 142.812C175.683 142.686 175.575 142.563 175.459 142.448C175.051 142.042 174.617 141.659 174.186 141.279C173.983 141.1 173.778 140.923 173.571 140.749C173.444 140.645 173.318 140.542 173.196 140.44C172.947 140.234 173.408 140.6 173.133 140.387C172.701 140.057 172.265 139.734 171.814 139.433C171.64 139.33 171.488 139.193 171.366 139.029C171.244 138.865 171.155 138.678 171.104 138.478C171.052 138.278 171.04 138.07 171.066 137.865C171.093 137.66 171.159 137.463 171.26 137.284C171.361 137.106 171.495 136.95 171.655 136.825C171.815 136.7 171.997 136.609 172.19 136.558C172.384 136.506 172.586 136.494 172.784 136.523C172.982 136.553 173.173 136.622 173.345 136.728C174.304 137.377 175.223 138.088 176.097 138.855C176.849 139.456 177.54 140.134 178.159 140.879C178.714 141.605 179.213 142.371 179.706 143.144C179.896 143.438 180.081 143.731 180.279 144.022C180.313 144.074 180.35 144.124 180.384 144.175C180.522 144.383 180.094 143.832 180.302 144.065C180.33 144.094 180.356 144.124 180.38 144.156C180.527 144.36 180.051 143.921 180.178 144.004C180.526 144.213 180.778 144.557 180.88 144.959C180.982 145.361 180.925 145.789 180.722 146.148C180.519 146.506 180.186 146.767 179.797 146.873C179.408 146.978 178.994 146.919 178.646 146.709H178.644Z" fill="#211715"/>
<path d="M155.654 123.666L159.782 128.017C160.853 129.147 161.899 130.502 163.245 131.295C164.699 132.155 166.548 131.612 168.113 131.436C169.57 131.285 171.042 131.411 172.455 131.808C175.467 132.555 178.219 134.149 180.406 136.415C181.458 137.597 182.377 138.899 183.147 140.295C183.706 141.182 184.072 142.185 184.219 143.233C184.326 143.876 184.28 144.536 184.086 145.157C183.891 145.778 183.553 146.34 183.1 146.796C181.551 148.202 179.542 147.775 178.156 146.392L180.54 144.493C180.983 145.298 181.224 146.205 181.239 147.13C181.254 148.056 181.043 148.971 180.625 149.79C179.099 152.425 175.517 152.091 174.102 149.558L176.876 148.35C177.414 150.433 176.787 152.955 174.811 153.974C174.149 154.349 173.389 154.499 172.64 154.402C171.89 154.304 171.19 153.965 170.638 153.432C169.56 152.281 168.637 150.985 167.894 149.58L170.514 147.998C170.877 148.613 171.09 149.309 171.134 150.028C171.178 150.747 171.052 151.466 170.767 152.123C170.553 152.659 170.216 153.132 169.785 153.503C169.353 153.873 168.841 154.129 168.292 154.249C165.648 154.636 163.491 152.169 162.203 150.07C161.807 149.227 161.213 148.499 160.476 147.952C159.555 147.502 158.572 147.204 157.561 147.068C156.272 146.801 155.107 146.095 154.253 145.063C153.506 143.991 152.836 142.864 152.249 141.691C150.653 138.862 148.714 136.256 146.48 133.933C145.094 132.509 147.239 130.293 148.626 131.717C150.359 133.513 151.925 135.472 153.305 137.569C153.984 138.593 154.621 139.645 155.217 140.725C155.618 141.652 156.144 142.516 156.778 143.292C157.447 143.955 158.448 144.064 159.319 144.241C160.266 144.417 161.176 144.759 162.011 145.253C163.781 146.348 164.456 148.231 165.784 149.742C166.135 150.19 166.542 150.588 166.993 150.928C167.169 151.047 167.366 151.127 167.574 151.163C167.522 151.154 167.792 151.184 167.757 151.174C167.993 151.243 167.834 151.116 167.834 151.174C167.834 151.187 167.484 151.516 167.802 151.118C167.909 151.002 167.998 150.87 168.065 150.726C168.125 150.535 168.14 150.332 168.111 150.134C168.081 149.935 168.007 149.747 167.894 149.583C166.972 147.806 169.5 146.271 170.515 148.001C170.994 148.843 171.526 149.652 172.107 150.423C172.546 150.989 172.803 151.499 173.435 151.185C173.7 151.055 173.659 151.041 173.773 150.879C173.963 150.606 173.9 150.667 173.991 150.286C174.015 150.19 174.034 149.933 174.015 150.159C174.028 150.006 174.023 149.857 174.025 149.702C174.025 149.648 173.966 149.199 174.025 149.554C174.004 149.428 173.975 149.306 173.944 149.183C173.501 147.478 175.848 146.418 176.718 147.975C176.922 148.342 177.22 148.613 177.593 148.51C177.758 148.47 177.902 148.368 177.999 148.225C177.883 148.373 178.109 148.003 178.113 147.992C178.035 148.181 178.122 147.898 178.139 147.831C178.152 147.779 178.188 147.446 178.167 147.688C178.177 147.555 178.18 147.421 178.176 147.288C178.176 147.157 178.166 147.027 178.152 146.896C178.176 147.119 178.152 146.91 178.13 146.801C178.083 146.594 178.016 146.391 177.971 146.185C177.899 145.855 178.127 146.417 177.914 146.074C176.965 144.548 179.078 142.957 180.297 144.175C180.575 144.452 180.787 144.6 180.992 144.511C181.146 144.446 181.129 144.36 181.101 144.446C181.124 144.374 181.172 144.199 181.133 144.423C181.149 144.327 181.196 144.237 181.211 144.14C181.26 143.819 181.223 144.052 181.218 144.114C181.227 144.015 181.229 143.915 181.226 143.815C181.226 143.731 181.152 143.184 181.211 143.509C181.179 143.335 181.142 143.163 181.094 142.994C181.02 142.733 180.93 142.609 181.055 142.836C179.854 140.667 178.561 138.478 176.506 137.056C174.532 135.629 172.237 134.747 169.84 134.495C168.404 134.406 166.995 134.788 165.569 134.862C164.02 134.977 162.478 134.553 161.191 133.656C159.865 132.595 158.638 131.409 157.524 130.114L153.504 125.877C152.136 124.435 154.28 122.22 155.65 123.66L155.654 123.666Z" fill="#211715"/>
<path d="M174.217 149.754C173.787 148.993 173.39 148.213 172.953 147.456C172.85 147.278 172.746 147.102 172.637 146.929C172.522 146.782 172.417 146.626 172.324 146.464C172.356 146.537 172.508 146.688 172.376 146.54C172.317 146.474 172.261 146.409 172.203 146.344C172.045 146.169 171.887 145.996 171.727 145.821C171.189 145.234 170.646 144.652 170.077 144.096C169.808 143.835 169.535 143.58 169.255 143.332C169.105 143.202 168.954 143.071 168.801 142.94C168.737 142.888 168.674 142.837 168.611 142.786C168.29 142.524 168.861 142.982 168.528 142.72C168.196 142.503 167.95 142.171 167.833 141.783C167.728 141.376 167.783 140.942 167.986 140.576C168.192 140.22 168.525 139.962 168.913 139.857C169.301 139.752 169.714 139.808 170.062 140.014C171.427 141.097 172.702 142.297 173.873 143.601C174.479 144.242 175.017 144.948 175.477 145.708C175.952 146.515 176.375 147.354 176.836 148.169C176.936 148.347 177.002 148.543 177.029 148.747C177.056 148.951 177.044 149.159 176.993 149.358C176.943 149.557 176.855 149.744 176.734 149.908C176.614 150.072 176.463 150.21 176.291 150.314C176.119 150.418 175.929 150.485 175.731 150.513C175.534 150.541 175.333 150.529 175.14 150.477C174.947 150.424 174.766 150.334 174.608 150.209C174.449 150.085 174.315 149.929 174.215 149.751L174.217 149.754Z" fill="#211715"/>
<path d="M168.128 149.899C167.883 149.497 167.614 149.111 167.334 148.735L167.572 149.052C166.736 147.958 165.828 146.924 164.853 145.96C164.712 145.815 164.6 145.642 164.523 145.452C164.447 145.262 164.407 145.058 164.407 144.852C164.407 144.646 164.446 144.442 164.522 144.251C164.598 144.061 164.71 143.888 164.851 143.742C164.992 143.597 165.159 143.481 165.343 143.402C165.527 143.323 165.725 143.282 165.924 143.282C166.124 143.282 166.321 143.322 166.506 143.401C166.69 143.479 166.858 143.595 166.999 143.74C168.419 145.106 169.678 146.64 170.749 148.311C170.948 148.671 171.003 149.097 170.901 149.498C170.799 149.899 170.549 150.243 170.204 150.455C169.855 150.656 169.444 150.71 169.057 150.605C168.67 150.5 168.337 150.245 168.129 149.893L168.128 149.899Z" fill="#211715"/>
<path d="M127.602 73.5081C131.155 74.9746 133.672 78.3896 135.083 82.0619C136.495 85.7342 136.95 89.7094 137.519 93.6194C137.969 96.7105 138.511 99.8395 139.851 102.643C141.017 105.082 142.741 107.179 144.404 109.285C148.202 114.091 152.67 120.33 155.121 124.238C152.67 127.007 149.579 130.199 146.488 133.536C144.495 133.653 137.222 129.696 133.218 126.463C131.507 125.081 129.103 123.171 127.886 121.313C121.584 111.699 116.044 101.577 111.318 91.0434" fill="white"/>
<path d="M128.005 71.9964C131.353 73.4932 134.068 76.1834 135.655 79.576C137.566 83.4449 138.208 87.7492 138.817 91.9981C139.408 96.147 140.033 100.286 142.29 103.866C143.407 105.535 144.606 107.142 145.884 108.683C147.106 110.241 148.305 111.819 149.48 113.415C151.898 116.68 154.27 119.997 156.44 123.445C156.605 123.745 156.671 124.093 156.628 124.435C156.585 124.778 156.436 125.096 156.203 125.344C154.534 127.224 152.812 129.051 151.091 130.88C150.132 131.901 149.173 132.922 148.217 133.946C147.716 134.483 147.277 135.067 146.497 135.101C146.178 135.104 145.86 135.071 145.548 135.003C144.092 134.656 142.686 134.113 141.367 133.388C139.588 132.51 137.857 131.531 136.183 130.455C134.494 129.364 132.867 128.173 131.31 126.889C129.436 125.48 127.784 123.78 126.414 121.848C123.484 117.385 120.732 112.792 118.143 108.109C115.21 102.805 112.499 97.3805 110.01 91.8342C109.818 91.4726 109.768 91.049 109.869 90.6503C109.971 90.2516 110.216 89.9081 110.555 89.6905C110.903 89.4841 111.316 89.4274 111.704 89.5325C112.093 89.6377 112.425 89.8964 112.631 90.2527C116.157 98.1023 120.134 105.728 124.541 113.088C125.63 114.905 126.744 116.705 127.885 118.489C128.395 119.285 128.88 120.127 129.453 120.876C130.086 121.663 130.786 122.389 131.545 123.047C133.941 125.199 136.538 127.101 139.297 128.723C140.779 129.619 142.309 130.427 143.88 131.143C144.417 131.383 144.965 131.592 145.524 131.771C145.746 131.836 145.974 131.882 146.195 131.95C146.308 131.984 146.556 131.974 146.153 131.954C146.268 131.96 146.38 131.971 146.496 131.967L145.421 132.424C148.296 129.323 151.244 126.291 154.054 123.126L153.816 125.024C151.99 122.123 150.013 119.321 147.999 116.555C145.723 113.428 143.267 110.452 140.973 107.343C139.733 105.704 138.707 103.904 137.923 101.988C137.202 100.076 136.682 98.0885 136.374 96.0608C135.658 91.8492 135.34 87.5383 133.979 83.4716C132.82 80.0109 130.599 76.4653 127.201 75.0144C126.82 74.8928 126.498 74.6256 126.301 74.2675C126.104 73.9093 126.047 73.4871 126.141 73.0869C126.25 72.6874 126.507 72.3485 126.856 72.1435C127.206 71.9385 127.619 71.884 128.007 71.9919L128.005 71.9964Z" fill="#211715"/>
<path d="M136.666 54.0719C139.605 59.2269 142.235 64.5626 144.543 70.0493C145.826 72.8382 146.856 75.744 147.619 78.7292C148.511 82.7358 147.291 86.745 146.488 90.6615L143.706 104.233C143.302 106.205 140.375 105.371 140.779 103.4L143.175 91.7219C143.574 89.7756 143.973 87.8291 144.373 85.8824C144.738 84.0985 145.123 82.2865 144.866 80.4556C144.468 77.6217 143.243 74.7846 142.15 72.1669C140.994 69.3989 139.735 66.6774 138.42 63.9865C137.042 61.1664 135.607 58.371 134.047 55.6534C133.048 53.9145 135.671 52.3363 136.667 54.0719H136.666Z" fill="#211715"/>
<path d="M134.236 127.004C134.154 127.968 133.887 128.906 133.453 129.763C132.981 130.872 132.432 131.944 131.809 132.97C131.086 134.204 130.244 135.359 129.296 136.419C128.379 137.469 127.197 138.234 125.882 138.628C118.717 140.827 111.487 142.823 104.164 144.378C96.8631 146.008 89.4422 146.998 81.9802 147.338C80.519 147.389 78.8922 147.609 77.5277 146.943C76.9915 146.66 76.522 146.259 76.1526 145.768C75.7833 145.277 75.5232 144.708 75.3907 144.101C74.6598 141.181 75.6885 138.138 76.1994 135.283C76.7623 132.365 77.5239 129.493 78.4787 126.686C79.1048 124.602 79.8413 122.555 80.6847 120.554C80.8901 120.198 81.2229 119.939 81.6114 119.834C81.9998 119.729 82.4127 119.786 82.761 119.992C83.1016 120.208 83.3483 120.552 83.4497 120.951C83.5511 121.351 83.4994 121.775 83.3054 122.136C83.2795 122.194 83.153 122.492 83.2713 122.209C83.3977 121.911 83.2194 122.345 83.1922 122.415C83.0531 122.775 82.9191 123.133 82.7869 123.499C82.4295 124.479 82.086 125.465 81.7563 126.456C80.9445 128.88 80.1757 131.33 79.5883 133.822C79.3177 134.963 79.1293 136.119 78.8738 137.262C78.5502 138.574 78.3315 139.911 78.2201 141.26C78.1998 141.596 78.1904 141.934 78.1992 142.271C78.203 142.401 78.2314 142.858 78.2201 142.77C78.2465 143.188 78.3772 143.592 78.5994 143.942C78.6974 144.062 78.8305 144.146 78.9788 144.181C79.6085 144.278 80.2473 144.297 80.8813 144.235C94.6647 143.928 108.296 140.584 121.489 136.686C122.378 136.425 123.265 136.158 124.152 135.887C124.877 135.749 125.575 135.484 126.214 135.104C126.43 134.941 126.085 135.213 126.301 135.033C126.437 134.919 126.566 134.797 126.693 134.673C126.919 134.455 127.133 134.226 127.34 133.99C127.764 133.503 128.157 132.988 128.516 132.448C129.259 131.342 129.916 130.177 130.482 128.964C130.603 128.707 130.72 128.447 130.828 128.184C130.736 128.409 130.852 128.119 130.873 128.059C130.914 127.95 130.954 127.842 130.992 127.733C131.062 127.528 131.115 127.321 131.177 127.113C131.317 126.633 131.194 127.329 131.197 127.008C131.215 124.992 134.25 124.988 134.232 127.008L134.236 127.004Z" fill="#211715"/>
<path d="M136.119 56.2156C125.796 60.8214 116.497 67.5633 108.795 76.0253C105.369 79.8523 102.3 84.0039 99.6274 88.4251C96.8943 93.048 94.4855 97.8673 92.4195 102.846C90.3331 107.714 88.447 112.652 86.2632 117.494C86.0577 117.85 85.7249 118.109 85.3365 118.214C84.948 118.319 84.5351 118.262 84.1868 118.056C83.8459 117.84 83.599 117.496 83.4976 117.097C83.3962 116.697 83.4481 116.273 83.6424 115.912C87.7939 106.71 91.0608 97.0116 96.2049 88.1933C101.709 78.7236 108.926 70.4363 117.463 63.7835C122.772 59.6914 128.519 56.2443 134.592 53.5104C134.942 53.3134 135.352 53.2619 135.738 53.3664C136.123 53.4708 136.456 53.7234 136.667 54.0726C136.868 54.432 136.923 54.8585 136.821 55.2597C136.719 55.6609 136.468 56.0046 136.123 56.2162L136.119 56.2156Z" fill="#211715"/>
<path d="M112.407 179.607C111.921 179.718 111.435 179.832 110.953 179.954C110.757 180.019 110.549 180.028 110.348 179.981C110.147 179.972 109.953 179.908 109.784 179.796C109.611 179.701 109.464 179.562 109.358 179.392C109.224 179.241 109.131 179.058 109.087 178.859L109.032 178.442C109.032 178.164 109.103 177.891 109.24 177.651L109.477 177.334C109.662 177.142 109.893 177.003 110.146 176.931C110.631 176.81 111.115 176.695 111.601 176.585C111.796 176.52 112.005 176.51 112.206 176.557C112.406 176.566 112.601 176.63 112.77 176.743C113.099 176.963 113.345 177.294 113.465 177.679L113.52 178.096C113.52 178.374 113.448 178.647 113.312 178.887L113.075 179.204C112.889 179.396 112.659 179.535 112.405 179.607H112.407Z" fill="#211715"/>
<path d="M158.321 66.1439C157.051 65.9297 155.699 65.7945 154.503 66.3933C153.374 67.0537 152.445 68.0237 151.817 69.1958C151.013 70.5018 150.316 71.8789 149.556 73.2122C148.704 74.7082 147.837 76.1956 147.015 77.7092C146.058 79.4683 143.436 77.8901 144.394 76.1271C145.298 74.4653 146.254 72.8355 147.185 71.1913C147.982 69.6482 148.855 68.1483 149.801 66.6976C150.769 65.2148 152.13 64.051 153.721 63.3453C155.475 62.627 157.309 62.8157 159.125 63.1219C159.511 63.2351 159.839 63.5007 160.037 63.8614C160.235 64.2221 160.288 64.6489 160.184 65.0495C160.069 65.4449 159.811 65.7793 159.463 65.9831C159.116 66.1869 158.705 66.2445 158.318 66.1439H158.321Z" fill="#211715"/>
<path d="M174.94 59.8505C173.875 59.6863 172.851 59.3055 171.928 58.7301C171.27 58.3285 170.707 57.7799 170.28 57.1244C170.08 56.7648 170.025 56.3385 170.127 55.9375C170.229 55.5365 170.48 55.1929 170.824 54.9807C171.174 54.7797 171.585 54.7259 171.972 54.8307C172.359 54.9355 172.692 55.1907 172.901 55.5429C172.935 55.5984 172.972 55.6513 173.011 55.7036L172.774 55.3862C172.95 55.6114 173.152 55.8135 173.375 55.9883L173.068 55.7434C173.442 56.0345 173.849 56.2758 174.282 56.4617L173.919 56.3036C174.506 56.5535 175.12 56.7304 175.747 56.8306C176.129 56.9387 176.454 57.1964 176.655 57.5488C176.858 57.9148 176.912 58.3487 176.807 58.7562C176.701 59.1493 176.452 59.4848 176.111 59.6925L175.748 59.8505C175.485 59.9257 175.206 59.9257 174.942 59.8505H174.94Z" fill="#211715"/>
<path d="M175.045 42.7547C175.108 43.8425 174.396 46.1403 172.579 45.9124C170.24 45.3319 170.746 42.4693 171.832 41.328C172.72 40.3929 174.719 40.3975 175.045 42.7547Z" fill="#211715"/>
<path d="M33.8736 89.0192C39.3939 76.8447 46.8983 60.8392 53.3424 46.7332C53.4472 46.5034 53.5059 46.2541 53.5151 46.0002C53.5243 45.7464 53.4837 45.4932 53.3958 45.256C53.3078 45.0187 53.1744 44.8023 53.0034 44.6197C52.8325 44.437 52.6275 44.292 52.4009 44.1932C52.1742 44.0937 51.9693 43.9478 51.7985 43.7644C51.6278 43.581 51.4948 43.3637 51.4075 43.1258C51.3202 42.8879 51.2804 42.6342 51.2905 42.38C51.3006 42.1258 51.3605 41.8763 51.4664 41.6466C53.4897 37.2717 55.5306 32.8642 57.5033 28.5703C57.704 28.1317 58.0615 27.7904 58.5006 27.6181C58.9397 27.4459 59.4264 27.456 59.8585 27.6464C67.1403 30.84 107.097 48.7247 119.463 54.1208C119.687 54.2179 119.888 54.3604 120.057 54.54C120.225 54.7195 120.357 54.9322 120.444 55.1656C120.531 55.3989 120.572 55.6479 120.563 55.8978C120.555 56.1477 120.498 56.3932 120.395 56.6197C111.501 76.3609 99.2455 102.251 92.2748 117.985C92.0794 118.425 91.726 118.769 91.2894 118.944C90.8527 119.119 90.3671 119.112 89.9354 118.924C77.825 113.674 46.2913 99.4262 33.7377 93.9256C33.5126 93.8275 33.309 93.6835 33.139 93.5023C32.969 93.321 32.8362 93.1062 32.7485 92.8708C32.6608 92.6353 32.62 92.3839 32.6285 92.1318C32.637 91.8796 32.6947 91.6318 32.7981 91.4032C33.1463 90.6262 33.5048 89.8315 33.8736 89.0192Z" fill="#F49200"/>
<path d="M56.0354 80.9447L57.0504 78.5718L56.4837 73.777L57.3369 74.142L57.7303 77.8428L57.8547 77.8961L60.8029 75.6247L61.6561 75.9897L57.797 78.8912L56.7819 81.2641L56.0354 80.9447ZM60.064 82.7627C59.75 82.6284 59.4888 82.4361 59.2805 82.1858C59.0781 81.938 58.9569 81.6478 58.9169 81.3153C58.8854 80.9794 58.952 80.6189 59.1167 80.2338L60.2421 77.6031L60.9442 77.9035L59.8416 80.4808C59.6566 80.9133 59.6289 81.2729 59.7586 81.5597C59.8942 81.849 60.1456 82.0722 60.5129 82.2294C60.9277 82.4068 61.3267 82.4162 61.7099 82.2578C62.0931 82.0993 62.4 81.7504 62.6306 81.2113L63.5659 79.025L64.268 79.3254L62.4089 83.6712L61.7246 83.3785L62.0401 82.6409L61.9157 82.5876C61.7322 82.7544 61.4882 82.8743 61.1836 82.9473C60.8816 83.0144 60.5084 82.9528 60.064 82.7627ZM63.1226 83.9765L64.9817 79.6307L65.666 79.9234L65.4341 80.4655L65.5585 80.5188C65.7073 80.4002 65.9044 80.3163 66.1498 80.2671C66.3951 80.2178 66.6896 80.2667 67.0333 80.4137C67.371 80.5582 67.6119 80.7488 67.7559 80.9857C67.9058 81.225 67.9825 81.4716 67.9861 81.7255L68.1105 81.7787C68.3025 81.6085 68.5309 81.4924 68.7957 81.4305C69.0664 81.3711 69.3854 81.4199 69.7528 81.5771C70.0431 81.7013 70.2725 81.8695 70.441 82.0818C70.6096 82.294 70.7079 82.5394 70.736 82.8177C70.7726 83.0927 70.7249 83.3842 70.5932 83.6923L69.3347 86.634L68.6327 86.3337L69.8644 83.4542C69.9886 83.1639 70.0003 82.899 69.8995 82.6596C69.8071 82.4168 69.6098 82.2308 69.3076 82.1016C68.9877 81.9647 68.6797 81.9556 68.3836 82.0743C68.0934 82.1954 67.8647 82.4516 67.6974 82.8426L66.5797 85.4554L65.8776 85.1551L67.1094 82.2756C67.2336 81.9853 67.2453 81.7205 67.1444 81.4811C67.052 81.2383 66.8547 81.0523 66.5526 80.923C66.2326 80.7861 65.9246 80.777 65.6286 80.8957C65.3384 81.0169 65.1097 81.273 64.9424 81.664L63.8247 84.2769L63.1226 83.9765ZM69.6845 86.7836L70.1255 85.7527L70.9431 86.1025L72.7224 81.9432L71.9047 81.5935L72.3458 80.5626L74.9053 81.6575C75.7407 82.0149 76.2834 82.4993 76.5334 83.111C76.7919 83.7192 76.7425 84.441 76.3851 85.2764L75.8832 86.4495C75.5259 87.2849 75.0367 87.8221 74.4158 88.0611C73.8033 88.2968 73.0794 88.2359 72.244 87.8785L69.6845 86.7836ZM72.1314 86.5688L72.718 86.8197C73.192 87.0224 73.5918 87.0463 73.9175 86.8912C74.2431 86.7362 74.5023 86.4335 74.6949 85.9832L75.2272 84.739C75.4223 84.2828 75.4623 83.8863 75.347 83.5496C75.2342 83.207 74.9408 82.9343 74.4668 82.7316L73.8803 82.4806L72.1314 86.5688ZM76.3768 89.7937C76.0628 89.6594 75.8042 89.4856 75.6009 89.2725C75.4003 89.0535 75.2702 88.8086 75.2108 88.5379C75.1598 88.2638 75.199 87.9756 75.3283 87.6735C75.4575 87.3713 75.6363 87.1499 75.8647 87.0093C76.1015 86.8653 76.3689 86.7974 76.6667 86.8057C76.9731 86.8106 77.2921 86.884 77.6239 87.0259L78.8326 87.543L78.939 87.2941C79.0277 87.0867 79.0348 86.89 78.9602 86.7039C78.8881 86.5119 78.7099 86.355 78.4255 86.2334C78.1471 86.1142 77.9118 86.0907 77.7198 86.1628C77.5303 86.2289 77.3717 86.3538 77.2441 86.5375L76.3614 85.7499C76.5288 85.5552 76.7288 85.3989 76.9615 85.2811C77.2025 85.16 77.4775 85.0989 77.7863 85.0978C78.1037 85.0934 78.4519 85.1723 78.8311 85.3345C79.4117 85.5829 79.8088 85.9244 80.0223 86.3592C80.2358 86.794 80.2247 87.2869 79.989 87.8379L79.2857 89.4821C79.2097 89.6598 79.2546 89.7842 79.4205 89.8551L79.776 90.0072L79.3806 90.9315L78.6341 90.6121C78.4148 90.5183 78.2569 90.3877 78.1604 90.2202C78.0638 90.0528 78.0535 89.8802 78.1296 89.7024L78.1334 89.6935L77.9645 89.6213C77.9104 89.6822 77.8165 89.7542 77.6829 89.8372C77.5518 89.9143 77.3783 89.9593 77.1626 89.9721C76.9468 89.985 76.6849 89.9255 76.3768 89.7937ZM76.9601 88.9708C77.2741 89.1052 77.5656 89.1282 77.8347 89.0401C78.1121 88.9485 78.313 88.7575 78.4372 88.4672L78.4752 88.3784L77.3465 87.8955C77.1391 87.8068 76.9572 87.7816 76.8007 87.8197C76.6442 87.8579 76.5317 87.957 76.4633 88.117C76.3948 88.2769 76.4013 88.4339 76.4826 88.5878C76.5639 88.7418 76.7231 88.8694 76.9601 88.9708ZM81.1867 91.8513C80.612 91.6055 80.1942 91.2795 79.9333 90.8736C79.6724 90.4676 79.6023 90.017 79.723 89.5219L80.868 89.6963C80.8208 89.9215 80.8192 90.1135 80.8633 90.2726C80.9133 90.4342 80.998 90.572 81.1174 90.6862C81.2453 90.7969 81.3951 90.8891 81.5669 90.9626C81.8276 91.0741 82.0392 91.112 82.2016 91.0764C82.3666 91.0348 82.4782 90.9459 82.5365 90.8096C82.5948 90.6734 82.5799 90.5443 82.4918 90.4225C82.4063 90.2948 82.2433 90.1515 82.0029 89.9926L81.7731 89.8417C81.4903 89.6507 81.2431 89.4503 81.0314 89.2406C80.8223 89.0249 80.68 88.7923 80.6045 88.5428C80.529 88.2932 80.5534 88.0233 80.6776 87.7329C80.8651 87.2945 81.1683 87.0282 81.5871 86.934C82.0084 86.8339 82.4798 86.8953 83.0011 87.1184C83.4929 87.3287 83.8548 87.6132 84.0869 87.9718C84.319 88.3305 84.4094 88.7091 84.358 89.1076L83.1813 88.9828C83.2303 88.7373 83.2009 88.5356 83.0934 88.3774C82.9917 88.2218 82.8343 88.0983 82.621 88.0071C82.4077 87.9158 82.2283 87.8847 82.0827 87.9135C81.9398 87.9365 81.8404 88.0131 81.7846 88.1434C81.7238 88.2856 81.7374 88.4176 81.8255 88.5394C81.9161 88.6553 82.0545 88.7741 82.2408 88.8958L82.4706 89.0467C82.7771 89.2479 83.042 89.4559 83.2656 89.6706C83.4976 89.882 83.6513 90.1125 83.7268 90.3621C83.8107 90.6082 83.7868 90.8854 83.655 91.1935C83.4573 91.6556 83.1351 91.9418 82.6884 92.0521C82.2501 92.159 81.7496 92.0921 81.1867 91.8513ZM83.3144 92.6143L85.9756 86.3932L87.0954 86.8723L86.0879 89.2274L86.2479 89.2958C86.3359 89.2213 86.4505 89.1582 86.5918 89.1065C86.733 89.0547 86.8993 89.0348 87.0905 89.0465C87.2902 89.0548 87.5204 89.1147 87.7811 89.2262C88.1248 89.3732 88.3897 89.5812 88.5761 89.8502C88.7709 90.1158 88.8798 90.4182 88.9029 90.7575C88.9285 91.0908 88.8627 91.4412 88.7056 91.8085L87.5802 94.4392L86.4604 93.9601L87.5478 91.4184C87.6897 91.0866 87.7132 90.8023 87.6183 90.5654C87.5293 90.3311 87.3337 90.1493 87.0315 90.02C86.6879 89.873 86.3718 89.8745 86.0834 90.0245C85.7975 90.1685 85.5671 90.4449 85.3922 90.8537L84.4342 93.0933L83.3144 92.6143Z" fill="white"/>
<path fill-rule="evenodd" clip-rule="evenodd" d="M62.7278 73.3754C63.9821 70.4433 67.3492 69.0741 70.2491 70.3147C73.149 71.5552 74.4841 74.936 73.2299 77.868C72.6788 79.1639 71.6743 80.2145 70.4044 80.8232C70.3912 80.8292 70.3784 80.8353 70.3657 80.8413C70.3421 80.8526 70.3189 80.8636 70.2939 80.874C70.0253 80.9863 69.9446 80.9518 69.7781 80.8806C69.6116 80.8094 69.5061 80.7642 69.4251 80.4998C69.0751 79.3558 68.136 78.5216 66.9545 78.0162C65.773 77.5107 64.5233 77.4068 63.4521 77.9446C63.2049 78.0687 63.097 78.0225 62.9329 77.9523C62.7688 77.8821 62.706 77.8553 62.5814 77.5747C62.5719 77.5505 62.5637 77.5257 62.5555 77.5005C62.5511 77.487 62.5466 77.4734 62.5419 77.4597C62.1051 76.1209 62.1712 74.6689 62.7278 73.3754ZM69.4011 73.265L70.0001 71.8647L69.3 71.5652L68.701 72.9654L69.4011 73.265ZM64.0023 74.2685L65.4025 74.8675L65.7021 74.1673L64.3018 73.5683L64.0023 74.2685ZM66.0914 71.8196L66.6578 73.2334L67.3648 72.9501L66.798 71.5364L66.0914 71.8196ZM71.7489 73.6543L70.3351 74.2207L70.6184 74.9277L72.0321 74.3609L71.7489 73.6543ZM70.3035 76.964L71.7038 77.5631L72.0033 76.8629L70.603 76.2639L70.3035 76.964ZM69.9027 76.5662C69.9027 76.5662 68.0887 74.7327 67.5411 75.1595C67.3465 75.3112 67.2342 75.5738 67.2596 75.8175C67.3318 76.508 69.9027 76.5662 69.9027 76.5662Z" fill="#00674B"/>
<path d="M148.152 2.99366C149.334 3.08638 150.372 3.16604 151.192 3.22546L156.476 4.25127C160.209 4.97606 164.008 5.7237 167.366 7.55854C170.71 9.38684 173.44 12.1946 176.021 15.05C180.52 20.0276 184.783 24.9398 185.841 31.5883C185.928 32.2057 185.795 32.8347 185.466 33.3581C185.137 33.8814 184.635 34.2634 184.054 34.4326C183.557 34.5442 183.05 34.6007 182.541 34.6011C178.937 34.6768 175.334 34.6736 171.73 34.5913C154.121 34.8068 151.61 31.5034 136.05 23.5562C134.317 22.6714 133.043 18.7477 133.417 15.7572C133.661 13.7983 128.596 6.89055 127.367 3.65054C127.285 3.43589 127.256 3.20377 127.281 2.97453C127.306 2.74529 127.385 2.52591 127.512 2.33562C127.638 2.14532 127.807 1.9899 128.005 1.88298C128.203 1.77606 128.424 1.7209 128.647 1.72233C132.414 1.74062 142.145 2.52548 148.152 2.99366Z" fill="#3F88C9"/>
<path d="M139.035 85.8406C139.017 86.1018 139.001 86.363 138.984 86.6242L136.392 85.5141C138.135 83.1994 137.966 79.689 137.734 76.9394C137.444 73.8962 136.535 70.9504 135.068 68.2941C134.767 67.7395 134.431 67.2056 134.063 66.6957C133.921 66.4965 134.216 66.8752 133.947 66.5481C133.83 66.4064 133.715 66.2634 133.596 66.1237C133.325 65.8103 133.042 65.5095 132.745 65.2213C131.452 63.9928 129.946 63.0271 128.307 62.375C125.369 61.2908 122.255 60.8103 119.139 60.9607C117.185 61.0057 117.186 57.8715 119.139 57.8265C124.631 57.7004 130.372 58.8562 134.588 62.7237C138.247 66.0786 140.147 71.3533 140.699 76.2518C141.142 80.1977 140.981 84.4844 138.535 87.7329C137.731 88.8005 135.859 87.9079 135.943 86.6229C135.96 86.3617 135.975 86.1005 135.993 85.8393C136.002 85.4267 136.165 85.0335 136.448 84.7417C136.73 84.4498 137.111 84.2817 137.511 84.2722C137.912 84.2758 138.296 84.442 138.58 84.7352C138.864 85.0283 139.025 85.4248 139.028 85.8393L139.035 85.8406Z" fill="#211715"/>
<path d="M128.617 75.7765C128.795 75.9227 128.352 75.5956 128.3 75.5597C128.106 75.4324 127.907 75.3129 127.705 75.1999C127.308 74.9767 126.899 74.7762 126.481 74.5992C125.409 74.1551 124.305 73.8024 123.178 73.5446C122.176 73.2949 121.151 73.1566 120.12 73.132C119.245 73.1199 118.376 73.2872 117.563 73.6243C115.74 74.259 114.845 75.3436 113.981 77.1869C112.658 80.0155 111.926 83.0975 110.627 85.9405C109.183 89.0989 106.972 91.7996 104.652 94.3076C103.301 95.769 101.157 93.5508 102.506 92.0915C104.733 89.8382 106.591 87.2268 108.007 84.3591C109.368 81.3776 110.094 78.1245 111.562 75.1895C112.561 73.084 114.326 71.4719 116.471 70.7049C118.724 69.9233 121.146 69.8191 123.453 70.4045C126.019 70.9373 128.697 71.8633 130.766 73.5603C131.049 73.8554 131.207 74.2535 131.207 74.6684C131.207 75.0833 131.049 75.4814 130.766 75.7765C130.477 76.0614 130.093 76.2204 129.693 76.2204C129.294 76.2204 128.909 76.0614 128.62 75.7765H128.617Z" fill="#211715"/>
<path d="M113.659 96.8802C110.149 99.7089 105.333 100.341 101.009 100.336C99.056 100.336 99.0529 97.2021 101.009 97.2021C103.122 97.2363 105.231 97.0037 107.289 96.5093C107.737 96.3957 108.18 96.2651 108.617 96.1176C108.826 96.0477 109.034 95.9733 109.239 95.8942C109.323 95.8622 109.775 95.6749 109.612 95.7473C110 95.5738 110.377 95.3776 110.743 95.1597C110.906 95.0639 111.065 94.9631 111.221 94.8573C111.304 94.8012 111.739 94.4747 111.51 94.6614C111.8 94.3797 112.184 94.223 112.583 94.223C112.981 94.223 113.365 94.3797 113.656 94.6614C113.938 94.9568 114.096 95.3548 114.096 95.7695C114.096 96.1842 113.938 96.5823 113.656 96.8776L113.659 96.8802Z" fill="#211715"/>
<path d="M116.839 104.505C110.743 106.457 104.359 107.272 97.9864 106.912C97.5868 106.902 97.206 106.734 96.9234 106.443C96.6407 106.151 96.4779 105.757 96.4689 105.345C96.4724 104.93 96.6334 104.534 96.9172 104.241C97.201 103.947 97.585 103.781 97.9864 103.778C104.086 104.131 110.198 103.353 116.033 101.483C117.909 100.909 118.711 103.933 116.839 104.505Z" fill="#211715"/>
<path d="M119.138 59.4014C130.446 59.0945 134.826 64.5376 136.44 67.6242C138.177 70.7757 139.164 74.3088 139.318 77.9319C139.483 81.3926 139.264 85.1974 136.581 87.5664C136.246 85.6887 135.745 83.8467 135.084 82.0639C134.027 79.1064 132.153 76.5345 129.694 74.6671C127.408 72.7408 121.173 70.968 118.321 71.7542C115.183 72.6194 113.942 73.5779 112.568 76.6162C111.193 79.6544 110.434 82.9708 108.932 85.9451C107.49 88.6092 105.69 91.0494 103.586 93.193C108.758 81.9999 114.348 69.9703 119.138 59.4014Z" fill="#F49200"/>
<path d="M101.012 98.7595C105.964 98.7804 110.243 97.688 112.587 95.7722L116.438 102.995C110.478 104.935 104.225 105.73 97.988 105.341C98.9621 103.213 99.9701 101.019 101.012 98.7595Z" fill="#211715"/>
<path d="M32.563 88.2266C37.6154 77.0883 42.7943 66.0127 47.9144 54.9077C49.2301 52.0536 50.6186 49.2204 51.8553 46.3284C51.9925 46.0065 52.0785 45.8994 51.849 45.6526C51.6952 45.5529 51.5337 45.4666 51.366 45.3947C51.0619 45.1974 50.7899 44.9519 50.5598 44.6673C49.5482 43.4136 49.6607 41.9535 50.2917 40.5595C51.7459 37.3417 53.2583 34.1493 54.7359 30.9419C55.0681 30.2211 55.4 29.5 55.7318 28.7787C56.0005 28.0243 56.4231 27.3384 56.971 26.7675C57.4891 26.3253 58.1208 26.0488 58.7888 25.9719C59.4568 25.895 60.132 26.0211 60.7317 26.3346C65.6982 28.5129 70.6469 30.7363 75.6007 32.9439C83.2115 36.3367 90.8225 39.7274 98.4337 43.1158C104.963 46.0215 111.496 48.9163 118.034 51.8003C119.618 52.4963 121.448 53.0069 121.97 54.9417C122.366 56.4011 121.57 57.709 120.995 58.9822C120.438 60.2137 119.879 61.4443 119.32 62.6741C116.914 67.9614 114.491 73.2397 112.049 78.5092C107.275 88.8469 102.464 99.167 97.7439 109.532C96.7323 111.752 95.7285 113.972 94.7325 116.192C94.355 117.218 93.8941 118.209 93.3548 119.154C92.9374 119.767 92.3382 120.223 91.6479 120.452C90.9576 120.682 90.2135 120.674 89.5283 120.428C88.0235 119.873 86.5566 119.134 85.0885 118.487C83.4282 117.756 81.7691 117.022 80.1113 116.286C71.773 112.586 63.4429 108.867 55.121 105.13C47.8594 101.881 40.6022 98.6205 33.3179 95.4249C32.7194 95.1925 32.1964 94.7909 31.8085 94.266C31.4206 93.7411 31.1836 93.114 31.1246 92.4565C31.007 90.9815 31.9775 89.509 32.5623 88.2188C32.7678 87.8624 33.1006 87.6037 33.4891 87.4986C33.8775 87.3934 34.2904 87.4501 34.6387 87.6566C34.9796 87.8726 35.2265 88.2163 35.3279 88.6158C35.4293 89.0154 35.3775 89.4399 35.1831 89.8009C34.8821 90.465 34.5622 91.1231 34.2809 91.7963C34.1468 92.1157 34.0488 92.2371 34.3042 92.465C34.5864 92.6443 34.891 92.7827 35.2096 92.8764L36.2782 93.3465C37.7922 94.0138 39.3053 94.6838 40.8172 95.3563C44.5008 96.9918 48.1823 98.6333 51.8616 100.281C60.0866 103.961 68.3122 107.639 76.5384 111.317C79.9682 112.845 83.4008 114.366 86.8361 115.882C87.5291 116.186 88.2222 116.491 88.9156 116.796L89.4145 117.014L89.5934 117.092C89.8977 117.278 90.2271 117.418 90.5709 117.505C91.1279 117.513 91.5256 115.938 91.7368 115.465C92.1806 114.471 92.6264 113.478 93.074 112.486C97.4367 102.806 101.916 93.1819 106.374 83.5481C108.765 78.381 111.15 73.2112 113.529 68.0389C114.679 65.5328 115.825 63.0247 116.967 60.5147C117.507 59.329 118.045 58.1423 118.581 56.9548C118.699 56.6936 119.129 56.0406 119.047 55.7794C118.965 55.5183 118.668 55.4614 118.427 55.355C112.658 52.7843 106.87 50.2567 101.099 47.6912C93.6587 44.3828 86.2209 41.0701 78.7854 37.753C73.0601 35.2012 67.3336 32.6518 61.6061 30.1048C60.8436 29.7666 60.0843 29.416 59.3154 29.0927C59.17 29.0314 59.1213 29.0843 59.2484 29.0764C59.1687 29.081 59.0587 29.0248 58.9955 29.0986C58.6427 29.6214 58.3602 30.1912 58.1558 30.7924C57.4667 32.2903 56.7767 33.7873 56.0858 35.2835C55.3899 36.791 54.6929 38.2987 53.9949 39.8066C53.6573 40.5366 53.3089 41.2614 52.9833 41.996C52.8284 42.344 52.683 42.5046 52.9694 42.7502C53.271 43.0113 53.7085 43.1374 54.0158 43.4449C54.5499 43.984 54.894 44.6922 54.9933 45.4567C55.1924 46.9415 54.2978 48.3089 53.706 49.6004C48.6516 60.6355 43.5176 71.6269 38.4538 82.6555C37.3579 85.0375 36.2691 87.4221 35.1875 89.8094C34.982 90.1656 34.6491 90.4242 34.2607 90.5293C33.8723 90.6345 33.4595 90.5779 33.1112 90.3716C32.7697 90.1559 32.5221 89.8124 32.42 89.4128C32.3179 89.0131 32.3691 88.5882 32.563 88.2266Z" fill="#211715"/>
<path d="M107.79 70.6624C101.654 68.0232 95.5633 65.2683 89.4651 62.5376C81.9715 59.1818 74.4785 55.8242 66.9861 52.4649C65.365 51.741 63.7432 51.0184 62.1208 50.2971C61.4645 50.0059 60.808 49.7155 60.1513 49.426L59.3022 49.0526L58.914 48.8821C58.8065 48.8351 58.3285 48.6268 58.7983 48.8319C58.4176 48.7095 58.0962 48.4421 57.8994 48.084C57.7026 47.7259 57.6451 47.3039 57.7386 46.9036C57.8476 46.5042 58.1047 46.1653 58.4541 45.9604C58.8035 45.7556 59.2171 45.7012 59.605 45.8093C65.6065 48.4211 71.5726 51.1231 77.5469 53.8016C85.0721 57.1761 92.5996 60.5456 100.13 63.9101C101.789 64.6502 103.45 65.3863 105.112 66.1185C105.792 66.4179 106.473 66.7168 107.154 67.015L107.359 67.1044C107.538 67.1828 107.083 66.9843 107.346 67.0986L107.774 67.2847C108.047 67.4035 108.321 67.5219 108.596 67.6399C108.976 67.7618 109.298 68.029 109.495 68.3871C109.692 68.7451 109.749 69.1672 109.655 69.5674C109.546 69.9669 109.289 70.3058 108.94 70.5108C108.59 70.7158 108.177 70.7703 107.789 70.6624H107.79Z" fill="#00674B"/>
<path d="M100.267 62.7563C99.3858 64.755 98.5202 66.7472 97.4846 68.6682C97.2786 69.0239 96.9458 69.282 96.5576 69.3871C96.1693 69.4923 95.7567 69.436 95.4082 69.2304C95.0669 69.0148 94.8196 68.6711 94.7181 68.2714C94.6166 67.8717 94.6689 67.4469 94.8639 67.0861C95.8989 65.1651 96.7644 63.1729 97.6458 61.1741C97.8464 60.8224 98.1715 60.5648 98.5525 60.4559C98.8435 60.3727 99.152 60.3811 99.4384 60.48C99.7248 60.5789 99.9761 60.7638 100.16 61.011C100.344 61.2583 100.453 61.5566 100.472 61.8678C100.491 62.1791 100.419 62.4891 100.267 62.7582V62.7563Z" fill="#00674B"/>
<path d="M71.6788 50.2893C70.8429 52.1829 70.0216 54.0764 69.0397 55.8989C68.8366 56.2578 68.5038 56.5187 68.1145 56.6242C67.7252 56.7297 67.3112 56.6711 66.9637 56.4614C66.6161 56.2517 66.3635 55.908 66.2613 55.5059C66.1592 55.1038 66.2159 54.6763 66.419 54.3174C67.4015 52.4943 68.2228 50.604 69.058 48.7071C69.2589 48.3553 69.5842 48.0978 69.9653 47.9889C70.2563 47.9059 70.5647 47.9144 70.851 48.0134C71.1373 48.1123 71.3884 48.2973 71.5724 48.5445C71.7564 48.7917 71.8648 49.0899 71.8837 49.4011C71.9027 49.7122 71.8313 50.0222 71.6788 50.2912V50.2893Z" fill="#00674B"/>
<path d="M160.041 63.1311C158.334 53.748 157.921 43.0113 160.61 34.033C159.058 33.8155 157.52 33.4971 156.007 33.0797C154.433 42.7018 155.102 60.4657 158.454 66.1929L160.736 66.5847C160.488 65.4589 160.256 64.3078 160.041 63.1311Z" fill="#211715"/>
<path d="M148.152 2.99366C149.334 3.08638 150.372 3.16604 151.192 3.22546L156.476 4.25127C160.209 4.97606 164.008 5.7237 167.366 7.55854C170.71 9.38684 173.44 12.1946 176.021 15.05C180.52 20.0276 184.783 24.9398 185.841 31.5883C185.928 32.2057 185.795 32.8347 185.466 33.3581C185.137 33.8814 184.635 34.2634 184.054 34.4326C183.557 34.5442 183.05 34.6007 182.541 34.6011C178.937 34.6768 175.334 34.6736 171.73 34.5913C154.121 34.8068 151.61 31.5034 136.05 23.5562C134.317 22.6714 133.043 18.7477 133.417 15.7572C133.661 13.7983 128.596 6.89055 127.367 3.65054C127.285 3.43589 127.256 3.20377 127.281 2.97453C127.306 2.74529 127.385 2.52591 127.512 2.33562C127.638 2.14532 127.807 1.9899 128.005 1.88298C128.203 1.77606 128.424 1.7209 128.647 1.72233C132.414 1.74062 142.145 2.52548 148.152 2.99366Z" fill="#F49200"/>
<path d="M157.475 33.4976C156.843 37.9092 156.595 42.3706 156.736 46.8279C156.744 51.3936 157.196 55.9469 158.084 60.4194C158.291 61.3974 158.549 62.363 158.857 63.312C158.928 63.5288 159.005 63.7443 159.083 63.9585C159.117 64.0505 159.152 64.1413 159.188 64.2321C159.107 64.0264 159.177 64.2105 159.223 64.3137C159.386 64.6868 159.568 65.0508 159.769 65.4041L158.862 64.6859L161.145 65.0776L159.277 67.0052C156.893 56.2045 155.974 44.3571 159.151 33.6217C159.72 31.6981 162.651 32.5188 162.078 34.4549C159.058 44.6594 159.936 55.9035 162.204 66.172C162.269 66.4383 162.265 66.7172 162.194 66.9817C162.123 67.2461 161.987 67.4871 161.799 67.6812C161.611 67.8752 161.378 68.0157 161.122 68.0891C160.866 68.1624 160.596 68.166 160.338 68.0996C159.621 67.9768 158.877 67.9037 158.171 67.728C157.101 67.4603 156.692 66.1492 156.314 65.2004C155.542 63.1283 154.999 60.973 154.695 58.7752C153.825 53.0855 153.505 47.3207 153.739 41.5657C153.822 38.5836 154.092 35.6102 154.548 32.6644C154.658 32.2655 154.915 31.9271 155.265 31.7223C155.614 31.5176 156.027 31.4629 156.415 31.5701C156.798 31.6887 157.122 31.9553 157.319 32.3144C157.517 32.6734 157.572 33.0972 157.475 33.4976Z" fill="#211715"/>
<path d="M148.151 1.42653C149.698 1.51016 151.239 1.68237 152.767 1.94237C154.324 2.24447 155.88 2.54658 157.436 2.84868C160.618 3.37122 163.733 4.26226 166.722 5.50495C172.169 7.95879 176.352 12.8835 180.166 17.4359C182.089 19.6357 183.756 22.0596 185.135 24.6584C185.795 25.9582 186.337 27.3188 186.753 28.7224C187.152 30.0858 187.618 31.6706 187.233 33.0842C186.26 36.6579 182.267 36.1878 179.452 36.2113C176.136 36.2394 172.819 36.1832 169.503 36.1636C164.842 36.1362 160.11 35.843 155.593 34.5835C151.822 33.4186 148.18 31.8481 144.726 29.8978C142.466 28.7022 140.219 27.4818 137.955 26.2914C136.804 25.6881 135.449 25.2043 134.472 24.3117C133.59 23.4111 132.932 22.3023 132.557 21.0808C132.1 19.782 131.857 18.4138 131.837 17.0324C131.788 16.5399 131.812 16.0426 131.907 15.5573C131.878 15.6481 131.991 15.8486 131.89 15.4979C131.841 15.3255 131.794 15.1558 131.737 14.9867C131.634 14.6951 131.51 14.4115 131.368 14.1378C131.149 13.6807 130.912 13.2361 130.672 12.7933C130.138 11.8139 129.57 10.8567 129.004 9.89744C127.855 8.12706 126.852 6.25996 126.006 4.3159C125.738 3.65556 125.705 2.91836 125.914 2.23534C126.122 1.55232 126.558 0.967738 127.144 0.585506C128.033 0.0128555 129.142 0.151937 130.14 0.187197C134.986 0.356968 139.826 0.774866 144.66 1.14967L148.155 1.42261C148.555 1.43255 148.935 1.60085 149.218 1.89261C149.5 2.18438 149.663 2.57723 149.673 2.98972C149.67 3.40435 149.509 3.80107 149.225 4.09426C148.941 4.38745 148.557 4.5536 148.155 4.55684C143.49 4.19314 138.825 3.81377 134.154 3.52646C133.128 3.46117 132.101 3.40501 131.075 3.35865C130.658 3.34037 130.242 3.32339 129.825 3.31098C129.582 3.30315 128.917 3.41742 128.711 3.28813C128.68 3.26919 128.625 3.26985 128.701 3.29335C129.084 3.41089 128.432 2.67238 128.833 3.23263C128.843 3.24699 128.92 3.45855 128.857 3.29792C128.786 3.11771 128.904 3.40175 128.92 3.44027C129.022 3.65379 129.12 3.86862 129.225 4.08018C129.642 4.91597 130.105 5.72695 130.573 6.53337C131.615 8.33098 132.722 10.094 133.68 11.9432C134.095 12.7065 134.444 13.5062 134.722 14.333C134.906 15.0996 134.956 15.8938 134.871 16.6785C134.857 17.8194 135.039 18.9538 135.407 20.0295C135.559 20.4887 135.761 20.929 136.008 21.342C136.071 21.4497 136.244 21.7037 136.261 21.7253C136.335 21.8153 136.413 21.9007 136.496 21.9812C136.843 22.3195 136.412 21.9479 136.623 22.089C137.774 22.7703 138.958 23.3899 140.17 23.9453C141.263 24.5213 142.353 25.1022 143.441 25.6881C146.792 27.4838 150.185 29.3767 153.604 30.6506C157.114 31.9174 160.78 32.6627 164.494 32.8642C167.112 33.0392 169.726 32.9843 172.346 33.0379C175.538 33.1027 178.73 33.1056 181.923 33.0464C182.736 33.0314 184.113 33.2423 184.332 32.1479C184.359 31.6549 184.288 31.1614 184.124 30.6977C183.969 30.0202 183.779 29.3517 183.555 28.695C182.672 26.2824 181.433 24.0249 179.884 22.0021C178.253 19.8588 176.513 17.8061 174.672 15.8525C172.872 13.757 170.86 11.8661 168.67 10.2122C163.783 6.73905 157.656 6.06911 151.964 4.96494C150.702 4.75767 149.429 4.62273 148.153 4.56076C147.753 4.55097 147.373 4.38273 147.09 4.09093C146.808 3.79913 146.645 3.40619 146.635 2.99364C146.638 2.57924 146.799 2.18272 147.083 1.88956C147.366 1.59641 147.75 1.43011 148.151 1.42653Z" fill="#211715"/>
<path d="M171.207 22.4409C169.985 21.0111 168.638 19.7013 167.182 18.5284C166.995 18.3721 166.808 18.2174 166.62 18.0641C166.586 18.0367 166.28 17.7886 166.447 17.9237C166.615 18.0589 166.264 17.7794 166.231 17.754C165.88 17.4784 165.523 17.2087 165.162 16.9449C164.564 16.4979 163.941 16.0876 163.296 15.7161C162.952 15.5037 162.701 15.1599 162.6 14.7589C162.498 14.3578 162.553 13.9315 162.752 13.5717C162.961 13.2194 163.294 12.9641 163.68 12.8593C164.067 12.7545 164.479 12.8083 164.828 13.0095C166.388 13.9441 167.863 15.0233 169.234 16.2339C170.725 17.4278 172.104 18.764 173.353 20.2248C173.634 20.5195 173.791 20.9168 173.789 21.3302C173.787 21.7436 173.628 22.1396 173.345 22.432C173.062 22.7243 172.678 22.8893 172.278 22.8909C171.877 22.8926 171.493 22.7309 171.207 22.4409Z" fill="#211715"/>
<path d="M158.372 13.6782C157.601 13.4048 156.806 13.2103 155.998 13.0977L156.401 13.1538C156.145 13.119 155.888 13.0924 155.63 13.0742C155.23 13.065 154.846 12.9021 154.556 12.6171C154.271 12.3232 154.111 11.9246 154.111 11.509C154.111 11.0934 154.271 10.6948 154.556 10.4009C154.696 10.2549 154.864 10.1393 155.049 10.0608C155.233 9.98235 155.431 9.94259 155.63 9.94385C156.838 10.0231 158.031 10.2646 159.179 10.6621C159.556 10.7795 159.878 11.0349 160.085 11.3804C160.186 11.5581 160.252 11.7545 160.279 11.9585C160.306 12.1624 160.294 12.3699 160.243 12.569C160.193 12.7682 160.105 12.955 159.984 13.119C159.864 13.283 159.713 13.4209 159.541 13.5247C159.366 13.6305 159.173 13.699 158.972 13.7262C158.771 13.7533 158.567 13.7385 158.372 13.6827V13.6782Z" fill="#211715"/>
</g>
<defs>
<clipPath id="clip0_844_3855">
<rect width="281.484" height="290.7" fill="white" transform="matrix(-1 0 0 1 282.346 0.150665)"/>
</clipPath>
</defs>
</svg>
